<!-- Generated by IcoMoon.io -->
<svg version="1.1" xmlns="http://www.w3.org/2000/svg" width="48" height="48" viewBox="0 0 48 48">
<title>activity</title>
<path d="M44 22h-8c-0.878 0-1.624 0.566-1.898 1.368l-4.102 12.308-10.102-30.308c-0.35-1.048-1.482-1.614-2.53-1.266-0.62 0.206-1.070 0.686-1.266 1.266l-5.544 16.632h-6.558c-1.104 0-2 0.896-2 2s0.896 2 2 2h8c0.846-0.006 1.62-0.534 1.898-1.368l4.102-12.308 10.102 30.308c0.196 0.58 0.646 1.058 1.264 1.264 1.048 0.35 2.18-0.218 2.53-1.264l5.546-16.632h6.558c1.104 0 2-0.896 2-2s-0.896-2-2-2z"></path>
</svg>
