<!-- Generated by IcoMoon.io -->
<svg version="1.1" xmlns="http://www.w3.org/2000/svg" width="48" height="48" viewBox="0 0 48 48">
<title>airplay</title>
<path d="M10 32h-2c-0.552 0-1.050-0.222-1.414-0.586s-0.586-0.862-0.586-1.414v-20c0-0.552 0.222-1.050 0.586-1.414s0.862-0.586 1.414-0.586h32c0.552 0 1.050 0.222 1.414 0.586s0.586 0.862 0.586 1.414v20c0 0.552-0.222 1.050-0.586 1.414s-0.862 0.586-1.414 0.586h-2c-1.104 0-2 0.896-2 2s0.896 2 2 2h2c1.656 0 3.16-0.674 4.242-1.758s1.758-2.586 1.758-4.242v-20c0-1.656-0.674-3.16-1.758-4.242s-2.586-1.758-4.242-1.758h-32c-1.656 0-3.16 0.674-4.242 1.758s-1.758 2.586-1.758 4.242v20c0 1.656 0.674 3.16 1.758 4.242s2.586 1.758 4.242 1.758h2c1.104 0 2-0.896 2-2s-0.896-2-2-2zM25.536 28.72c-0.070-0.086-0.158-0.174-0.256-0.256-0.848-0.708-2.11-0.592-2.816 0.256l-10 12c-0.288 0.344-0.464 0.792-0.464 1.28 0 1.104 0.896 2 2 2h20c0.45 0.002 0.906-0.15 1.28-0.464 0.848-0.708 0.964-1.968 0.256-2.816zM24 33.124l5.73 6.876h-11.46z"></path>
</svg>
