<!-- Generated by IcoMoon.io -->
<svg version="1.1" xmlns="http://www.w3.org/2000/svg" width="48" height="48" viewBox="0 0 48 48">
<title>alert-triangle</title>
<path d="M22.296 8.748c0.146-0.246 0.37-0.484 0.668-0.664 0.472-0.286 1.012-0.356 1.512-0.232s0.948 0.432 1.228 0.896l16.932 28.266c0.14 0.24 0.238 0.536 0.256 0.868-0.030 0.736-0.238 1.182-0.566 1.518-0.36 0.368-0.854 0.596-1.386 0.602l-33.874-0.002c-0.304-0.002-0.642-0.082-0.962-0.268-0.478-0.276-0.798-0.718-0.932-1.214s-0.076-1.038 0.184-1.49zM18.864 6.692l-16.94 28.28c-0.844 1.462-1.012 3.1-0.616 4.58s1.36 2.816 2.796 3.644c0.928 0.536 1.952 0.8 2.95 0.804h33.886c1.678-0.018 3.174-0.708 4.246-1.804s1.728-2.606 1.71-4.262c-0.012-1.072-0.306-2.088-0.812-2.948l-16.948-28.294c-0.864-1.426-2.22-2.362-3.708-2.726s-3.122-0.162-4.538 0.698c-0.858 0.52-1.55 1.23-2.024 2.028zM22 18v8c0 1.104 0.896 2 2 2s2-0.896 2-2v-8c0-1.104-0.896-2-2-2s-2 0.896-2 2zM24 36c1.104 0 2-0.896 2-2s-0.896-2-2-2-2 0.896-2 2 0.896 2 2 2z"></path>
</svg>
