<!-- Generated by IcoMoon.io -->
<svg version="1.1" xmlns="http://www.w3.org/2000/svg" width="48" height="48" viewBox="0 0 48 48">
<title>align-center</title>
<path d="M36 18h-24c-1.104 0-2 0.896-2 2s0.896 2 2 2h24c1.104 0 2-0.896 2-2s-0.896-2-2-2zM42 10h-36c-1.104 0-2 0.896-2 2s0.896 2 2 2h36c1.104 0 2-0.896 2-2s-0.896-2-2-2zM42 26h-36c-1.104 0-2 0.896-2 2s0.896 2 2 2h36c1.104 0 2-0.896 2-2s-0.896-2-2-2zM36 34h-24c-1.104 0-2 0.896-2 2s0.896 2 2 2h24c1.104 0 2-0.896 2-2s-0.896-2-2-2z"></path>
</svg>
