<!-- Generated by IcoMoon.io -->
<svg version="1.1" xmlns="http://www.w3.org/2000/svg" width="48" height="48" viewBox="0 0 48 48">
<title>anchor</title>
<path d="M28 10c0 1.106-0.446 2.102-1.172 2.828s-1.722 1.172-2.828 1.172-2.102-0.446-2.828-1.172-1.172-1.722-1.172-2.828 0.446-2.102 1.172-2.828 1.722-1.172 2.828-1.172 2.102 0.446 2.828 1.172 1.172 1.722 1.172 2.828zM10 22h-6c-1.104 0-2 0.896-2 2 0 6.074 2.464 11.578 6.444 15.556s9.482 6.444 15.556 6.444 11.578-2.464 15.556-6.444 6.444-9.482 6.444-15.556c0-1.104-0.896-2-2-2h-6c-1.104 0-2 0.896-2 2s0.896 2 2 2h3.89c-0.46 4.172-2.346 7.912-5.162 10.728s-6.556 4.702-10.728 5.162v-24.142c1.406-0.362 2.664-1.098 3.656-2.090 1.446-1.446 2.344-3.45 2.344-5.658s-0.898-4.212-2.344-5.656-3.448-2.344-5.656-2.344-4.212 0.898-5.656 2.344-2.344 3.448-2.344 5.656 0.898 4.212 2.344 5.656c0.992 0.994 2.25 1.73 3.656 2.092v24.142c-4.172-0.46-7.912-2.346-10.728-5.162s-4.702-6.556-5.162-10.728h3.89c1.104 0 2-0.896 2-2s-0.896-2-2-2z"></path>
</svg>
