<!-- Generated by IcoMoon.io -->
<svg version="1.1" xmlns="http://www.w3.org/2000/svg" width="48" height="48" viewBox="0 0 48 48">
<title>aperture</title>
<path d="M22.844 14l4.446-7.7c3.65 0.674 6.914 2.45 9.438 4.972 0.832 0.832 1.584 1.746 2.242 2.728h-10.388zM14.76 20l-4.444-7.694c0.306-0.358 0.624-0.702 0.956-1.034 3-3 7.050-4.944 11.55-5.234l-5.184 8.98zM15.916 30h-8.892c-0.664-1.876-1.024-3.896-1.024-6 0-2.86 0.666-5.562 1.852-7.964l5.2 9.008zM34.946 22.956l-2.862-4.956h8.892c0.664 1.876 1.024 3.896 1.024 6 0 2.86-0.666 5.562-1.852 7.964l-5.152-8.924zM25.176 41.962l8.064-13.962 4.444 7.696c-0.306 0.356-0.624 0.702-0.956 1.032-3 3-7.050 4.944-11.55 5.234zM21.4 45.848c0.092 0.016 0.184 0.028 0.278 0.030 0.762 0.080 1.538 0.122 2.322 0.122 6.074 0 11.578-2.464 15.556-6.444 0.732-0.732 1.412-1.514 2.034-2.342 0.084-0.094 0.158-0.194 0.22-0.298 2.636-3.626 4.19-8.092 4.19-12.916 0-3.078-0.634-6.010-1.776-8.672-0.032-0.088-0.068-0.172-0.11-0.252-1.106-2.488-2.66-4.734-4.558-6.632-3.402-3.402-7.92-5.698-12.956-6.292-0.092-0.016-0.184-0.028-0.278-0.030-0.762-0.080-1.538-0.122-2.322-0.122-6.074 0-11.578 2.464-15.556 6.444-0.732 0.73-1.412 1.514-2.034 2.342-0.084 0.094-0.158 0.194-0.222 0.298-2.634 3.626-4.188 8.092-4.188 12.916 0 3.078 0.634 6.010 1.776 8.672 0.032 0.088 0.068 0.172 0.11 0.252 1.106 2.488 2.66 4.734 4.558 6.632 3.402 3.402 7.92 5.698 12.956 6.292zM25.156 34l-4.446 7.7c-3.65-0.674-6.914-2.45-9.438-4.972-0.832-0.832-1.584-1.746-2.242-2.728h10.388zM30.93 24l-3.464 6h-6.932l-3.464-6 3.464-6h6.932z"></path>
</svg>
