<!-- Generated by IcoMoon.io -->
<svg version="1.1" xmlns="http://www.w3.org/2000/svg" width="48" height="48" viewBox="0 0 48 48">
<title>arrow-right-circle</title>
<path d="M46 24c0-6.074-2.464-11.578-6.444-15.556s-9.482-6.444-15.556-6.444-11.578 2.464-15.556 6.444-6.444 9.482-6.444 15.556 2.464 11.578 6.444 15.556 9.482 6.444 15.556 6.444 11.578-2.464 15.556-6.444 6.444-9.482 6.444-15.556zM42 24c0 4.972-2.012 9.468-5.272 12.728s-7.756 5.272-12.728 5.272-9.468-2.012-12.728-5.272-5.272-7.756-5.272-12.728 2.012-9.468 5.272-12.728 7.756-5.272 12.728-5.272 9.468 2.012 12.728 5.272 5.272 7.756 5.272 12.728zM16 26h11.172l-4.586 4.586c-0.782 0.782-0.782 2.048 0 2.828s2.048 0.782 2.828 0l8-8c0.184-0.184 0.332-0.404 0.434-0.648 0.202-0.49 0.202-1.042 0-1.532-0.098-0.236-0.242-0.456-0.434-0.648l-8-8c-0.782-0.782-2.048-0.782-2.828 0s-0.782 2.048 0 2.828l4.586 4.586h-11.172c-1.104 0-2 0.896-2 2s0.896 2 2 2z"></path>
</svg>
