<!-- Generated by IcoMoon.io -->
<svg version="1.1" xmlns="http://www.w3.org/2000/svg" width="48" height="48" viewBox="0 0 48 48">
<title>at-sign</title>
<path d="M30 24c0 1.658-0.67 3.154-1.758 4.242s-2.584 1.758-4.242 1.758-3.154-0.67-4.242-1.758-1.758-2.584-1.758-4.242 0.67-3.154 1.758-4.242 2.584-1.758 4.242-1.758 3.154 0.67 4.242 1.758 1.758 2.584 1.758 4.242zM31.48 30.636c0.26 0.364 0.548 0.706 0.862 1.020 1.446 1.446 3.45 2.344 5.658 2.344s4.212-0.898 5.656-2.344 2.344-3.448 2.344-5.656v-2c0-6.074-2.466-11.578-6.444-15.556s-9.482-6.444-15.558-6.442-11.576 2.464-15.556 6.444-6.442 9.482-6.442 15.556 2.466 11.578 6.444 15.556 9.482 6.444 15.556 6.442c5.050 0 9.71-1.704 13.38-4.538 0.874-0.674 1.036-1.93 0.36-2.806s-1.93-1.036-2.806-0.36c-2.974 2.296-6.754 3.688-10.87 3.704-5.080-0.018-9.552-2.028-12.796-5.272-3.254-3.258-5.268-7.754-5.268-12.726s2.012-9.468 5.272-12.728 7.756-5.272 12.728-5.272 9.468 2.012 12.728 5.272 5.272 7.756 5.272 12.726v2c0 1.106-0.446 2.102-1.172 2.828s-1.722 1.172-2.828 1.172-2.102-0.446-2.828-1.172-1.172-1.722-1.172-2.828v-10c0-1.104-0.896-2-2-2s-2 0.896-2 2c-1.67-1.254-3.75-2-6-2-2.76 0-5.264 1.122-7.072 2.928s-2.928 4.312-2.928 7.072 1.122 5.264 2.928 7.072 4.312 2.928 7.072 2.928 5.264-1.122 7.072-2.928c0.14-0.14 0.278-0.286 0.41-0.434z"></path>
</svg>
