<!-- Generated by IcoMoon.io -->
<svg version="1.1" xmlns="http://www.w3.org/2000/svg" width="48" height="48" viewBox="0 0 48 48">
<title>award</title>
<path d="M29.972 30.848l1.5 11.304-6.442-3.866c-0.622-0.368-1.406-0.392-2.058 0l-6.442 3.866 1.502-11.302c1.842 0.742 3.858 1.15 5.968 1.15s4.126-0.41 5.972-1.152zM30.664 25.982c-0.116 0.060-0.226 0.13-0.326 0.21-1.84 1.146-4.010 1.808-6.338 1.808-3.314 0-6.312-1.34-8.486-3.514s-3.514-5.172-3.514-8.486 1.34-6.312 3.514-8.486 5.172-3.514 8.486-3.514 6.312 1.34 8.486 3.514 3.514 5.172 3.514 8.486-1.34 6.312-3.514 8.486c-0.556 0.556-1.166 1.058-1.822 1.496zM14.28 28.71l-2.262 17.026c-0.146 1.094 0.624 2.1 1.72 2.246 0.468 0.062 0.922-0.044 1.292-0.268l8.97-5.382 8.972 5.382c0.948 0.568 2.176 0.262 2.744-0.686 0.244-0.406 0.326-0.862 0.268-1.292l-2.26-17.030c0.56-0.43 1.092-0.896 1.59-1.394 2.892-2.892 4.686-6.894 4.686-11.312s-1.794-8.42-4.686-11.314-6.896-4.686-11.314-4.686-8.42 1.794-11.314 4.686-4.686 6.896-4.686 11.314 1.794 8.42 4.686 11.314c0.5 0.5 1.032 0.966 1.592 1.396z"></path>
</svg>
