<!-- Generated by IcoMoon.io -->
<svg version="1.1" xmlns="http://www.w3.org/2000/svg" width="48" height="48" viewBox="0 0 48 48">
<title>battery-charging</title>
<path d="M10 34h-4c-0.552 0-1.050-0.222-1.414-0.586s-0.586-0.862-0.586-1.414v-16c0-0.552 0.222-1.050 0.586-1.414s0.862-0.586 1.414-0.586h6.38c1.104 0 2-0.896 2-2s-0.896-2-2-2h-6.38c-1.656 0-3.16 0.674-4.242 1.758s-1.758 2.586-1.758 4.242v16c0 1.656 0.674 3.16 1.758 4.242s2.586 1.758 4.242 1.758h4c1.104 0 2-0.896 2-2s-0.896-2-2-2zM30 14h4c0.552 0 1.050 0.222 1.414 0.586s0.586 0.862 0.586 1.414v16c0 0.552-0.222 1.050-0.586 1.414s-0.862 0.586-1.414 0.586h-6.38c-1.104 0-2 0.896-2 2s0.896 2 2 2h6.38c1.656 0 3.16-0.674 4.242-1.758s1.758-2.586 1.758-4.242v-16c0-1.656-0.674-3.16-1.758-4.242s-2.586-1.758-4.242-1.758h-4c-1.104 0-2 0.896-2 2s0.896 2 2 2zM48 26v-4c0-1.104-0.896-2-2-2s-2 0.896-2 2v4c0 1.104 0.896 2 2 2s2-0.896 2-2zM20.336 10.89l-8 12c-0.612 0.92-0.364 2.16 0.554 2.774 0.344 0.23 0.734 0.338 1.11 0.336h8.262l-5.928 8.89c-0.612 0.92-0.364 2.16 0.554 2.774s2.16 0.364 2.774-0.554l8-12c0.212-0.312 0.338-0.696 0.338-1.11 0-1.104-0.896-2-2-2h-8.262l5.928-8.89c0.612-0.92 0.364-2.16-0.554-2.774s-2.16-0.364-2.774 0.554z"></path>
</svg>
