<!-- Generated by IcoMoon.io -->
<svg version="1.1" xmlns="http://www.w3.org/2000/svg" width="48" height="48" viewBox="0 0 48 48">
<title>bell</title>
<path d="M34 16c0 8.022 1.894 13.040 3.702 16h-27.404c1.808-2.96 3.702-7.978 3.702-16 0-2.762 1.118-5.26 2.928-7.072s4.31-2.928 7.072-2.928 5.26 1.118 7.072 2.928 2.928 4.31 2.928 7.072zM38 16c0-3.866-1.57-7.368-4.1-9.9s-6.034-4.1-9.9-4.1-7.368 1.57-9.9 4.1-4.1 6.034-4.1 9.9c0 12.254-4.786 16.094-5.126 16.348-0.906 0.616-1.146 1.848-0.538 2.762 0.384 0.574 1.012 0.886 1.664 0.89h36c1.104 0 2-0.896 2-2 0-0.678-0.336-1.276-0.858-1.642-0.352-0.26-5.142-4.1-5.142-16.358zM25.73 40.996c-0.278 0.478-0.718 0.798-1.216 0.93s-1.040 0.074-1.518-0.202c-0.324-0.188-0.566-0.444-0.718-0.714-0.548-0.96-1.768-1.294-2.728-0.746s-1.294 1.768-0.746 2.728c0.5 0.878 1.246 1.646 2.186 2.192 1.432 0.832 3.070 1.002 4.552 0.608s2.818-1.356 3.648-2.788c0.554-0.956 0.228-2.18-0.726-2.734s-2.18-0.228-2.734 0.726z"></path>
</svg>
