<!-- Generated by IcoMoon.io -->
<svg version="1.1" xmlns="http://www.w3.org/2000/svg" width="48" height="48" viewBox="0 0 48 48">
<title>bell-off</title>
<path d="M25.73 40.996c-0.278 0.478-0.718 0.798-1.216 0.93s-1.040 0.074-1.518-0.202c-0.324-0.188-0.566-0.444-0.718-0.714-0.548-0.96-1.768-1.294-2.728-0.746s-1.294 1.768-0.746 2.728c0.5 0.878 1.246 1.646 2.186 2.192 1.432 0.832 3.070 1.002 4.552 0.608s2.818-1.356 3.648-2.788c0.554-0.956 0.228-2.18-0.726-2.734s-2.18-0.228-2.734 0.726zM38 15.954c-0.008-3.846-1.568-7.332-4.086-9.856-2.528-2.536-6.028-4.11-9.894-4.116-2.896-0.004-5.598 0.874-7.8 2.36-0.914 0.618-1.156 1.862-0.538 2.778s1.862 1.156 2.778 0.538c1.528-1.032 3.416-1.658 5.46-1.674 2.896 0.022 5.368 1.138 7.162 2.94 1.804 1.81 2.916 4.3 2.918 7.052-0.084 3.316 0.346 6.952 1.33 10.554 0.292 1.066 1.39 1.694 2.456 1.402s1.694-1.39 1.402-2.456c-0.886-3.25-1.264-6.5-1.188-9.416 0-0.010 0-0.022 0-0.032 0-0.006 0-0.012 0-0.018zM13.992 16.822l15.18 15.178h-18.874c1.744-2.856 3.566-7.624 3.694-15.178zM0.586 3.414l9.712 9.712c-0.212 0.986-0.31 1.968-0.298 2.9 0 12.228-4.786 16.068-5.126 16.322-0.906 0.616-1.146 1.848-0.538 2.762 0.384 0.574 1.012 0.886 1.664 0.89h27.172l11.414 11.414c0.782 0.782 2.048 0.782 2.828 0s0.782-2.048 0-2.828l-44-44c-0.782-0.782-2.048-0.782-2.828 0s-0.782 2.048 0 2.828z"></path>
</svg>
