<!-- Generated by IcoMoon.io -->
<svg version="1.1" xmlns="http://www.w3.org/2000/svg" width="48" height="48" viewBox="0 0 48 48">
<title>bluetooth</title>
<path d="M26 19.172v-12.344l6.172 6.172zM26 28.828l6.172 6.172-6.172 6.172zM11.586 14.414l9.586 9.586-9.586 9.586c-0.782 0.782-0.782 2.048 0 2.828s2.048 0.782 2.828 0l7.586-7.586v17.172c0 0.512 0.196 1.024 0.586 1.414 0.782 0.782 2.048 0.782 2.828 0l11-11c0.782-0.782 0.782-2.048 0-2.828l-9.586-9.586 9.586-9.586c0.782-0.782 0.782-2.048 0-2.828l-11-11c-0.362-0.362-0.862-0.586-1.414-0.586-1.104 0-2 0.896-2 2v17.172l-7.586-7.586c-0.782-0.782-2.048-0.782-2.828 0s-0.782 2.048 0 2.828z"></path>
</svg>
