<!-- Generated by IcoMoon.io -->
<svg version="1.1" xmlns="http://www.w3.org/2000/svg" width="48" height="48" viewBox="0 0 48 48">
<title>bold</title>
<path d="M14 22v-12h14c1.658 0 3.154 0.67 4.242 1.758s1.758 2.584 1.758 4.242-0.67 3.154-1.758 4.242-2.584 1.758-4.242 1.758zM10 24v16c0 1.104 0.896 2 2 2h18c2.76 0 5.264-1.122 7.072-2.928s2.928-4.312 2.928-7.072-1.122-5.264-2.928-7.072c-0.65-0.65-1.39-1.212-2.2-1.664 0.068-0.064 0.134-0.128 0.2-0.194 1.806-1.806 2.928-4.31 2.928-7.070s-1.122-5.264-2.928-7.072-4.312-2.928-7.072-2.928h-16c-1.104 0-2 0.896-2 2zM14 26h16c1.658 0 3.154 0.67 4.242 1.758s1.758 2.584 1.758 4.242-0.67 3.154-1.758 4.242-2.584 1.758-4.242 1.758h-16z"></path>
</svg>
