<!-- Generated by IcoMoon.io -->
<svg version="1.1" xmlns="http://www.w3.org/2000/svg" width="48" height="48" viewBox="0 0 48 48">
<title>book</title>
<path d="M13 2c-1.932 0-3.686 0.786-4.95 2.050s-2.050 3.018-2.050 4.95v30c0 1.932 0.786 3.686 2.050 4.95s3.018 2.050 4.95 2.050h27c1.104 0 2-0.896 2-2v-40c0-1.104-0.896-2-2-2zM38 36v6h-25c-0.828 0-1.576-0.334-2.122-0.878s-0.878-1.294-0.878-2.122 0.334-1.576 0.878-2.122 1.294-0.878 2.122-0.878zM13 6h25v26h-25c-1.074 0-2.090 0.242-3 0.674v-23.674c0-0.828 0.334-1.576 0.878-2.122s1.294-0.878 2.122-0.878z"></path>
</svg>
