<!-- Generated by IcoMoon.io -->
<svg version="1.1" xmlns="http://www.w3.org/2000/svg" width="48" height="48" viewBox="0 0 48 48">
<title>book-open</title>
<path d="M42 8v26h-12c-1.456 0-2.824 0.39-4 1.070v-21.070c0-1.658 0.67-3.154 1.758-4.242s2.584-1.758 4.242-1.758zM22 35.070c-1.176-0.68-2.544-1.070-4-1.070h-12v-26h10c1.658 0 3.154 0.67 4.242 1.758s1.758 2.584 1.758 4.242zM44 4h-12c-2.76 0-5.264 1.122-7.072 2.928-0.334 0.334-0.644 0.692-0.928 1.072-0.284-0.38-0.594-0.738-0.928-1.072-1.808-1.806-4.312-2.928-7.072-2.928h-12c-1.104 0-2 0.896-2 2v30c0 1.104 0.896 2 2 2h14c1.106 0 2.102 0.446 2.828 1.172s1.172 1.722 1.172 2.828c0 1.104 0.896 2 2 2s2-0.896 2-2c0-1.106 0.446-2.102 1.172-2.828s1.722-1.172 2.828-1.172h14c1.104 0 2-0.896 2-2v-30c0-1.104-0.896-2-2-2z"></path>
</svg>
