<!-- Generated by IcoMoon.io -->
<svg version="1.1" xmlns="http://www.w3.org/2000/svg" width="48" height="48" viewBox="0 0 48 48">
<title>box</title>
<path d="M37.922 13.656l-13.922 8.054-13.922-8.054 12.912-7.378c0.224-0.128 0.464-0.21 0.71-0.248 0.436-0.068 0.89 0.006 1.308 0.248zM23.052 45.922c0.282 0.152 0.606 0.238 0.948 0.238 0.346 0 0.672-0.088 0.956-0.242 0.712-0.116 1.402-0.36 2.034-0.72l14.002-8.002c1.236-0.714 2.12-1.794 2.598-3.028 0.266-0.684 0.404-1.414 0.41-2.168v-16c0-0.956-0.226-1.862-0.628-2.668-0.044-0.142-0.104-0.28-0.182-0.414-0.092-0.158-0.2-0.298-0.324-0.42-0.062-0.086-0.128-0.172-0.194-0.254-0.46-0.572-1.024-1.056-1.662-1.43l-14.018-8.010c-1.22-0.704-2.6-0.93-3.908-0.728-0.726 0.114-1.43 0.358-2.074 0.726l-14.002 8.002c-0.766 0.442-1.398 1.026-1.882 1.7-0.12 0.12-0.228 0.26-0.318 0.414-0.078 0.136-0.14 0.276-0.184 0.42-0.080 0.16-0.152 0.326-0.216 0.492-0.264 0.686-0.402 1.416-0.408 2.156v16.014c0.002 1.42 0.496 2.726 1.328 3.756 0.46 0.572 1.024 1.056 1.662 1.43l14.018 8.010c0.648 0.374 1.34 0.614 2.044 0.724zM22 25.174v15.982l-12.99-7.422c-0.222-0.13-0.414-0.296-0.57-0.49-0.278-0.344-0.44-0.772-0.44-1.244v-14.924zM26 41.156v-15.982l14-8.098v14.924c-0.002 0.242-0.050 0.492-0.14 0.724-0.16 0.412-0.45 0.768-0.852 1z"></path>
</svg>
