<!-- Generated by IcoMoon.io -->
<svg version="1.1" xmlns="http://www.w3.org/2000/svg" width="48" height="48" viewBox="0 0 48 48">
<title>calendar</title>
<path d="M14 4v2h-4c-1.656 0-3.16 0.674-4.242 1.758s-1.758 2.586-1.758 4.242v28c0 1.656 0.674 3.16 1.758 4.242s2.586 1.758 4.242 1.758h28c1.656 0 3.16-0.674 4.242-1.758s1.758-2.586 1.758-4.242v-28c0-1.656-0.674-3.16-1.758-4.242s-2.586-1.758-4.242-1.758h-4v-2c0-1.104-0.896-2-2-2s-2 0.896-2 2v2h-12v-2c0-1.104-0.896-2-2-2s-2 0.896-2 2zM40 18h-32v-6c0-0.552 0.222-1.050 0.586-1.414s0.862-0.586 1.414-0.586h4v2c0 1.104 0.896 2 2 2s2-0.896 2-2v-2h12v2c0 1.104 0.896 2 2 2s2-0.896 2-2v-2h4c0.552 0 1.050 0.222 1.414 0.586s0.586 0.862 0.586 1.414zM8 22h32v18c0 0.552-0.222 1.050-0.586 1.414s-0.862 0.586-1.414 0.586h-28c-0.552 0-1.050-0.222-1.414-0.586s-0.586-0.862-0.586-1.414z"></path>
</svg>
