<!-- Generated by IcoMoon.io -->
<svg version="1.1" xmlns="http://www.w3.org/2000/svg" width="48" height="48" viewBox="0 0 48 48">
<title>camera-off</title>
<path d="M18 8h10.93l3.406 5.11c0.384 0.574 1.012 0.886 1.664 0.89h8c0.552 0 1.050 0.222 1.414 0.586s0.586 0.862 0.586 1.414v18.68c0 1.104 0.896 2 2 2s2-0.896 2-2v-18.68c0-1.656-0.674-3.16-1.758-4.242s-2.586-1.758-4.242-1.758h-6.93l-3.406-5.11c-0.364-0.54-0.972-0.89-1.664-0.89h-12c-1.104 0-2 0.896-2 2s0.896 2 2 2zM16.524 19.352c-0.292 0.326-0.566 0.674-0.818 1.044-1.56 2.278-2.046 4.978-1.576 7.49s1.904 4.852 4.182 6.41 4.978 2.046 7.49 1.576c1.774-0.332 3.46-1.144 4.848-2.394l6.522 6.522h-31.172c-0.552 0-1.050-0.222-1.414-0.586s-0.586-0.862-0.586-1.414v-22c0-0.552 0.222-1.050 0.586-1.414s0.862-0.586 1.414-0.586h5.172zM20.826 17.996l-17.412-17.41c-0.782-0.782-2.048-0.782-2.828 0s-0.782 2.048 0 2.828l6.586 6.586h-1.172c-1.656 0-3.16 0.674-4.242 1.758s-1.758 2.586-1.758 4.242v22c0 1.656 0.674 3.16 1.758 4.242s2.586 1.758 4.242 1.758h35.172l3.414 3.414c0.782 0.782 2.048 0.782 2.828 0s0.782-2.048 0-2.828l-26.536-26.536zM27.814 30.642c-0.8 0.672-1.75 1.11-2.75 1.298-1.512 0.284-3.126-0.010-4.494-0.946s-2.226-2.334-2.51-3.846 0.010-3.126 0.946-4.494c0.112-0.164 0.23-0.32 0.352-0.466z"></path>
</svg>
