<!-- Generated by IcoMoon.io -->
<svg version="1.1" xmlns="http://www.w3.org/2000/svg" width="48" height="48" viewBox="0 0 48 48">
<title>camera</title>
<path d="M48 38v-22c0-1.656-0.674-3.16-1.758-4.242s-2.586-1.758-4.242-1.758h-6.93l-3.406-5.11c-0.364-0.54-0.972-0.89-1.664-0.89h-12c-0.652 0.004-1.28 0.316-1.664 0.89l-3.406 5.11h-6.93c-1.656 0-3.16 0.674-4.242 1.758s-1.758 2.586-1.758 4.242v22c0 1.656 0.674 3.16 1.758 4.242s2.586 1.758 4.242 1.758h36c1.656 0 3.16-0.674 4.242-1.758s1.758-2.586 1.758-4.242zM44 38c0 0.552-0.222 1.050-0.586 1.414s-0.862 0.586-1.414 0.586h-36c-0.552 0-1.050-0.222-1.414-0.586s-0.586-0.862-0.586-1.414v-22c0-0.552 0.222-1.050 0.586-1.414s0.862-0.586 1.414-0.586h8c0.692 0 1.3-0.35 1.664-0.89l3.406-5.11h9.86l3.406 5.11c0.384 0.574 1.012 0.886 1.664 0.89h8c0.552 0 1.050 0.222 1.414 0.586s0.586 0.862 0.586 1.414zM34 26c0-2.76-1.122-5.264-2.928-7.072s-4.312-2.928-7.072-2.928-5.264 1.122-7.072 2.928-2.928 4.312-2.928 7.072 1.122 5.264 2.928 7.072 4.312 2.928 7.072 2.928 5.264-1.122 7.072-2.928 2.928-4.312 2.928-7.072zM30 26c0 1.658-0.67 3.154-1.758 4.242s-2.584 1.758-4.242 1.758-3.154-0.67-4.242-1.758-1.758-2.584-1.758-4.242 0.67-3.154 1.758-4.242 2.584-1.758 4.242-1.758 3.154 0.67 4.242 1.758 1.758 2.584 1.758 4.242z"></path>
</svg>
