<!-- Generated by IcoMoon.io -->
<svg version="1.1" xmlns="http://www.w3.org/2000/svg" width="48" height="48" viewBox="0 0 48 48">
<title>cast</title>
<path d="M3.6 34.16c1.876 0.382 3.458 1.388 4.584 2.772 0.81 0.994 1.386 2.186 1.658 3.482 0.228 1.080 1.288 1.772 2.37 1.544s1.772-1.288 1.544-2.37c-0.404-1.92-1.26-3.694-2.47-5.182-1.69-2.076-4.076-3.592-6.886-4.166-1.082-0.22-2.138 0.478-2.36 1.56s0.478 2.138 1.56 2.36zM3.778 26.088c4.002 0.446 7.488 2.326 10.012 5.092 2.238 2.452 3.718 5.598 4.122 9.052 0.128 1.098 1.122 1.882 2.218 1.754s1.882-1.122 1.754-2.218c-0.502-4.3-2.348-8.224-5.14-11.284-3.156-3.458-7.526-5.816-12.526-6.372-1.098-0.122-2.086 0.668-2.208 1.766s0.668 2.086 1.766 2.208zM6 16v-4c0-0.552 0.222-1.050 0.586-1.414s0.862-0.586 1.414-0.586h32c0.552 0 1.050 0.222 1.414 0.586s0.586 0.862 0.586 1.414v24c0 0.552-0.222 1.050-0.586 1.414s-0.862 0.586-1.414 0.586h-12c-1.104 0-2 0.896-2 2s0.896 2 2 2h12c1.656 0 3.16-0.674 4.242-1.758s1.758-2.586 1.758-4.242v-24c0-1.656-0.674-3.16-1.758-4.242s-2.586-1.758-4.242-1.758h-32c-1.656 0-3.16 0.674-4.242 1.758s-1.758 2.586-1.758 4.242v4c0 1.104 0.896 2 2 2s2-0.896 2-2zM4 42c1.104 0 2-0.896 2-2s-0.896-2-2-2-2 0.896-2 2 0.896 2 2 2z"></path>
</svg>
