<!-- Generated by IcoMoon.io -->
<svg version="1.1" xmlns="http://www.w3.org/2000/svg" width="48" height="48" viewBox="0 0 48 48">
<title>check-circle</title>
<path d="M42 22.16v1.84c-0.002 4.97-2.018 9.466-5.28 12.724s-7.76 5.268-12.73 5.264-9.468-2.018-12.724-5.28-5.268-7.758-5.266-12.73 2.018-9.466 5.28-12.724 7.76-5.268 12.73-5.266c2.66 0.002 5.172 0.578 7.298 1.55 1.004 0.46 2.192 0.016 2.65-0.988s0.016-2.192-0.988-2.65c-2.654-1.212-5.732-1.91-8.958-1.912-6.074-0.004-11.578 2.458-15.56 6.434s-6.448 9.48-6.452 15.554 2.458 11.578 6.434 15.56 9.478 6.45 15.552 6.452 11.578-2.458 15.56-6.434 6.45-9.478 6.454-15.554v-1.84c0-1.104-0.896-2-2-2s-2 0.896-2 2zM42.586 6.586l-18.586 18.604-4.586-4.584c-0.782-0.782-2.048-0.782-2.828 0s-0.782 2.048 0 2.828l6 6c0.782 0.782 2.048 0.78 2.83 0l20-20.020c0.78-0.782 0.78-2.048-0.002-2.828s-2.048-0.78-2.828 0.002z"></path>
</svg>
