<!-- Generated by IcoMoon.io -->
<svg version="1.1" xmlns="http://www.w3.org/2000/svg" width="48" height="48" viewBox="0 0 48 48">
<title>chevrons-left</title>
<path d="M23.414 32.586l-8.586-8.586 8.586-8.586c0.782-0.782 0.782-2.048 0-2.828s-2.048-0.782-2.828 0l-10 10c-0.782 0.782-0.782 2.048 0 2.828l10 10c0.782 0.782 2.048 0.782 2.828 0s0.782-2.048 0-2.828zM37.414 32.586l-8.586-8.586 8.586-8.586c0.782-0.782 0.782-2.048 0-2.828s-2.048-0.782-2.828 0l-10 10c-0.782 0.782-0.782 2.048 0 2.828l10 10c0.782 0.782 2.048 0.782 2.828 0s0.782-2.048 0-2.828z"></path>
</svg>
