<!-- Generated by IcoMoon.io -->
<svg version="1.1" xmlns="http://www.w3.org/2000/svg" width="48" height="48" viewBox="0 0 48 48">
<title>chevrons-right</title>
<path d="M27.414 35.414l10-10c0.782-0.782 0.782-2.048 0-2.828l-10-10c-0.782-0.782-2.048-0.782-2.828 0s-0.782 2.048 0 2.828l8.586 8.586-8.586 8.586c-0.782 0.782-0.782 2.048 0 2.828s2.048 0.782 2.828 0zM13.414 35.414l10-10c0.782-0.782 0.782-2.048 0-2.828l-10-10c-0.782-0.782-2.048-0.782-2.828 0s-0.782 2.048 0 2.828l8.586 8.586-8.586 8.586c-0.782 0.782-0.782 2.048 0 2.828s2.048 0.782 2.828 0z"></path>
</svg>
