<!-- Generated by IcoMoon.io -->
<svg version="1.1" xmlns="http://www.w3.org/2000/svg" width="48" height="48" viewBox="0 0 48 48">
<title>chrome</title>
<path d="M14.804 20.066l-4.488-7.762c0.304-0.356 0.624-0.7 0.956-1.032 3.26-3.26 7.756-5.272 12.728-5.272s9.468 2.012 12.728 5.272c0.832 0.832 1.584 1.746 2.242 2.728h-14.97c-2.76 0-5.264 1.122-7.072 2.928-0.894 0.894-1.62 1.956-2.126 3.138zM21.4 45.848c0.092 0.016 0.184 0.028 0.278 0.030 0.762 0.080 1.538 0.122 2.322 0.122 6.074 0 11.578-2.464 15.556-6.444s6.444-9.482 6.444-15.556c0-3.078-0.634-6.010-1.776-8.672-0.032-0.088-0.068-0.172-0.11-0.252-1.106-2.488-2.66-4.734-4.558-6.632-3.978-3.98-9.482-6.444-15.556-6.444s-11.578 2.464-15.556 6.444c-0.732 0.73-1.412 1.514-2.034 2.342-0.084 0.094-0.158 0.194-0.222 0.298-2.634 3.626-4.188 8.092-4.188 12.916 0 6.074 2.464 11.578 6.444 15.556 3.402 3.402 7.92 5.698 12.956 6.292zM25.19 33.93l-4.482 7.77c-3.65-0.674-6.914-2.45-9.436-4.972-3.26-3.26-5.272-7.756-5.272-12.728 0-2.86 0.666-5.564 1.854-7.964l7.286 12.604c0.472 0.9 1.078 1.718 1.788 2.43 1.808 1.808 4.312 2.93 7.072 2.93 0.402 0 0.8-0.024 1.19-0.070zM29.276 26.862c-0.030 0.044-0.060 0.092-0.088 0.138l-0.152 0.264c-0.23 0.352-0.496 0.68-0.792 0.978-1.090 1.088-2.586 1.758-4.244 1.758s-3.154-0.67-4.242-1.758c-0.332-0.332-0.624-0.702-0.872-1.102-0.022-0.048-0.048-0.094-0.074-0.14l-0.164-0.282c-0.414-0.816-0.648-1.74-0.648-2.718 0-1.658 0.67-3.154 1.758-4.242s2.584-1.758 4.242-1.758 3.154 0.67 4.242 1.758 1.758 2.584 1.758 4.242c0 1.036-0.262 2.012-0.724 2.862zM25.176 41.962l7.28-12.622c0.978-1.544 1.544-3.376 1.544-5.34 0-2.25-0.746-4.33-2-6h8.976c0.664 1.876 1.024 3.896 1.024 6 0 4.972-2.012 9.468-5.272 12.728-3 3-7.050 4.944-11.552 5.234z"></path>
</svg>
