<!-- Generated by IcoMoon.io -->
<svg version="1.1" xmlns="http://www.w3.org/2000/svg" width="48" height="48" viewBox="0 0 48 48">
<title>clipboard</title>
<path d="M14 10c0 1.104 0.45 2.106 1.172 2.828s1.724 1.172 2.828 1.172h12c1.104 0 2.106-0.45 2.828-1.172s1.172-1.724 1.172-2.828h2c0.552 0 1.050 0.222 1.414 0.586s0.586 0.862 0.586 1.414v28c0 0.552-0.222 1.050-0.586 1.414s-0.862 0.586-1.414 0.586h-24c-0.552 0-1.050-0.222-1.414-0.586s-0.586-0.862-0.586-1.414v-28c0-0.552 0.222-1.050 0.586-1.414s0.862-0.586 1.414-0.586zM18 2c-1.104 0-2.106 0.45-2.828 1.172s-1.172 1.724-1.172 2.828h-2c-1.656 0-3.16 0.674-4.242 1.758s-1.758 2.586-1.758 4.242v28c0 1.656 0.674 3.16 1.758 4.242s2.586 1.758 4.242 1.758h24c1.656 0 3.16-0.674 4.242-1.758s1.758-2.586 1.758-4.242v-28c0-1.656-0.674-3.16-1.758-4.242s-2.586-1.758-4.242-1.758h-2c0-1.104-0.45-2.106-1.172-2.828s-1.724-1.172-2.828-1.172zM18 6h12v4h-12z"></path>
</svg>
