<!-- Generated by IcoMoon.io -->
<svg version="1.1" xmlns="http://www.w3.org/2000/svg" width="48" height="48" viewBox="0 0 48 48">
<title>clock</title>
<path d="M46 24c0-6.074-2.464-11.578-6.444-15.556s-9.482-6.444-15.556-6.444-11.578 2.464-15.556 6.444-6.444 9.482-6.444 15.556 2.464 11.578 6.444 15.556 9.482 6.444 15.556 6.444 11.578-2.464 15.556-6.444 6.444-9.482 6.444-15.556zM42 24c0 4.972-2.012 9.468-5.272 12.728s-7.756 5.272-12.728 5.272-9.468-2.012-12.728-5.272-5.272-7.756-5.272-12.728 2.012-9.468 5.272-12.728 7.756-5.272 12.728-5.272 9.468 2.012 12.728 5.272 5.272 7.756 5.272 12.728zM22 12v12c0 0.778 0.444 1.454 1.106 1.788l8 4c0.988 0.494 2.19 0.094 2.684-0.894s0.094-2.19-0.894-2.684l-6.896-3.446v-10.764c0-1.104-0.896-2-2-2s-2 0.896-2 2z"></path>
</svg>
