<!-- Generated by IcoMoon.io -->
<svg version="1.1" xmlns="http://www.w3.org/2000/svg" width="48" height="48" viewBox="0 0 48 48">
<title>cloud</title>
<path d="M36 22c2.21 0 4.206 0.894 5.656 2.344s2.344 3.446 2.344 5.656-0.894 4.206-2.344 5.656-3.446 2.344-5.656 2.344h-17.99c-2.926-0.016-5.706-0.922-8.010-2.516-2.668-1.844-4.696-4.608-5.568-7.984-0.966-3.744-0.326-7.522 1.496-10.61s4.816-5.478 8.56-6.446 7.522-0.326 10.61 1.496 5.478 4.816 6.446 8.56c0.23 0.87 1.010 1.5 1.936 1.5zM36 18h-1.040c-1.45-4.114-4.286-7.416-7.83-9.506-3.966-2.338-8.83-3.166-13.642-1.922s-8.668 4.32-11.006 8.286-3.164 8.83-1.922 13.642c1.12 4.338 3.734 7.902 7.166 10.274 2.956 2.046 6.522 3.206 10.264 3.226h18.010c3.314 0 6.316-1.346 8.486-3.514s3.514-5.172 3.514-8.486-1.346-6.316-3.514-8.486-5.172-3.514-8.486-3.514z"></path>
</svg>
