<!-- Generated by IcoMoon.io -->
<svg version="1.1" xmlns="http://www.w3.org/2000/svg" width="48" height="48" viewBox="0 0 48 48">
<title>cloud-drizzle</title>
<path d="M14 38v4c0 1.104 0.896 2 2 2s2-0.896 2-2v-4c0-1.104-0.896-2-2-2s-2 0.896-2 2zM14 26v4c0 1.104 0.896 2 2 2s2-0.896 2-2v-4c0-1.104-0.896-2-2-2s-2 0.896-2 2zM30 38v4c0 1.104 0.896 2 2 2s2-0.896 2-2v-4c0-1.104-0.896-2-2-2s-2 0.896-2 2zM30 26v4c0 1.104 0.896 2 2 2s2-0.896 2-2v-4c0-1.104-0.896-2-2-2s-2 0.896-2 2zM22 42v4c0 1.104 0.896 2 2 2s2-0.896 2-2v-4c0-1.104-0.896-2-2-2s-2 0.896-2 2zM22 30v4c0 1.104 0.896 2 2 2s2-0.896 2-2v-4c0-1.104-0.896-2-2-2s-2 0.896-2 2zM40.802 34.992c3.034-1.33 5.246-3.766 6.362-6.624s1.144-6.148-0.184-9.182c-1.148-2.622-3.126-4.632-5.504-5.85-1.672-0.856-3.542-1.32-5.46-1.336h-1.056c-1.45-4.114-4.286-7.416-7.83-9.506-3.966-2.338-8.83-3.164-13.642-1.922s-8.668 4.322-11.006 8.288-3.164 8.83-1.922 13.642c1.018 3.94 3.268 7.246 6.198 9.566 0.866 0.686 2.124 0.54 2.81-0.326s0.54-2.124-0.326-2.81c-2.264-1.794-4.016-4.358-4.81-7.432-0.966-3.742-0.326-7.52 1.496-10.61s4.816-5.478 8.56-6.446 7.522-0.326 10.61 1.496 5.478 4.816 6.446 8.56c0.23 0.87 1.010 1.5 1.936 1.5h2.504c1.294 0.010 2.55 0.324 3.668 0.896 1.586 0.812 2.896 2.146 3.664 3.894 0.886 2.024 0.87 4.212 0.124 6.122s-2.218 3.53-4.242 4.416c-1.012 0.444-1.472 1.622-1.030 2.634s1.622 1.472 2.634 1.030z"></path>
</svg>
