<!-- Generated by IcoMoon.io -->
<svg version="1.1" xmlns="http://www.w3.org/2000/svg" width="48" height="48" viewBox="0 0 48 48">
<title>cloud-lightning</title>
<path d="M38.398 35.76c3.246-0.66 5.922-2.576 7.616-5.132s2.416-5.768 1.756-9.014c-0.606-2.982-2.272-5.484-4.534-7.184-2.036-1.534-4.558-2.42-7.228-2.43h-1.048c-1.45-4.114-4.286-7.416-7.83-9.506-3.966-2.338-8.83-3.164-13.642-1.922s-8.668 4.324-11.006 8.288-3.164 8.83-1.922 13.642c1.194 4.626 4.086 8.368 7.838 10.73 0.286 0.18 0.576 0.352 0.872 0.516 0.966 0.536 2.184 0.186 2.718-0.78s0.186-2.184-0.78-2.718c-0.23-0.128-0.458-0.262-0.68-0.402-2.924-1.842-5.166-4.748-6.096-8.346-0.966-3.744-0.326-7.522 1.494-10.61s4.816-5.478 8.56-6.446 7.522-0.326 10.61 1.494 5.478 4.816 6.446 8.56c0.232 0.87 1.012 1.5 1.938 1.5h2.512c1.792 0.008 3.48 0.6 4.84 1.624 1.508 1.134 2.614 2.794 3.018 4.784 0.44 2.166-0.038 4.3-1.17 6.010s-2.912 2.982-5.078 3.422c-1.082 0.22-1.782 1.276-1.562 2.358s1.276 1.782 2.358 1.562zM24.336 20.89l-8 12c-0.612 0.92-0.364 2.16 0.554 2.774 0.344 0.23 0.734 0.338 1.11 0.336h8.262l-5.928 8.89c-0.612 0.92-0.364 2.16 0.554 2.774s2.16 0.364 2.774-0.554l8-12c0.212-0.312 0.338-0.696 0.338-1.11 0-1.104-0.896-2-2-2h-8.262l5.928-8.89c0.612-0.92 0.364-2.16-0.554-2.774s-2.16-0.364-2.774 0.554z"></path>
</svg>
