<!-- Generated by IcoMoon.io -->
<svg version="1.1" xmlns="http://www.w3.org/2000/svg" width="48" height="48" viewBox="0 0 48 48">
<title>cloud-off</title>
<path d="M47.062 34.68c1.292-3.050 1.224-6.34 0.072-9.184s-3.392-5.254-6.442-6.546c-1.552-0.656-3.176-0.966-4.714-0.95h-1.012c-1.24-3.56-3.522-6.52-6.422-8.618-2.596-1.876-5.688-3.062-8.974-3.374-1.1-0.104-2.076 0.702-2.18 1.802s0.702 2.076 1.802 2.18c2.572 0.244 4.986 1.172 7.010 2.634 2.566 1.856 4.504 4.572 5.342 7.868 0.224 0.874 1.006 1.508 1.936 1.508h2.542c0.98-0.010 2.060 0.188 3.11 0.634 2.034 0.862 3.526 2.464 4.296 4.364s0.814 4.088-0.048 6.122c-0.43 1.018 0.044 2.19 1.062 2.622s2.19-0.044 2.622-1.062zM9.708 12.536l25.464 25.464h-17.192c-1.92 0.020-3.806-0.344-5.548-1.054-2.862-1.166-5.338-3.27-6.942-6.17-1.87-3.384-2.194-7.202-1.202-10.648 0.864-3 2.72-5.708 5.418-7.594zM0.586 3.414l6.258 6.26c-3.162 2.4-5.352 5.712-6.4 9.35-1.274 4.424-0.86 9.34 1.546 13.69 2.060 3.726 5.252 6.438 8.932 7.938 2.234 0.908 4.648 1.372 7.098 1.348h17.98c0.978-0.002 1.934-0.12 2.834-0.338l5.752 5.752c0.782 0.782 2.048 0.782 2.828 0s0.782-2.048 0-2.828l-44-44c-0.782-0.782-2.048-0.782-2.828 0s-0.782 2.048 0 2.828z"></path>
</svg>
