<!-- Generated by IcoMoon.io -->
<svg version="1.1" xmlns="http://www.w3.org/2000/svg" width="48" height="48" viewBox="0 0 48 48">
<title>codepen</title>
<path d="M10.512 24l-4.512 3.158v-6.318zM42 27.158l-4.512-3.158 4.512-3.158zM34 26.442l6.424 4.498-14.424 9.374v-8.274zM17.488 24l6.512-4.558 6.512 4.558-6.512 4.558zM7.576 30.938l6.424-4.496 8 5.6v8.274zM25.114 2.338c-0.318-0.214-0.702-0.338-1.114-0.338s-0.796 0.124-1.114 0.338l-19.938 12.96c-0.224 0.14-0.426 0.326-0.586 0.556-0.25 0.356-0.368 0.766-0.362 1.17v13.952c-0.004 0.368 0.092 0.74 0.296 1.072 0.082 0.136 0.182 0.262 0.298 0.376 0.094 0.094 0.2 0.178 0.316 0.254l0.038 0.024 19.938 12.96c0.318 0.214 0.702 0.338 1.114 0.338s0.796-0.124 1.114-0.338l19.938-12.96c0.224-0.138 0.426-0.324 0.586-0.554 0.25-0.356 0.366-0.766 0.362-1.172v-13.952c0.004-0.368-0.092-0.74-0.296-1.072-0.082-0.134-0.182-0.262-0.298-0.376-0.094-0.094-0.2-0.178-0.316-0.254l-0.038-0.024zM26 15.958v-8.272l14.424 9.376-6.424 4.496zM22 7.686v8.274l-8 5.6-6.424-4.498z"></path>
</svg>
