<!-- Generated by IcoMoon.io -->
<svg version="1.1" xmlns="http://www.w3.org/2000/svg" width="48" height="48" viewBox="0 0 48 48">
<title>coffee</title>
<path d="M38 30v-12c1.658 0 3.154 0.67 4.242 1.758s1.758 2.584 1.758 4.242-0.67 3.154-1.758 4.242-2.584 1.758-4.242 1.758zM4 14c-1.104 0-2 0.896-2 2v18c0 2.76 1.122 5.264 2.928 7.072s4.312 2.928 7.072 2.928h16c2.76 0 5.264-1.122 7.072-2.928s2.928-4.312 2.928-7.072c2.76 0 5.264-1.122 7.072-2.928s2.928-4.312 2.928-7.072-1.122-5.264-2.928-7.072-4.312-2.928-7.072-2.928h-2zM6 18h28v16c0 1.658-0.67 3.154-1.758 4.242s-2.584 1.758-4.242 1.758h-16c-1.658 0-3.154-0.67-4.242-1.758s-1.758-2.584-1.758-4.242zM10 2v6c0 1.104 0.896 2 2 2s2-0.896 2-2v-6c0-1.104-0.896-2-2-2s-2 0.896-2 2zM18 2v6c0 1.104 0.896 2 2 2s2-0.896 2-2v-6c0-1.104-0.896-2-2-2s-2 0.896-2 2zM26 2v6c0 1.104 0.896 2 2 2s2-0.896 2-2v-6c0-1.104-0.896-2-2-2s-2 0.896-2 2z"></path>
</svg>
