<!-- Generated by IcoMoon.io -->
<svg version="1.1" xmlns="http://www.w3.org/2000/svg" width="48" height="48" viewBox="0 0 48 48">
<title>command</title>
<path d="M32 32h4c1.106 0 2.102 0.446 2.828 1.172s1.172 1.722 1.172 2.828-0.446 2.102-1.172 2.828-1.722 1.172-2.828 1.172-2.102-0.446-2.828-1.172-1.172-1.722-1.172-2.828zM16 32v4c0 1.106-0.446 2.102-1.172 2.828s-1.722 1.172-2.828 1.172-2.102-0.446-2.828-1.172-1.172-1.722-1.172-2.828 0.446-2.102 1.172-2.828 1.722-1.172 2.828-1.172zM16 16h-4c-1.106 0-2.102-0.446-2.828-1.172s-1.172-1.722-1.172-2.828 0.446-2.102 1.172-2.828 1.722-1.172 2.828-1.172 2.102 0.446 2.828 1.172 1.172 1.722 1.172 2.828zM32 16h-16v16h16zM36 8c1.106 0 2.102 0.446 2.828 1.172s1.172 1.722 1.172 2.828-0.446 2.102-1.172 2.828-1.722 1.172-2.828 1.172h-4v-4c0-1.106 0.446-2.102 1.172-2.828s1.722-1.172 2.828-1.172zM20 20v-8c0-2.208-0.898-4.212-2.344-5.656s-3.448-2.344-5.656-2.344-4.212 0.898-5.656 2.344-2.344 3.448-2.344 5.656 0.898 4.212 2.344 5.656 3.448 2.344 5.656 2.344zM20 28h-8c-2.208 0-4.212 0.898-5.656 2.344s-2.344 3.448-2.344 5.656 0.898 4.212 2.344 5.656 3.448 2.344 5.656 2.344 4.212-0.898 5.656-2.344 2.344-3.448 2.344-5.656zM28 28v8c0 2.208 0.898 4.212 2.344 5.656s3.448 2.344 5.656 2.344 4.212-0.898 5.656-2.344 2.344-3.448 2.344-5.656-0.898-4.212-2.344-5.656-3.448-2.344-5.656-2.344zM28 20v8h-8v-8zM36 4c-2.208 0-4.212 0.898-5.656 2.344s-2.344 3.448-2.344 5.656v8h8c2.208 0 4.212-0.898 5.656-2.344s2.344-3.448 2.344-5.656-0.898-4.212-2.344-5.656-3.448-2.344-5.656-2.344z"></path>
</svg>
