<!-- Generated by IcoMoon.io -->
<svg version="1.1" xmlns="http://www.w3.org/2000/svg" width="48" height="48" viewBox="0 0 48 48">
<title>compass</title>
<path d="M46 24c0-6.074-2.464-11.578-6.444-15.556s-9.482-6.444-15.556-6.444-11.578 2.464-15.556 6.444-6.444 9.482-6.444 15.556 2.464 11.578 6.444 15.556 9.482 6.444 15.556 6.444 11.578-2.464 15.556-6.444 6.444-9.482 6.444-15.556zM42 24c0 4.972-2.012 9.468-5.272 12.728s-7.756 5.272-12.728 5.272-9.468-2.012-12.728-5.272-5.272-7.756-5.272-12.728 2.012-9.468 5.272-12.728 7.756-5.272 12.728-5.272 9.468 2.012 12.728 5.272 5.272 7.756 5.272 12.728zM34.378 16.152c0.132-0.392 0.144-0.836 0-1.264-0.35-1.048-1.482-1.614-2.53-1.264l-12.72 4.24c-0.58 0.196-1.058 0.646-1.264 1.264l-4.24 12.72c-0.132 0.392-0.144 0.836 0 1.264 0.35 1.048 1.482 1.614 2.53 1.264l12.72-4.24c0.58-0.196 1.058-0.646 1.264-1.264zM29.318 18.682l-2.66 7.976-7.976 2.66 2.658-7.976z"></path>
</svg>
