<!-- Generated by IcoMoon.io -->
<svg version="1.1" xmlns="http://www.w3.org/2000/svg" width="48" height="48" viewBox="0 0 48 48">
<title>copy</title>
<path d="M22 16c-1.656 0-3.16 0.674-4.242 1.758s-1.758 2.586-1.758 4.242v18c0 1.656 0.674 3.16 1.758 4.242s2.586 1.758 4.242 1.758h18c1.656 0 3.16-0.674 4.242-1.758s1.758-2.586 1.758-4.242v-18c0-1.656-0.674-3.16-1.758-4.242s-2.586-1.758-4.242-1.758zM22 20h18c0.552 0 1.050 0.222 1.414 0.586s0.586 0.862 0.586 1.414v18c0 0.552-0.222 1.050-0.586 1.414s-0.862 0.586-1.414 0.586h-18c-0.552 0-1.050-0.222-1.414-0.586s-0.586-0.862-0.586-1.414v-18c0-0.552 0.222-1.050 0.586-1.414s0.862-0.586 1.414-0.586zM10 28h-2c-0.552 0-1.050-0.222-1.414-0.586s-0.586-0.862-0.586-1.414v-18c0-0.552 0.222-1.050 0.586-1.414s0.862-0.586 1.414-0.586h18c0.552 0 1.050 0.222 1.414 0.586s0.586 0.862 0.586 1.414v2c0 1.104 0.896 2 2 2s2-0.896 2-2v-2c0-1.656-0.674-3.16-1.758-4.242s-2.586-1.758-4.242-1.758h-18c-1.656 0-3.16 0.674-4.242 1.758s-1.758 2.586-1.758 4.242v18c0 1.656 0.674 3.16 1.758 4.242s2.586 1.758 4.242 1.758h2c1.104 0 2-0.896 2-2s-0.896-2-2-2z"></path>
</svg>
