<!-- Generated by IcoMoon.io -->
<svg version="1.1" xmlns="http://www.w3.org/2000/svg" width="48" height="48" viewBox="0 0 48 48">
<title>corner-down-right</title>
<path d="M6 8v14c0 2.76 1.122 5.264 2.928 7.072s4.312 2.928 7.072 2.928h19.172l-6.586 6.586c-0.782 0.782-0.782 2.048 0 2.828s2.048 0.782 2.828 0l10-10c0.184-0.184 0.332-0.404 0.434-0.648 0.3-0.724 0.156-1.59-0.434-2.18l-10-10c-0.782-0.782-2.048-0.782-2.828 0s-0.782 2.048 0 2.828l6.586 6.586h-19.172c-1.658 0-3.154-0.67-4.242-1.758s-1.758-2.584-1.758-4.242v-14c0-1.104-0.896-2-2-2s-2 0.896-2 2z"></path>
</svg>
