<!-- Generated by IcoMoon.io -->
<svg version="1.1" xmlns="http://www.w3.org/2000/svg" width="48" height="48" viewBox="0 0 48 48">
<title>corner-left-down</title>
<path d="M40 6h-14c-2.76 0-5.264 1.122-7.072 2.928s-2.928 4.312-2.928 7.072v19.172l-6.586-6.586c-0.782-0.782-2.048-0.782-2.828 0s-0.782 2.048 0 2.828l10 10c0.184 0.184 0.404 0.332 0.648 0.434 0.49 0.202 1.042 0.202 1.532 0 0.236-0.098 0.456-0.242 0.648-0.434l10-10c0.782-0.782 0.782-2.048 0-2.828s-2.048-0.782-2.828 0l-6.586 6.586v-19.172c0-1.658 0.67-3.154 1.758-4.242s2.584-1.758 4.242-1.758h14c1.104 0 2-0.896 2-2s-0.896-2-2-2z"></path>
</svg>
