<!-- Generated by IcoMoon.io -->
<svg version="1.1" xmlns="http://www.w3.org/2000/svg" width="48" height="48" viewBox="0 0 48 48">
<title>corner-right-up</title>
<path d="M8 42h14c2.76 0 5.264-1.122 7.072-2.928s2.928-4.312 2.928-7.072v-19.172l6.586 6.586c0.782 0.782 2.048 0.782 2.828 0s0.782-2.048 0-2.828l-10-10c-0.184-0.184-0.404-0.332-0.648-0.434-0.724-0.3-1.59-0.156-2.18 0.434l-10 10c-0.782 0.782-0.782 2.048 0 2.828s2.048 0.782 2.828 0l6.586-6.586v19.172c0 1.658-0.67 3.154-1.758 4.242s-2.584 1.758-4.242 1.758h-14c-1.104 0-2 0.896-2 2s0.896 2 2 2z"></path>
</svg>
