<!-- Generated by IcoMoon.io -->
<svg version="1.1" xmlns="http://www.w3.org/2000/svg" width="48" height="48" viewBox="0 0 48 48">
<title>corner-up-left</title>
<path d="M42 40v-14c0-2.76-1.122-5.264-2.928-7.072s-4.312-2.928-7.072-2.928h-19.172l6.586-6.586c0.782-0.782 0.782-2.048 0-2.828s-2.048-0.782-2.828 0l-10 10c-0.192 0.192-0.336 0.412-0.434 0.648s-0.152 0.494-0.152 0.766 0.054 0.53 0.152 0.766c0.098 0.236 0.242 0.456 0.434 0.648l10 10c0.782 0.782 2.048 0.782 2.828 0s0.782-2.048 0-2.828l-6.586-6.586h19.172c1.658 0 3.154 0.67 4.242 1.758s1.758 2.584 1.758 4.242v14c0 1.104 0.896 2 2 2s2-0.896 2-2z"></path>
</svg>
