<!-- Generated by IcoMoon.io -->
<svg version="1.1" xmlns="http://www.w3.org/2000/svg" width="48" height="48" viewBox="0 0 48 48">
<title>cpu</title>
<path d="M12 10h24c0.552 0 1.050 0.222 1.414 0.586s0.586 0.862 0.586 1.414v24c0 0.552-0.222 1.050-0.586 1.414s-0.862 0.586-1.414 0.586h-24c-0.552 0-1.050-0.222-1.414-0.586s-0.586-0.862-0.586-1.414v-24c0-0.552 0.222-1.050 0.586-1.414s0.862-0.586 1.414-0.586zM18 16c-1.104 0-2 0.896-2 2v12c0 1.104 0.896 2 2 2h12c1.104 0 2-0.896 2-2v-12c0-1.104-0.896-2-2-2zM20 20h8v8h-8zM2 30h4v6c0 1.656 0.674 3.16 1.758 4.242s2.586 1.758 4.242 1.758h4v4c0 1.104 0.896 2 2 2s2-0.896 2-2v-4h8v4c0 1.104 0.896 2 2 2s2-0.896 2-2v-4h4c1.656 0 3.16-0.674 4.242-1.758s1.758-2.586 1.758-4.242v-6h4c1.104 0 2-0.896 2-2s-0.896-2-2-2h-4v-6h4c1.104 0 2-0.896 2-2s-0.896-2-2-2h-4v-4c0-1.656-0.674-3.16-1.758-4.242s-2.586-1.758-4.242-1.758h-4v-4c0-1.104-0.896-2-2-2s-2 0.896-2 2v4h-8v-4c0-1.104-0.896-2-2-2s-2 0.896-2 2v4h-4c-1.656 0-3.16 0.674-4.242 1.758s-1.758 2.586-1.758 4.242v4h-4c-1.104 0-2 0.896-2 2s0.896 2 2 2h4v6h-4c-1.104 0-2 0.896-2 2s0.896 2 2 2z"></path>
</svg>
