<!-- Generated by IcoMoon.io -->
<svg version="1.1" xmlns="http://www.w3.org/2000/svg" width="48" height="48" viewBox="0 0 48 48">
<title>credit-card</title>
<path d="M6 6c-1.656 0-3.16 0.674-4.242 1.758s-1.758 2.586-1.758 4.242v24c0 1.656 0.674 3.16 1.758 4.242s2.586 1.758 4.242 1.758h36c1.656 0 3.16-0.674 4.242-1.758s1.758-2.586 1.758-4.242v-24c0-1.656-0.674-3.16-1.758-4.242s-2.586-1.758-4.242-1.758zM44 18h-40v-6c0-0.552 0.222-1.050 0.586-1.414s0.862-0.586 1.414-0.586h36c0.552 0 1.050 0.222 1.414 0.586s0.586 0.862 0.586 1.414zM4 22h40v14c0 0.552-0.222 1.050-0.586 1.414s-0.862 0.586-1.414 0.586h-36c-0.552 0-1.050-0.222-1.414-0.586s-0.586-0.862-0.586-1.414z"></path>
</svg>
