<!-- Generated by IcoMoon.io -->
<svg version="1.1" xmlns="http://www.w3.org/2000/svg" width="48" height="48" viewBox="0 0 48 48">
<title>crop</title>
<path d="M14.154 14.154l17.864-0.154c0.536 0 1.032 0.222 1.396 0.586s0.586 0.862 0.586 1.414v18h-18c-0.552 0-1.050-0.222-1.414-0.586s-0.586-0.862-0.586-1.396zM2.018 14.26l8.136-0.070-0.154 17.792c0 1.674 0.674 3.176 1.758 4.26s2.586 1.758 4.242 1.758h18v8c0 1.104 0.896 2 2 2s2-0.896 2-2v-8h8c1.104 0 2-0.896 2-2s-0.896-2-2-2h-8v-18c0-1.656-0.674-3.16-1.758-4.242s-2.586-1.758-4.26-1.758l-17.792 0.154 0.070-8.136c0.010-1.106-0.878-2.008-1.982-2.018s-2.008 0.878-2.018 1.982l-0.072 8.206-8.206 0.072c-1.104 0.010-1.992 0.912-1.982 2.018s0.912 1.992 2.018 1.982z"></path>
</svg>
