<!-- Generated by IcoMoon.io -->
<svg version="1.1" xmlns="http://www.w3.org/2000/svg" width="48" height="48" viewBox="0 0 48 48">
<title>crosshair</title>
<path d="M46 24c0-6.074-2.464-11.578-6.444-15.556s-9.482-6.444-15.556-6.444-11.578 2.464-15.556 6.444-6.444 9.482-6.444 15.556 2.464 11.578 6.444 15.556 9.482 6.444 15.556 6.444 11.578-2.464 15.556-6.444 6.444-9.482 6.444-15.556zM26 41.89v-5.89c0-1.104-0.896-2-2-2s-2 0.896-2 2v5.89c-4.172-0.46-7.912-2.346-10.728-5.162s-4.702-6.556-5.162-10.728h5.89c1.104 0 2-0.896 2-2s-0.896-2-2-2h-5.89c0.46-4.172 2.346-7.912 5.162-10.728s6.556-4.702 10.728-5.162v5.89c0 1.104 0.896 2 2 2s2-0.896 2-2v-5.89c4.172 0.46 7.912 2.346 10.728 5.162s4.702 6.556 5.162 10.728h-5.89c-1.104 0-2 0.896-2 2s0.896 2 2 2h5.89c-0.46 4.172-2.346 7.912-5.162 10.728s-6.556 4.702-10.728 5.162z"></path>
</svg>
