<!-- Generated by IcoMoon.io -->
<svg version="1.1" xmlns="http://www.w3.org/2000/svg" width="48" height="48" viewBox="0 0 48 48">
<title>database</title>
<path d="M8 10.004c0 0 0.006-0.19 0.426-0.576 0.49-0.45 1.342-0.966 2.612-1.46 2.998-1.17 7.642-1.968 12.962-1.968s9.964 0.798 12.964 1.968c1.268 0.494 2.122 1.010 2.612 1.46 0.41 0.378 0.424 0.562 0.424 0.576 0 0.006-0.014 0.19-0.426 0.568-0.49 0.45-1.342 0.966-2.612 1.46-2.998 1.17-7.642 1.968-12.962 1.968s-9.964-0.798-12.964-1.968c-1.268-0.494-2.122-1.010-2.612-1.46-0.416-0.384-0.424-0.568-0.424-0.568zM40 29.064v8.942c-0.082 0.194-0.192 0.362-0.434 0.582-0.49 0.45-1.342 0.964-2.606 1.456-2.99 1.164-7.618 1.956-12.96 1.956s-9.97-0.792-12.96-1.956c-1.266-0.492-2.116-1.006-2.606-1.456-0.24-0.22-0.352-0.388-0.398-0.484l-0.012-9.028c0.496 0.252 1.020 0.484 1.564 0.696 3.594 1.398 8.754 2.228 14.412 2.228s10.818-0.83 14.412-2.228c0.554-0.216 1.086-0.45 1.588-0.708zM40 15.054v8.926c0 0.008 0 0.016 0 0.026-0.082 0.194-0.192 0.362-0.434 0.582-0.49 0.45-1.342 0.964-2.606 1.456-2.99 1.164-7.618 1.956-12.96 1.956s-9.97-0.792-12.96-1.956c-1.266-0.492-2.116-1.006-2.606-1.456-0.24-0.22-0.352-0.388-0.398-0.484-0.002-0.080-0.008-0.158-0.018-0.234l-0.010-8.814c0.496 0.256 1.026 0.488 1.576 0.704 3.602 1.404 8.776 2.24 14.416 2.24s10.814-0.836 14.416-2.24c0.552-0.216 1.084-0.45 1.584-0.706zM4 10v28c0 0.116 0.004 0.232 0.014 0.348 0.114 1.33 0.85 2.394 1.714 3.188 0.996 0.914 2.35 1.648 3.86 2.236 3.594 1.398 8.754 2.228 14.412 2.228s10.818-0.83 14.412-2.228c1.51-0.588 2.864-1.322 3.86-2.236 0.864-0.794 1.6-1.858 1.714-3.188 0.010-0.116 0.014-0.232 0.014-0.348v-28c0-0.112-0.004-0.224-0.014-0.336-0.11-1.328-0.844-2.39-1.704-3.18-0.996-0.918-2.354-1.654-3.866-2.244-3.602-1.404-8.776-2.24-14.416-2.24s-10.814 0.836-14.416 2.24c-1.512 0.59-2.87 1.328-3.866 2.244-0.86 0.79-1.594 1.854-1.704 3.18-0.010 0.112-0.014 0.224-0.014 0.336z"></path>
</svg>
