<!-- Generated by IcoMoon.io -->
<svg version="1.1" xmlns="http://www.w3.org/2000/svg" width="48" height="48" viewBox="0 0 48 48">
<title>delete</title>
<path d="M42 10c0.552 0 1.050 0.222 1.414 0.586s0.586 0.862 0.586 1.414v24c0 0.552-0.222 1.050-0.586 1.414s-0.862 0.586-1.414 0.586h-25.092l-12.25-14 12.25-14zM42 6h-26c-0.6 0-1.136 0.264-1.506 0.682l-14 16c-0.666 0.76-0.652 1.884 0 2.634l14 16c0.396 0.452 0.948 0.682 1.506 0.684h26c1.656 0 3.16-0.674 4.242-1.758s1.758-2.586 1.758-4.242v-24c0-1.656-0.674-3.16-1.758-4.242s-2.586-1.758-4.242-1.758zM22.586 19.414l4.586 4.586-4.586 4.586c-0.782 0.782-0.782 2.048 0 2.828s2.048 0.782 2.828 0l4.586-4.586 4.586 4.586c0.782 0.782 2.048 0.782 2.828 0s0.782-2.048 0-2.828l-4.586-4.586 4.586-4.586c0.782-0.782 0.782-2.048 0-2.828s-2.048-0.782-2.828 0l-4.586 4.586-4.586-4.586c-0.782-0.782-2.048-0.782-2.828 0s-0.782 2.048 0 2.828z"></path>
</svg>
