<!-- Generated by IcoMoon.io -->
<svg version="1.1" xmlns="http://www.w3.org/2000/svg" width="48" height="48" viewBox="0 0 48 48">
<title>dollar-sign</title>
<path d="M22 22h-3c-1.382 0-2.628-0.558-3.536-1.464s-1.464-2.154-1.464-3.536 0.558-2.628 1.464-3.536 2.154-1.464 3.536-1.464h3zM26 26h3c1.382 0 2.628 0.558 3.536 1.464s1.464 2.154 1.464 3.536-0.558 2.628-1.464 3.536-2.154 1.464-3.536 1.464h-3zM34 8h-8v-6c0-1.104-0.896-2-2-2s-2 0.896-2 2v6h-3c-2.484 0-4.738 1.010-6.364 2.636s-2.636 3.88-2.636 6.364 1.010 4.738 2.636 6.364 3.88 2.636 6.364 2.636h3v10h-10c-1.104 0-2 0.896-2 2s0.896 2 2 2h10v6c0 1.104 0.896 2 2 2s2-0.896 2-2v-6h3c2.484 0 4.738-1.010 6.364-2.636s2.636-3.88 2.636-6.364-1.010-4.738-2.636-6.364-3.88-2.636-6.364-2.636h-3v-10h8c1.104 0 2-0.896 2-2s-0.896-2-2-2z"></path>
</svg>
