<!-- Generated by IcoMoon.io -->
<svg version="1.1" xmlns="http://www.w3.org/2000/svg" width="48" height="48" viewBox="0 0 48 48">
<title>download</title>
<path d="M40 30v8c0 0.552-0.222 1.050-0.586 1.414s-0.862 0.586-1.414 0.586h-28c-0.552 0-1.050-0.222-1.414-0.586s-0.586-0.862-0.586-1.414v-8c0-1.104-0.896-2-2-2s-2 0.896-2 2v8c0 1.656 0.674 3.16 1.758 4.242s2.586 1.758 4.242 1.758h28c1.656 0 3.16-0.674 4.242-1.758s1.758-2.586 1.758-4.242v-8c0-1.104-0.896-2-2-2s-2 0.896-2 2zM26 25.172v-19.172c0-1.104-0.896-2-2-2s-2 0.896-2 2v19.172l-6.586-6.586c-0.782-0.782-2.048-0.782-2.828 0s-0.782 2.048 0 2.828l10 10c0.184 0.184 0.404 0.332 0.648 0.434s0.506 0.152 0.766 0.152c0.512 0 1.024-0.196 1.414-0.586l10-10c0.782-0.782 0.782-2.048 0-2.828s-2.048-0.782-2.828 0z"></path>
</svg>
