<!-- Generated by IcoMoon.io -->
<svg version="1.1" xmlns="http://www.w3.org/2000/svg" width="48" height="48" viewBox="0 0 48 48">
<title>download-cloud</title>
<path d="M22 24v13.172l-4.586-4.586c-0.782-0.782-2.048-0.782-2.828 0s-0.782 2.048 0 2.828l8 8c0.184 0.184 0.404 0.332 0.648 0.434 0.49 0.202 1.042 0.202 1.532 0 0.236-0.098 0.456-0.242 0.648-0.434l8-8c0.782-0.782 0.782-2.048 0-2.828s-2.048-0.782-2.828 0l-4.586 4.586v-13.172c0-1.104-0.896-2-2-2s-2 0.896-2 2zM42.91 37.816c2.71-1.906 4.392-4.734 4.92-7.756s-0.1-6.252-2.006-8.962c-1.65-2.348-3.996-3.926-6.574-4.648-1.052-0.294-2.144-0.446-3.242-0.45h-1.046c-1.444-4.116-4.274-7.42-7.814-9.516-3.962-2.344-8.824-3.178-13.638-1.944s-8.676 4.31-11.020 8.272-3.178 8.824-1.944 13.638c0.742 2.892 2.15 5.45 3.966 7.468 0.74 0.82 2.004 0.888 2.824 0.148s0.888-2.004 0.148-2.824c-1.384-1.538-2.484-3.52-3.066-5.786-0.962-3.746-0.314-7.522 1.512-10.608s4.824-5.472 8.57-6.432 7.522-0.314 10.608 1.512 5.472 4.824 6.432 8.57c0.232 0.87 1.012 1.502 1.94 1.502h2.512c0.74 0.002 1.474 0.104 2.18 0.302 1.722 0.482 3.278 1.53 4.38 3.096 1.272 1.808 1.69 3.956 1.338 5.976s-1.472 3.9-3.28 5.17c-0.904 0.636-1.12 1.882-0.486 2.786s1.882 1.12 2.786 0.486z"></path>
</svg>
