<!-- Generated by IcoMoon.io -->
<svg version="1.1" xmlns="http://www.w3.org/2000/svg" width="48" height="48" viewBox="0 0 48 48">
<title>droplet</title>
<path d="M25.414 3.966c-0.782-0.782-2.050-0.78-2.83 0.002l-11.306 11.326c-3.514 3.516-5.27 8.126-5.268 12.73s1.76 9.214 5.276 12.726c3.512 3.51 8.118 5.266 12.716 5.268 4.616-0.002 9.226-1.762 12.74-5.276 3.51-3.512 5.266-8.118 5.268-12.716-0.002-4.618-1.762-9.226-5.276-12.738zM24.002 8.21l9.904 9.904c2.736 2.734 4.104 6.312 4.104 9.898s-1.364 7.166-4.098 9.9-6.312 4.102-9.898 4.104-7.166-1.364-9.9-4.098-4.102-6.312-4.104-9.898 1.364-7.166 4.098-9.9z"></path>
</svg>
