<!-- Generated by IcoMoon.io -->
<svg version="1.1" xmlns="http://www.w3.org/2000/svg" width="48" height="48" viewBox="0 0 48 48">
<title>edit</title>
<path d="M22 6h-14c-1.656 0-3.16 0.674-4.242 1.758s-1.758 2.586-1.758 4.242v28c0 1.656 0.674 3.16 1.758 4.242s2.586 1.758 4.242 1.758h28c1.656 0 3.16-0.674 4.242-1.758s1.758-2.586 1.758-4.242v-14c0-1.104-0.896-2-2-2s-2 0.896-2 2v14c0 0.552-0.222 1.050-0.586 1.414s-0.862 0.586-1.414 0.586h-28c-0.552 0-1.050-0.222-1.414-0.586s-0.586-0.862-0.586-1.414v-28c0-0.552 0.222-1.050 0.586-1.414s0.862-0.586 1.414-0.586h14c1.104 0 2-0.896 2-2s-0.896-2-2-2zM35.586 3.586l-19 19c-0.244 0.242-0.434 0.56-0.526 0.93l-2 8c-0.078 0.3-0.084 0.636 0 0.97 0.268 1.072 1.354 1.724 2.426 1.456l8-2c0.334-0.082 0.66-0.258 0.93-0.526l19-19c1.218-1.218 1.828-2.82 1.828-4.414s-0.61-3.196-1.828-4.414-2.822-1.83-4.416-1.83-3.196 0.61-4.414 1.828zM38.414 6.414c0.438-0.438 1.008-0.656 1.586-0.656s1.148 0.218 1.586 0.656 0.656 1.008 0.656 1.586-0.218 1.148-0.656 1.586l-18.608 18.608-4.228 1.058 1.058-4.228z"></path>
</svg>
