<!-- Generated by IcoMoon.io -->
<svg version="1.1" xmlns="http://www.w3.org/2000/svg" width="48" height="48" viewBox="0 0 48 48">
<title>edit-3</title>
<path d="M24 42h18c1.104 0 2-0.896 2-2s-0.896-2-2-2h-18c-1.104 0-2 0.896-2 2s0.896 2 2 2zM31.586 5.586l-25 25c-0.244 0.242-0.434 0.56-0.526 0.93l-2 8c-0.078 0.3-0.084 0.636 0 0.97 0.268 1.072 1.354 1.724 2.426 1.456l8-2c0.334-0.082 0.66-0.258 0.93-0.526l25-25c1.218-1.218 1.828-2.82 1.828-4.414s-0.61-3.196-1.828-4.414-2.822-1.83-4.416-1.83-3.196 0.61-4.414 1.828zM34.414 8.414c0.438-0.438 1.008-0.656 1.586-0.656s1.148 0.218 1.586 0.656 0.656 1.008 0.656 1.586-0.218 1.148-0.656 1.586l-24.608 24.608-4.23 1.058 1.058-4.23z"></path>
</svg>
