<!-- Generated by IcoMoon.io -->
<svg version="1.1" xmlns="http://www.w3.org/2000/svg" width="48" height="48" viewBox="0 0 48 48">
<title>edit-2</title>
<path d="M32.586 4.586l-27 27c-0.234 0.232-0.42 0.536-0.516 0.888l-3 11c-0.092 0.326-0.098 0.692 0 1.052 0.29 1.066 1.39 1.694 2.456 1.404l11-3c0.318-0.084 0.63-0.258 0.888-0.516l27-27c1.494-1.494 2.242-3.458 2.242-5.414s-0.748-3.92-2.242-5.414-3.458-2.242-5.414-2.242-3.92 0.748-5.414 2.242zM35.414 7.414c0.714-0.714 1.648-1.070 2.586-1.070s1.872 0.356 2.586 1.072 1.070 1.646 1.070 2.584-0.356 1.872-1.070 2.586l-26.624 26.624-7.112 1.94 1.94-7.11z"></path>
</svg>
