<!-- Generated by IcoMoon.io -->
<svg version="1.1" xmlns="http://www.w3.org/2000/svg" width="48" height="48" viewBox="0 0 48 48">
<title>external-link</title>
<path d="M34 26v12c0 0.552-0.222 1.050-0.586 1.414s-0.862 0.586-1.414 0.586h-22c-0.552 0-1.050-0.222-1.414-0.586s-0.586-0.862-0.586-1.414v-22c0-0.552 0.222-1.050 0.586-1.414s0.862-0.586 1.414-0.586h12c1.104 0 2-0.896 2-2s-0.896-2-2-2h-12c-1.656 0-3.16 0.674-4.242 1.758s-1.758 2.586-1.758 4.242v22c0 1.656 0.674 3.16 1.758 4.242s2.586 1.758 4.242 1.758h22c1.656 0 3.16-0.674 4.242-1.758s1.758-2.586 1.758-4.242v-12c0-1.104-0.896-2-2-2s-2 0.896-2 2zM21.414 29.414l18.586-18.586v7.172c0 1.104 0.896 2 2 2s2-0.896 2-2v-12c0-0.272-0.054-0.53-0.152-0.766s-0.242-0.456-0.432-0.646c-0.002-0.002-0.002-0.002-0.004-0.004-0.184-0.184-0.404-0.332-0.646-0.432-0.236-0.098-0.494-0.152-0.766-0.152h-12c-1.104 0-2 0.896-2 2s0.896 2 2 2h7.172l-18.586 18.586c-0.782 0.782-0.782 2.048 0 2.828s2.048 0.782 2.828 0z"></path>
</svg>
