<!-- Generated by IcoMoon.io -->
<svg version="1.1" xmlns="http://www.w3.org/2000/svg" width="48" height="48" viewBox="0 0 48 48">
<title>eye-off</title>
<path d="M20.256 10.428c1.302-0.304 2.592-0.442 3.72-0.428 3.516 0 6.618 1.118 9.316 2.786 2.238 1.384 4.178 3.134 5.788 4.896 1.288 1.41 2.35 2.81 3.17 4.002 0.654 0.95 1.14 1.748 1.466 2.31-1.092 1.906-2.32 3.642-3.556 5.084-0.718 0.838-0.622 2.102 0.216 2.82s2.102 0.622 2.82-0.216c1.636-1.908 3.222-4.224 4.566-6.74 0.296-0.558 0.326-1.236 0.026-1.838 0 0-0.792-1.578-2.24-3.686-0.902-1.312-2.076-2.864-3.514-4.436-1.788-1.958-4.008-3.974-6.638-5.6-3.19-1.97-7.012-3.382-11.372-3.382-1.468-0.018-3.080 0.158-4.68 0.532-1.076 0.252-1.744 1.328-1.492 2.404s1.328 1.744 2.404 1.492zM20.054 22.884l5.062 5.062c-0.364 0.122-0.744 0.188-1.126 0.202-1.026 0.036-2.060-0.318-2.868-1.072s-1.234-1.76-1.27-2.786c-0.016-0.476 0.050-0.952 0.202-1.408zM11.966 14.794l5.106 5.106c-0.868 1.382-1.272 2.968-1.216 4.532 0.072 2.044 0.926 4.066 2.542 5.57s3.692 2.214 5.736 2.142c1.384-0.048 2.758-0.456 3.968-1.216l4.644 4.644c-2.756 1.598-5.79 2.392-8.768 2.428-3.468 0-6.57-1.118-9.268-2.786-2.238-1.384-4.178-3.134-5.788-4.896-1.288-1.41-2.35-2.81-3.17-4.002-0.652-0.95-1.14-1.746-1.464-2.308 2.1-3.644 4.752-6.758 7.682-9.214zM0.586 3.414l8.542 8.542c-3.462 2.958-6.538 6.716-8.89 11.098-0.296 0.558-0.328 1.238-0.026 1.84 0 0 0.792 1.578 2.24 3.686 0.902 1.312 2.076 2.864 3.514 4.436 1.788 1.958 4.008 3.974 6.638 5.6 3.19 1.972 7.012 3.384 11.42 3.384 3.986-0.048 8.038-1.202 11.63-3.518l8.932 8.932c0.782 0.782 2.048 0.782 2.828 0s0.782-2.048 0-2.828l-17.752-17.752c-0.004-0.004-0.010-0.010-0.014-0.014l-8.418-8.42c-0.016-0.014-0.032-0.032-0.048-0.048l-17.768-17.766c-0.782-0.782-2.048-0.782-2.828 0s-0.782 2.048 0 2.828z"></path>
</svg>
