<!-- Generated by IcoMoon.io -->
<svg version="1.1" xmlns="http://www.w3.org/2000/svg" width="48" height="48" viewBox="0 0 48 48">
<title>eye</title>
<path d="M0.212 23.106c-0.272 0.548-0.292 1.206 0 1.788 0 0 0.792 1.578 2.24 3.686 0.902 1.312 2.076 2.864 3.514 4.436 1.788 1.958 4.008 3.974 6.638 5.6 3.19 1.972 7.012 3.384 11.396 3.384s8.206-1.412 11.396-3.384c2.63-1.626 4.85-3.642 6.638-5.6 1.436-1.572 2.612-3.124 3.514-4.436 1.448-2.108 2.24-3.686 2.24-3.686 0.272-0.548 0.292-1.206 0-1.788 0 0-0.792-1.578-2.24-3.686-0.902-1.312-2.076-2.864-3.514-4.436-1.788-1.958-4.008-3.974-6.638-5.6-3.19-1.972-7.012-3.384-11.396-3.384s-8.206 1.412-11.396 3.384c-2.63 1.626-4.85 3.642-6.638 5.6-1.438 1.572-2.612 3.122-3.514 4.436-1.448 2.108-2.24 3.686-2.24 3.686zM4.28 24c0.326-0.562 0.814-1.362 1.468-2.316 0.82-1.192 1.88-2.592 3.17-4.002 1.61-1.762 3.55-3.512 5.788-4.896 2.7-1.668 5.802-2.786 9.294-2.786s6.594 1.118 9.292 2.786c2.238 1.384 4.178 3.134 5.788 4.896 1.288 1.41 2.35 2.81 3.17 4.002 0.656 0.954 1.144 1.752 1.468 2.316-0.326 0.562-0.814 1.362-1.468 2.316-0.82 1.192-1.88 2.592-3.17 4.002-1.61 1.762-3.55 3.512-5.788 4.896-2.698 1.668-5.8 2.786-9.292 2.786s-6.594-1.118-9.292-2.786c-2.238-1.384-4.178-3.134-5.788-4.896-1.288-1.41-2.35-2.81-3.17-4.002-0.656-0.954-1.144-1.754-1.47-2.316zM32 24c0-2.208-0.898-4.212-2.344-5.656s-3.448-2.344-5.656-2.344-4.212 0.898-5.656 2.344-2.344 3.448-2.344 5.656 0.898 4.212 2.344 5.656 3.448 2.344 5.656 2.344 4.212-0.898 5.656-2.344 2.344-3.448 2.344-5.656zM28 24c0 1.106-0.446 2.102-1.172 2.828s-1.722 1.172-2.828 1.172-2.102-0.446-2.828-1.172-1.172-1.722-1.172-2.828 0.446-2.102 1.172-2.828 1.722-1.172 2.828-1.172 2.102 0.446 2.828 1.172 1.172 1.722 1.172 2.828z"></path>
</svg>
