<!-- Generated by IcoMoon.io -->
<svg version="1.1" xmlns="http://www.w3.org/2000/svg" width="48" height="48" viewBox="0 0 48 48">
<title>facebook</title>
<path d="M34 6v4h-4c-1.104 0-2.106 0.45-2.828 1.172s-1.172 1.724-1.172 2.828v6c0 1.104 0.896 2 2 2h5.438l-1 4h-4.438c-1.104 0-2 0.896-2 2v14h-4v-14c0-1.104-0.896-2-2-2h-4v-4h4c1.104 0 2-0.896 2-2v-6c0-2.21 0.894-4.206 2.344-5.656s3.446-2.344 5.656-2.344zM36 2h-6c-3.314 0-6.316 1.346-8.486 3.514s-3.514 5.172-3.514 8.486v4h-4c-1.104 0-2 0.896-2 2v8c0 1.104 0.896 2 2 2h4v14c0 1.104 0.896 2 2 2h8c1.104 0 2-0.896 2-2v-14h4c0.932 0 1.716-0.638 1.94-1.514l2-8c0.268-1.072-0.384-2.158-1.456-2.426-0.166-0.042-0.334-0.062-0.484-0.060h-6v-4h6c1.104 0 2-0.896 2-2v-8c0-1.104-0.896-2-2-2z"></path>
</svg>
