<!-- Generated by IcoMoon.io -->
<svg version="1.1" xmlns="http://www.w3.org/2000/svg" width="48" height="48" viewBox="0 0 48 48">
<title>fast-forward</title>
<path d="M28 33.91v-19.82l12.742 9.91zM6 33.91v-19.82l12.742 9.91zM5.228 39.578l18-14c0.502-0.39 0.766-0.972 0.772-1.56v13.982c0 1.104 0.896 2 2 2 0.464 0 0.892-0.158 1.228-0.422l18-14c0.872-0.678 1.028-1.934 0.35-2.806-0.108-0.138-0.23-0.258-0.35-0.35l-18-14c-0.872-0.678-2.128-0.522-2.806 0.35-0.286 0.368-0.424 0.802-0.422 1.228v13.98c-0.004-0.422-0.142-0.848-0.422-1.208-0.108-0.138-0.23-0.258-0.35-0.35l-18-14c-0.872-0.678-2.128-0.522-2.806 0.35-0.286 0.368-0.424 0.802-0.422 1.228v28c0 1.104 0.896 2 2 2 0.464 0 0.892-0.158 1.228-0.422z"></path>
</svg>
