<!-- Generated by IcoMoon.io -->
<svg version="1.1" xmlns="http://www.w3.org/2000/svg" width="48" height="48" viewBox="0 0 48 48">
<title>feather</title>
<path d="M36.222 31.584c0.138-0.106 0.26-0.23 0.366-0.368l5.306-5.322c2.734-2.734 4.102-6.322 4.102-9.904s-1.368-7.17-4.102-9.904-6.322-4.102-9.904-4.102-7.17 1.368-9.904 4.102l-13.5 13.5c-0.39 0.39-0.586 0.902-0.586 1.414v16.172l-5.414 5.414c-0.782 0.782-0.782 2.048 0 2.828s2.048 0.782 2.828 0l5.414-5.414h16.172c0.554 0 1.054-0.224 1.416-0.588zM18.828 32h11.33l-3.988 4h-11.342zM34.146 28h-11.318l10.586-10.586c0.782-0.782 0.782-2.048 0-2.828s-2.048-0.782-2.828 0l-18.586 18.586v-11.344l12.914-12.914c1.954-1.954 4.512-2.93 7.076-2.93s5.122 0.976 7.076 2.93 2.93 4.512 2.93 7.076-0.976 5.122-2.93 7.076z"></path>
</svg>
