<!-- Generated by IcoMoon.io -->
<svg version="1.1" xmlns="http://www.w3.org/2000/svg" width="48" height="48" viewBox="0 0 48 48">
<title>figma</title>
<path d="M26 25c0-1.382 0.558-2.628 1.464-3.536s2.154-1.464 3.536-1.464 2.628 0.558 3.536 1.464 1.464 2.154 1.464 3.536-0.558 2.628-1.464 3.536-2.154 1.464-3.536 1.464-2.628-0.558-3.536-1.464-1.464-2.154-1.464-3.536zM17 16c-1.382 0-2.628-0.558-3.536-1.464s-1.464-2.154-1.464-3.536 0.558-2.628 1.464-3.536 2.154-1.464 3.536-1.464h5v10zM26 16v-10h5c1.382 0 2.628 0.558 3.536 1.464s1.464 2.154 1.464 3.536-0.558 2.628-1.464 3.536-2.154 1.464-3.536 1.464zM22 34v5c0 1.382-0.558 2.628-1.464 3.536s-2.154 1.464-3.536 1.464-2.628-0.558-3.536-1.464-1.464-2.154-1.464-3.536 0.558-2.628 1.464-3.536 2.154-1.464 3.536-1.464zM8 25c0 2.484 1.010 4.738 2.636 6.364 0.224 0.224 0.46 0.436 0.706 0.636-0.246 0.2-0.482 0.412-0.706 0.636-1.626 1.626-2.636 3.88-2.636 6.364s1.010 4.738 2.636 6.364 3.88 2.636 6.364 2.636 4.738-1.010 6.364-2.636 2.636-3.88 2.636-6.364v-6.516c1.43 0.956 3.15 1.516 5 1.516 2.484 0 4.738-1.010 6.364-2.636s2.636-3.88 2.636-6.364-1.010-4.738-2.636-6.364c-0.224-0.224-0.46-0.436-0.706-0.636 0.246-0.2 0.482-0.412 0.706-0.636 1.626-1.626 2.636-3.88 2.636-6.364s-1.010-4.738-2.636-6.364-3.88-2.636-6.364-2.636h-14c-2.484 0-4.738 1.010-6.364 2.636s-2.636 3.88-2.636 6.364 1.010 4.738 2.636 6.364c0.224 0.224 0.46 0.436 0.706 0.636-0.246 0.2-0.482 0.412-0.706 0.636-1.626 1.626-2.636 3.88-2.636 6.364zM12 25c0-1.382 0.558-2.628 1.464-3.536s2.154-1.464 3.536-1.464h5v10h-5c-1.382 0-2.628-0.558-3.536-1.464s-1.464-2.154-1.464-3.536z"></path>
</svg>
