<!-- Generated by IcoMoon.io -->
<svg version="1.1" xmlns="http://www.w3.org/2000/svg" width="48" height="48" viewBox="0 0 48 48">
<title>file-minus</title>
<path d="M35.172 14h-5.172v-5.172zM41.414 14.586l-12-12c-0.184-0.184-0.404-0.332-0.648-0.434s-0.506-0.152-0.766-0.152h-16c-1.656 0-3.16 0.674-4.242 1.758s-1.758 2.586-1.758 4.242v32c0 1.656 0.674 3.16 1.758 4.242s2.586 1.758 4.242 1.758h24c1.656 0 3.16-0.674 4.242-1.758s1.758-2.586 1.758-4.242v-24c0-0.552-0.224-1.052-0.586-1.414zM26 6v10c0 1.104 0.896 2 2 2h10v22c0 0.552-0.222 1.050-0.586 1.414s-0.862 0.586-1.414 0.586h-24c-0.552 0-1.050-0.222-1.414-0.586s-0.586-0.862-0.586-1.414v-32c0-0.552 0.222-1.050 0.586-1.414s0.862-0.586 1.414-0.586zM18 32h12c1.104 0 2-0.896 2-2s-0.896-2-2-2h-12c-1.104 0-2 0.896-2 2s0.896 2 2 2z"></path>
</svg>
