<!-- Generated by IcoMoon.io -->
<svg version="1.1" xmlns="http://www.w3.org/2000/svg" width="48" height="48" viewBox="0 0 48 48">
<title>film</title>
<path d="M32 22h-16v-16h16zM16 26h16v16h-16zM12 12h-6v-3.64c0-0.652 0.262-1.24 0.692-1.668s1.016-0.692 1.668-0.692h3.64zM6 16h6v6h-6zM12 32h-6v-6h6zM6 36h6v6h-3.64c-0.652 0-1.24-0.262-1.668-0.692s-0.692-1.016-0.692-1.668zM42 32h-6v-6h6zM36 36h6v3.64c0 0.652-0.262 1.24-0.692 1.668s-1.016 0.692-1.668 0.692h-3.64zM42 12h-6v-6h3.64c0.652 0 1.24 0.262 1.668 0.692s0.692 1.016 0.692 1.668zM46 14v-5.64c0-1.756-0.714-3.348-1.862-4.498s-2.742-1.862-4.498-1.862h-31.28c-1.756 0-3.348 0.714-4.498 1.862s-1.862 2.742-1.862 4.498v31.28c0 1.756 0.714 3.348 1.862 4.498s2.742 1.862 4.498 1.862h31.28c1.756 0 3.348-0.714 4.498-1.862s1.862-2.742 1.862-4.498zM36 16h6v6h-6z"></path>
</svg>
