<!-- Generated by IcoMoon.io -->
<svg version="1.1" xmlns="http://www.w3.org/2000/svg" width="48" height="48" viewBox="0 0 48 48">
<title>filter</title>
<path d="M39.69 8l-13.218 15.628c-0.294 0.346-0.472 0.798-0.472 1.292v13.844l-4-2v-11.844c0.002-0.454-0.154-0.914-0.472-1.292l-13.218-15.628zM44 4h-40c-1.104 0-2 0.896-2 2 0 0.494 0.178 0.946 0.472 1.292l15.528 18.36v12.348c0 0.778 0.444 1.454 1.106 1.788l8 4c0.988 0.494 2.19 0.094 2.684-0.894 0.144-0.292 0.212-0.602 0.21-0.894v-16.348l15.528-18.36c0.714-0.844 0.608-2.106-0.236-2.818-0.378-0.32-0.838-0.476-1.292-0.474z"></path>
</svg>
