<!-- Generated by IcoMoon.io -->
<svg version="1.1" xmlns="http://www.w3.org/2000/svg" width="48" height="48" viewBox="0 0 48 48">
<title>flag</title>
<path d="M10 26.794v-19.718c0.88-0.436 2.73-1.076 6-1.076 2.562 0 4.722 0.842 7.258 1.856 2.464 0.986 5.304 2.144 8.742 2.144 2.596 0 4.556-0.35 6-0.794v19.718c-0.88 0.436-2.73 1.076-6 1.076-2.562 0-4.722-0.842-7.258-1.856-2.464-0.986-5.304-2.144-8.742-2.144-2.596 0-4.556 0.35-6 0.794zM10 44v-12.924c0.88-0.436 2.73-1.076 6-1.076 2.562 0 4.722 0.842 7.258 1.856 2.464 0.986 5.304 2.144 8.742 2.144 6.494 0 9.014-2.186 9.414-2.586 0.39-0.39 0.586-0.902 0.586-1.414v-24c0-1.104-0.896-2-2-2-0.53 0-1.012 0.206-1.37 0.544-0.192 0.156-1.968 1.456-6.63 1.456-2.562 0-4.722-0.842-7.258-1.856-2.464-0.986-5.304-2.144-8.742-2.144-6.494 0-9.014 2.186-9.414 2.586-0.39 0.39-0.586 0.902-0.586 1.414v38c0 1.104 0.896 2 2 2s2-0.896 2-2z"></path>
</svg>
