<!-- Generated by IcoMoon.io -->
<svg version="1.1" xmlns="http://www.w3.org/2000/svg" width="48" height="48" viewBox="0 0 48 48">
<title>framer</title>
<path d="M24.828 16l-10-10h21.172v10zM12 32v-12h11.172l10 10h-9.172c-1.104 0-2 0.896-2 2s0.896 2 2 2h14c0.512 0 1.024-0.196 1.414-0.586 0.782-0.782 0.782-2.048 0-2.828l-10.586-10.586h9.172c1.104 0 2-0.896 2-2v-14c0-1.104-0.896-2-2-2h-28c-1.104 0-2 0.896-2 2 0 0.552 0.224 1.052 0.586 1.414l10.586 10.586h-9.172c-1.104 0-2 0.896-2 2v14c0 1.104 0.896 2 2 2s2-0.896 2-2zM8.586 33.414l14 14c0.782 0.782 2.048 0.782 2.828 0 0.39-0.39 0.586-0.902 0.586-1.414v-14c0-1.104-0.896-2-2-2s-2 0.896-2 2v9.172l-10.586-10.586c-0.782-0.782-2.048-0.782-2.828 0s-0.782 2.048 0 2.828zM10 34h14c1.104 0 2-0.896 2-2s-0.896-2-2-2h-14c-1.104 0-2 0.896-2 2s0.896 2 2 2z"></path>
</svg>
