<!-- Generated by IcoMoon.io -->
<svg version="1.1" xmlns="http://www.w3.org/2000/svg" width="48" height="48" viewBox="0 0 48 48">
<title>frown</title>
<path d="M46 24c0-6.074-2.464-11.578-6.444-15.556s-9.482-6.444-15.556-6.444-11.578 2.464-15.556 6.444-6.444 9.482-6.444 15.556 2.464 11.578 6.444 15.556 9.482 6.444 15.556 6.444 11.578-2.464 15.556-6.444 6.444-9.482 6.444-15.556zM42 24c0 4.972-2.012 9.468-5.272 12.728s-7.756 5.272-12.728 5.272-9.468-2.012-12.728-5.272-5.272-7.756-5.272-12.728 2.012-9.468 5.272-12.728 7.756-5.272 12.728-5.272 9.468 2.012 12.728 5.272 5.272 7.756 5.272 12.728zM33.6 30.8c0 0-0.262-0.346-0.662-0.766-0.29-0.306-0.676-0.682-1.154-1.080-0.674-0.562-1.544-1.18-2.594-1.706-1.41-0.704-3.158-1.248-5.19-1.248s-3.78 0.544-5.19 1.248c-1.050 0.526-1.92 1.144-2.594 1.706-0.478 0.398-0.864 0.774-1.154 1.080-0.4 0.42-0.662 0.766-0.662 0.766-0.662 0.884-0.484 2.138 0.4 2.8s2.138 0.484 2.8-0.4c0.082-0.1 0.362-0.412 0.362-0.412 0.2-0.21 0.474-0.478 0.816-0.764 0.486-0.406 1.098-0.838 1.82-1.2 0.96-0.478 2.1-0.824 3.402-0.824s2.442 0.346 3.402 0.826c0.72 0.36 1.334 0.794 1.82 1.2 0.342 0.286 0.616 0.554 0.816 0.764 0.28 0.31 0.362 0.41 0.362 0.41 0.662 0.884 1.916 1.062 2.8 0.4s1.062-1.916 0.4-2.8zM18 20c1.104 0 2-0.896 2-2s-0.896-2-2-2-2 0.896-2 2 0.896 2 2 2zM30 20c1.104 0 2-0.896 2-2s-0.896-2-2-2-2 0.896-2 2 0.896 2 2 2z"></path>
</svg>
