<!-- Generated by IcoMoon.io -->
<svg version="1.1" xmlns="http://www.w3.org/2000/svg" width="48" height="48" viewBox="0 0 48 48">
<title>gift</title>
<path d="M22 26v16h-12v-16zM26 42v-16h12v16zM15 12c-0.828 0-1.576-0.334-2.122-0.878s-0.878-1.294-0.878-2.122 0.334-1.576 0.878-2.122 1.294-0.878 2.122-0.878c1.258 0 2.284 0.446 3.168 1.172 0.752 0.616 1.402 1.438 1.952 2.354 0.482 0.802 0.866 1.642 1.16 2.406zM26.692 12c0.322-0.832 0.706-1.672 1.186-2.474 0.55-0.918 1.202-1.738 1.952-2.354 0.886-0.726 1.912-1.172 3.17-1.172 0.828 0 1.576 0.334 2.122 0.878s0.878 1.294 0.878 2.122-0.334 1.576-0.878 2.122-1.294 0.878-2.122 0.878zM22 16v6h-16v-6h9zM39.326 12c0.432-0.91 0.674-1.926 0.674-3 0-1.932-0.786-3.686-2.050-4.95s-3.018-2.050-4.95-2.050c-2.32 0-4.218 0.86-5.704 2.078-1.206 0.988-2.136 2.206-2.846 3.388-0.16 0.266-0.31 0.532-0.45 0.796-0.14-0.264-0.29-0.53-0.45-0.796-0.71-1.182-1.64-2.4-2.846-3.388-1.486-1.218-3.384-2.078-5.704-2.078-1.932 0-3.686 0.786-4.95 2.050s-2.050 3.018-2.050 4.95c0 1.074 0.242 2.090 0.674 3h-4.674c-1.104 0-2 0.896-2 2v10c0 1.104 0.896 2 2 2h2v18c0 1.104 0.896 2 2 2h32c1.104 0 2-0.896 2-2v-18h2c1.104 0 2-0.896 2-2v-10c0-1.104-0.896-2-2-2zM26 16h16v6h-16z"></path>
</svg>
