<!-- Generated by IcoMoon.io -->
<svg version="1.1" xmlns="http://www.w3.org/2000/svg" width="48" height="48" viewBox="0 0 48 48">
<title>git-merge</title>
<path d="M40 36c0 1.106-0.446 2.102-1.172 2.828s-1.722 1.172-2.828 1.172-2.102-0.446-2.828-1.172-1.172-1.722-1.172-2.828 0.446-2.102 1.172-2.828 1.722-1.172 2.828-1.172 2.102 0.446 2.828 1.172 1.172 1.722 1.172 2.828zM16 12c0 1.106-0.446 2.102-1.172 2.828s-1.722 1.172-2.828 1.172-2.102-0.446-2.828-1.172-1.172-1.722-1.172-2.828 0.446-2.102 1.172-2.828 1.722-1.172 2.828-1.172 2.102 0.446 2.828 1.172 1.172 1.722 1.172 2.828zM14 42v-11.998c0.568 0.758 1.19 1.472 1.858 2.14 3.228 3.228 7.558 5.358 12.376 5.78 0.354 1.438 1.098 2.722 2.11 3.734 1.444 1.446 3.448 2.344 5.656 2.344s4.212-0.898 5.656-2.344 2.344-3.448 2.344-5.656-0.898-4.212-2.344-5.656-3.448-2.344-5.656-2.344-4.212 0.898-5.656 2.344c-0.972 0.972-1.696 2.196-2.066 3.566-3.73-0.4-7.074-2.078-9.59-4.594s-4.196-5.86-4.594-9.59c1.366-0.372 2.59-1.098 3.562-2.070 1.446-1.444 2.344-3.448 2.344-5.656s-0.898-4.212-2.344-5.656-3.448-2.344-5.656-2.344-4.212 0.898-5.656 2.344-2.344 3.448-2.344 5.656 0.898 4.212 2.344 5.656c0.992 0.994 2.25 1.73 3.656 2.092v22.252c0 1.104 0.896 2 2 2s2-0.896 2-2z"></path>
</svg>
