<!-- Generated by IcoMoon.io -->
<svg version="1.1" xmlns="http://www.w3.org/2000/svg" width="48" height="48" viewBox="0 0 48 48">
<title>git-commit</title>
<path d="M30 24c0 1.658-0.67 3.154-1.758 4.242s-2.584 1.758-4.242 1.758-3.154-0.67-4.242-1.758-1.758-2.584-1.758-4.242 0.67-3.154 1.758-4.242 2.584-1.758 4.242-1.758 3.154 0.67 4.242 1.758 1.758 2.584 1.758 4.242zM34.020 26h11.9c1.104 0 2-0.896 2-2s-0.896-2-2-2h-11.9c-0.074 0-0.146 0.004-0.218 0.012-0.396-1.964-1.37-3.72-2.73-5.082-1.808-1.808-4.312-2.93-7.072-2.93s-5.264 1.122-7.072 2.928c-1.362 1.362-2.334 3.118-2.73 5.080-0.064-0.004-0.132-0.008-0.198-0.008h-11.9c-1.104 0-2 0.896-2 2s0.896 2 2 2h11.9c0.066 0 0.134-0.004 0.198-0.010 0.396 1.964 1.37 3.72 2.73 5.080 1.808 1.808 4.312 2.93 7.072 2.93s5.264-1.122 7.072-2.928c1.362-1.362 2.334-3.118 2.73-5.082 0.072 0.008 0.144 0.012 0.218 0.012z"></path>
</svg>
