<!-- Generated by IcoMoon.io -->
<svg version="1.1" xmlns="http://www.w3.org/2000/svg" width="48" height="48" viewBox="0 0 48 48">
<title>git-branch</title>
<path d="M40 12c0 1.106-0.446 2.102-1.172 2.828s-1.722 1.172-2.828 1.172-2.102-0.446-2.828-1.172-1.172-1.722-1.172-2.828 0.446-2.102 1.172-2.828 1.722-1.172 2.828-1.172 2.102 0.446 2.828 1.172 1.172 1.722 1.172 2.828zM16 36c0 1.106-0.446 2.102-1.172 2.828s-1.722 1.172-2.828 1.172-2.102-0.446-2.828-1.172-1.172-1.722-1.172-2.828 0.446-2.102 1.172-2.828 1.722-1.172 2.828-1.172 2.102 0.446 2.828 1.172 1.172 1.722 1.172 2.828zM33.908 19.724c-0.4 3.73-2.078 7.074-4.594 9.59s-5.86 4.196-9.59 4.594c-0.37-1.37-1.094-2.594-2.066-3.566-0.994-0.992-2.252-1.728-3.658-2.090v-22.252c0-1.104-0.896-2-2-2s-2 0.896-2 2v22.252c-1.406 0.362-2.664 1.098-3.656 2.090-1.446 1.446-2.344 3.45-2.344 5.658s0.898 4.212 2.344 5.656 3.448 2.344 5.656 2.344 4.212-0.898 5.656-2.344c1.012-1.012 1.756-2.296 2.11-3.734 4.818-0.422 9.148-2.554 12.376-5.78s5.358-7.558 5.78-12.376c1.438-0.354 2.722-1.098 3.734-2.11 1.446-1.444 2.344-3.448 2.344-5.656s-0.898-4.212-2.344-5.656-3.448-2.344-5.656-2.344-4.212 0.898-5.656 2.344-2.344 3.448-2.344 5.656 0.898 4.212 2.344 5.656c0.972 0.972 2.196 1.696 3.566 2.066z"></path>
</svg>
