<!-- Generated by IcoMoon.io -->
<svg version="1.1" xmlns="http://www.w3.org/2000/svg" width="48" height="48" viewBox="0 0 48 48">
<title>git-pull-request</title>
<path d="M40 36c0 1.106-0.446 2.102-1.172 2.828s-1.722 1.172-2.828 1.172-2.102-0.446-2.828-1.172-1.172-1.722-1.172-2.828 0.446-2.102 1.172-2.828 1.722-1.172 2.828-1.172 2.102 0.446 2.828 1.172 1.172 1.722 1.172 2.828zM16 12c0 1.106-0.446 2.102-1.172 2.828s-1.722 1.172-2.828 1.172-2.102-0.446-2.828-1.172-1.172-1.722-1.172-2.828 0.446-2.102 1.172-2.828 1.722-1.172 2.828-1.172 2.102 0.446 2.828 1.172 1.172 1.722 1.172 2.828zM26 14h6c0.552 0 1.050 0.222 1.414 0.586s0.586 0.862 0.586 1.414v12.252c-1.406 0.362-2.664 1.098-3.656 2.090-1.446 1.446-2.344 3.45-2.344 5.658s0.898 4.212 2.344 5.656 3.448 2.344 5.656 2.344 4.212-0.898 5.656-2.344 2.344-3.448 2.344-5.656-0.898-4.212-2.344-5.656c-0.994-0.994-2.25-1.728-3.656-2.090v-12.254c0-1.656-0.674-3.16-1.758-4.242s-2.586-1.758-4.242-1.758h-6c-1.104 0-2 0.896-2 2s0.896 2 2 2zM10 19.748v22.252c0 1.104 0.896 2 2 2s2-0.896 2-2v-22.252c1.406-0.362 2.664-1.098 3.656-2.090 1.446-1.446 2.344-3.45 2.344-5.658s-0.898-4.212-2.344-5.656-3.448-2.344-5.656-2.344-4.212 0.898-5.656 2.344-2.344 3.448-2.344 5.656 0.898 4.212 2.344 5.656c0.992 0.994 2.25 1.73 3.656 2.092z"></path>
</svg>
