<!-- Generated by IcoMoon.io -->
<svg version="1.1" xmlns="http://www.w3.org/2000/svg" width="48" height="48" viewBox="0 0 48 48">
<title>github</title>
<path d="M17.426 36.084c-2.536 0.76-4.12 0.67-5.166 0.34-0.462-0.146-0.862-0.352-1.228-0.604-0.822-0.568-1.454-1.35-2.238-2.344-0.712-0.902-1.7-2.214-3.102-2.952-0.37-0.196-0.772-0.354-1.208-0.464-1.072-0.268-2.158 0.384-2.426 1.456s0.384 2.158 1.456 2.426c0.148 0.046 0.31 0.12 0.31 0.12 0.504 0.266 0.974 0.808 1.828 1.892 0.732 0.928 1.712 2.196 3.106 3.158 0.664 0.458 1.422 0.852 2.298 1.128 2.030 0.642 4.472 0.592 7.52-0.324 1.058-0.318 1.658-1.432 1.34-2.49s-1.432-1.658-2.49-1.34zM34 44v-7.584c0.104-1.368-0.112-2.686-0.584-3.884 1.554-0.342 3.126-0.854 4.594-1.646 4.166-2.248 6.992-6.484 6.992-13.846 0-3.006-1.032-5.774-2.758-7.962 0.71-2.69 0.452-5.452-0.586-7.866-0.244-0.566-0.718-0.964-1.268-1.128-0.714-0.212-3.464-0.618-8.746 2.724-4.546-1.082-9.114-1.018-13.292-0.004-5.278-3.338-8.026-2.932-8.74-2.72-0.592 0.176-1.042 0.6-1.27 1.13-1.108 2.584-1.248 5.344-0.584 7.864-1.86 2.356-2.774 5.202-2.758 8.034 0 7.244 2.778 11.446 6.882 13.718 1.504 0.832 3.12 1.37 4.714 1.734-0.37 0.936-0.572 1.922-0.608 2.912-0.010 0.282-0.006 0.566 0.010 0.848l0.002 7.676c0 1.104 0.896 2 2 2s2-0.896 2-2v-7.74c0-0.042-0.002-0.090-0.004-0.138-0.012-0.168-0.014-0.336-0.008-0.504 0.040-1.136 0.482-2.252 1.33-3.128 0.29-0.298 0.492-0.694 0.548-1.144 0.136-1.096-0.642-2.096-1.738-2.232-0.68-0.084-1.354-0.188-2.012-0.318-1.58-0.312-3.036-0.77-4.294-1.466-2.61-1.446-4.782-4.142-4.82-10.084 0.026-2.482 0.838-4.638 2.448-6.33 0.514-0.546 0.7-1.342 0.424-2.080-0.56-1.496-0.682-3.16-0.28-4.784 0.982 0.214 2.708 0.832 5.294 2.564 0.47 0.314 1.066 0.428 1.65 0.266 3.994-1.114 8.484-1.204 12.94 0.004 0.542 0.146 1.138 0.066 1.636-0.27 2.586-1.732 4.312-2.35 5.294-2.564 0.378 1.532 0.314 3.19-0.282 4.784-0.258 0.704-0.116 1.51 0.426 2.080 1.516 1.59 2.448 3.744 2.448 6.12 0 6.15-2.228 8.89-4.89 10.326-1.246 0.672-2.686 1.11-4.246 1.4-0.644 0.12-1.302 0.212-1.966 0.286-0.42 0.046-0.836 0.228-1.168 0.55-0.794 0.768-0.816 2.034-0.048 2.828 0.134 0.14 0.26 0.286 0.376 0.44 0.68 0.898 1.042 2.030 0.948 3.234 0 0.048-0.002 0.102-0.006 0.156v7.744c0 1.104 0.896 2 2 2s2-0.896 2-2z"></path>
</svg>
