<!-- Generated by IcoMoon.io -->
<svg version="1.1" xmlns="http://www.w3.org/2000/svg" width="48" height="48" viewBox="0 0 48 48">
<title>gitlab</title>
<path d="M46.476 30.398c0.522-0.34 0.986-0.892 1.27-1.528 0.344-0.77 0.428-1.662 0.15-2.61l-2.532-7.498-4.864-14.968c-0.136-0.458-0.39-0.886-0.794-1.274-0.532-0.484-1.206-0.734-1.882-0.744-0.702-0.010-1.414 0.238-1.952 0.73-0.33 0.294-0.592 0.668-0.756 1.094-0.012 0.030-0.024 0.066-0.036 0.104l-4.434 13.636h-13.294l-4.414-13.546c-0.136-0.458-0.39-0.886-0.794-1.274-0.53-0.484-1.204-0.734-1.88-0.744-0.702-0.012-1.414 0.236-1.952 0.73-0.332 0.292-0.592 0.668-0.758 1.092-0.012 0.032-0.024 0.068-0.036 0.104l-4.882 15.024-2.44 7.56c-0.212 0.658-0.234 1.352-0.076 2.008 0.196 0.814 0.672 1.566 1.404 2.104l21.3 15.48c0.692 0.496 1.636 0.52 2.352 0zM44.006 27.248l-20.006 14.54-19.966-14.51 2.41-7.324 3.772-11.61 3.782 11.616c0.274 0.84 1.050 1.374 1.902 1.38h16.2c0.884 0 1.634-0.574 1.902-1.382l3.772-11.608 3.784 11.648z"></path>
</svg>
