<!-- Generated by IcoMoon.io -->
<svg version="1.1" xmlns="http://www.w3.org/2000/svg" width="48" height="48" viewBox="0 0 48 48">
<title>globe</title>
<path d="M33.902 22c-0.428-5.38-2.204-10.706-5.348-15.42 3.14 0.818 5.946 2.464 8.174 4.692 2.816 2.816 4.702 6.556 5.162 10.728zM28.558 41.418c2.966-4.452 4.874-9.706 5.338-15.418h7.994c-0.46 4.172-2.346 7.912-5.162 10.728-2.226 2.226-5.032 3.872-8.17 4.69zM14.098 26c0.428 5.38 2.204 10.706 5.348 15.42-3.14-0.818-5.946-2.464-8.174-4.692-2.816-2.816-4.702-6.556-5.162-10.728zM19.442 6.582c-2.964 4.452-4.872 9.706-5.338 15.418h-7.994c0.46-4.172 2.346-7.912 5.162-10.728 2.228-2.226 5.032-3.872 8.17-4.69zM24.008 2c0 0 0 0 0 0-6.088 0.002-11.588 2.466-15.564 6.444-3.98 3.978-6.444 9.482-6.444 15.556s2.464 11.578 6.444 15.556c3.976 3.978 9.476 6.442 15.548 6.444 0 0 0 0 0 0 6.088-0.002 11.586-2.466 15.564-6.444 3.98-3.978 6.444-9.482 6.444-15.556s-2.464-11.578-6.444-15.556c-3.976-3.978-9.476-6.442-15.548-6.444zM29.892 26c-0.504 5.576-2.632 10.72-5.89 14.902-3.458-4.442-5.412-9.636-5.89-14.902zM23.998 7.098c3.458 4.442 5.412 9.636 5.89 14.902h-11.78c0.504-5.576 2.632-10.72 5.89-14.902z"></path>
</svg>
