<!-- Generated by IcoMoon.io -->
<svg version="1.1" xmlns="http://www.w3.org/2000/svg" width="48" height="48" viewBox="0 0 48 48">
<title>grid</title>
<path d="M6 4c-1.104 0-2 0.896-2 2v14c0 1.104 0.896 2 2 2h14c1.104 0 2-0.896 2-2v-14c0-1.104-0.896-2-2-2zM8 8h10v10h-10zM28 4c-1.104 0-2 0.896-2 2v14c0 1.104 0.896 2 2 2h14c1.104 0 2-0.896 2-2v-14c0-1.104-0.896-2-2-2zM30 8h10v10h-10zM28 26c-1.104 0-2 0.896-2 2v14c0 1.104 0.896 2 2 2h14c1.104 0 2-0.896 2-2v-14c0-1.104-0.896-2-2-2zM30 30h10v10h-10zM6 26c-1.104 0-2 0.896-2 2v14c0 1.104 0.896 2 2 2h14c1.104 0 2-0.896 2-2v-14c0-1.104-0.896-2-2-2zM8 30h10v10h-10z"></path>
</svg>
