<!-- Generated by IcoMoon.io -->
<svg version="1.1" xmlns="http://www.w3.org/2000/svg" width="48" height="48" viewBox="0 0 48 48">
<title>hard-drive</title>
<path d="M42 26v10c0 0.552-0.222 1.050-0.586 1.414s-0.862 0.586-1.414 0.586h-32c-0.552 0-1.050-0.222-1.414-0.586s-0.586-0.862-0.586-1.414v-10zM12.688 11.116c0.132-0.262 0.32-0.492 0.544-0.674 0.344-0.278 0.774-0.442 1.248-0.442h19.026c0.3 0.002 0.59 0.068 0.852 0.188 0.402 0.184 0.74 0.498 0.954 0.928l5.45 10.884h-33.524zM9.112 9.324l-6.882 13.744c-0.062 0.118-0.112 0.242-0.15 0.374-0.056 0.188-0.082 0.376-0.080 0.558v12c0 1.656 0.674 3.16 1.758 4.242s2.586 1.758 4.242 1.758h32c1.656 0 3.16-0.674 4.242-1.758s1.758-2.586 1.758-4.242v-12c0-0.302-0.066-0.586-0.182-0.834-0.010-0.020-0.020-0.042-0.030-0.062l-0.018-0.036-6.882-13.744c-0.63-1.268-1.658-2.222-2.866-2.774-0.776-0.354-1.624-0.544-2.488-0.55h-19.054c-1.422 0-2.734 0.498-3.766 1.334-0.662 0.536-1.21 1.212-1.602 1.99zM12 34c1.104 0 2-0.896 2-2s-0.896-2-2-2-2 0.896-2 2 0.896 2 2 2zM20 34c1.104 0 2-0.896 2-2s-0.896-2-2-2-2 0.896-2 2 0.896 2 2 2z"></path>
</svg>
