<!-- Generated by IcoMoon.io -->
<svg version="1.1" xmlns="http://www.w3.org/2000/svg" width="48" height="48" viewBox="0 0 48 48">
<title>hash</title>
<path d="M28.432 20l-0.888 8h-7.976l0.888-8zM30.012 5.78l-1.136 10.22h-7.976l1.086-9.78c0.122-1.098-0.67-2.086-1.766-2.208s-2.086 0.67-2.208 1.768l-1.136 10.22h-8.876c-1.104 0-2 0.896-2 2s0.896 2 2 2h8.432l-0.888 8h-7.544c-1.104 0-2 0.896-2 2s0.896 2 2 2h7.098l-1.086 9.78c-0.122 1.098 0.67 2.086 1.766 2.208s2.086-0.67 2.208-1.766l1.138-10.222h7.976l-1.086 9.78c-0.122 1.098 0.67 2.086 1.766 2.208s2.086-0.67 2.208-1.766l1.136-10.222h8.876c1.104 0 2-0.896 2-2s-0.896-2-2-2h-8.432l0.888-8h7.544c1.104 0 2-0.896 2-2s-0.896-2-2-2h-7.098l1.086-9.78c0.122-1.098-0.67-2.086-1.766-2.208s-2.086 0.67-2.208 1.766z"></path>
</svg>
