<!-- Generated by IcoMoon.io -->
<svg version="1.1" xmlns="http://www.w3.org/2000/svg" width="48" height="48" viewBox="0 0 48 48">
<title>headphones</title>
<path d="M40 38c0 0.552-0.222 1.050-0.586 1.414s-0.862 0.586-1.414 0.586h-2c-0.552 0-1.050-0.222-1.414-0.586s-0.586-0.862-0.586-1.414v-6c0-0.552 0.222-1.050 0.586-1.414s0.862-0.586 1.414-0.586h4v6zM8 38v-8h4c0.552 0 1.050 0.222 1.414 0.586s0.586 0.862 0.586 1.414v6c0 0.552-0.222 1.050-0.586 1.414s-0.862 0.586-1.414 0.586h-2c-0.552 0-1.050-0.222-1.414-0.586s-0.586-0.862-0.586-1.414zM4 38c0 1.656 0.674 3.16 1.758 4.242s2.586 1.758 4.242 1.758h2c1.656 0 3.16-0.674 4.242-1.758s1.758-2.586 1.758-4.242v-6c0-1.656-0.674-3.16-1.758-4.242s-2.586-1.758-4.242-1.758h-4v-2c0-4.418 1.788-8.416 4.686-11.314s6.896-4.686 11.314-4.686 8.416 1.788 11.314 4.686 4.686 6.896 4.686 11.314v2h-4c-1.656 0-3.16 0.674-4.242 1.758s-1.758 2.586-1.758 4.242v6c0 1.656 0.674 3.16 1.758 4.242s2.586 1.758 4.242 1.758h2c1.656 0 3.16-0.674 4.242-1.758s1.758-2.586 1.758-4.242v-14c0-5.522-2.24-10.526-5.858-14.142s-8.62-5.858-14.142-5.858-10.526 2.24-14.142 5.858-5.858 8.62-5.858 14.142v12z"></path>
</svg>
