<!-- Generated by IcoMoon.io -->
<svg version="1.1" xmlns="http://www.w3.org/2000/svg" width="48" height="48" viewBox="0 0 48 48">
<title>heart</title>
<path d="M40.266 10.634c1.76 1.762 2.638 4.062 2.638 6.368s-0.88 4.606-2.638 6.364l-16.266 16.266-16.266-16.266c-1.758-1.758-2.636-4.058-2.636-6.366s0.878-4.608 2.636-6.366 4.058-2.636 6.366-2.636 4.608 0.878 6.366 2.636l2.12 2.12c0.782 0.782 2.048 0.782 2.828 0l2.124-2.124c1.758-1.758 4.058-2.636 6.364-2.634s4.606 0.88 6.364 2.638zM43.094 7.806c-2.538-2.538-5.868-3.808-9.192-3.81s-6.654 1.268-9.194 3.806l-0.708 0.71-0.706-0.706c-2.538-2.538-5.87-3.808-9.194-3.808s-6.656 1.27-9.194 3.808-3.808 5.87-3.808 9.194 1.27 6.656 3.808 9.194l17.68 17.68c0.782 0.782 2.048 0.782 2.828 0l17.68-17.68c2.538-2.538 3.808-5.868 3.81-9.192s-1.268-6.654-3.81-9.196z"></path>
</svg>
