<!-- Generated by IcoMoon.io -->
<svg version="1.1" xmlns="http://www.w3.org/2000/svg" width="48" height="48" viewBox="0 0 48 48">
<title>help-circle</title>
<path d="M46 24c0-6.074-2.464-11.578-6.444-15.556s-9.482-6.444-15.556-6.444-11.578 2.464-15.556 6.444-6.444 9.482-6.444 15.556 2.464 11.578 6.444 15.556 9.482 6.444 15.556 6.444 11.578-2.464 15.556-6.444 6.444-9.482 6.444-15.556zM42 24c0 4.972-2.012 9.468-5.272 12.728s-7.756 5.272-12.728 5.272-9.468-2.012-12.728-5.272-5.272-7.756-5.272-12.728 2.012-9.468 5.272-12.728 7.756-5.272 12.728-5.272 9.468 2.012 12.728 5.272 5.272 7.756 5.272 12.728zM20.066 18.664c0.366-1.042 1.118-1.836 2.044-2.28s2.014-0.534 3.056-0.166c0.916 0.322 1.638 0.94 2.1 1.718 0.366 0.614 0.568 1.33 0.572 2.074 0 0.31-0.078 0.618-0.234 0.928-0.16 0.32-0.406 0.65-0.736 0.98-1.418 1.418-3.662 2.184-3.662 2.184-1.048 0.35-1.614 1.482-1.264 2.53s1.482 1.614 2.53 1.264c0 0 3.088-1.012 5.226-3.15 0.558-0.558 1.090-1.228 1.486-2.020 0.4-0.8 0.656-1.716 0.656-2.738-0.008-1.462-0.408-2.874-1.134-4.098-0.926-1.556-2.38-2.804-4.21-3.448-2.084-0.732-4.27-0.55-6.114 0.334s-3.356 2.476-4.088 4.56c-0.368 1.042 0.18 2.184 1.222 2.55s2.184-0.182 2.55-1.222zM24 36c1.104 0 2-0.896 2-2s-0.896-2-2-2-2 0.896-2 2 0.896 2 2 2z"></path>
</svg>
