<!-- Generated by IcoMoon.io -->
<svg version="1.1" xmlns="http://www.w3.org/2000/svg" width="48" height="48" viewBox="0 0 48 48">
<title>hexagon</title>
<path d="M40 32c-0.002 0.242-0.050 0.492-0.14 0.724-0.16 0.412-0.45 0.768-0.852 1l-13.998 7.998c-0.224 0.128-0.464 0.21-0.71 0.248-0.436 0.068-0.89-0.006-1.308-0.248l-13.982-7.99c-0.222-0.13-0.414-0.296-0.57-0.49-0.278-0.342-0.44-0.77-0.44-1.242v-15.986c0.002-0.256 0.050-0.506 0.14-0.738 0.16-0.412 0.45-0.768 0.852-1l13.998-7.998c0.224-0.128 0.464-0.21 0.71-0.248 0.436-0.068 0.89 0.006 1.308 0.248l13.982 7.99c0.222 0.13 0.414 0.296 0.57 0.49 0.278 0.342 0.44 0.77 0.44 1.242zM44 32v-16c-0.002-1.42-0.496-2.726-1.328-3.756-0.46-0.572-1.024-1.056-1.662-1.43l-14.018-8.010c-1.22-0.704-2.6-0.93-3.908-0.728-0.726 0.114-1.43 0.358-2.074 0.726l-14.002 8.002c-1.236 0.714-2.12 1.794-2.598 3.028-0.266 0.684-0.404 1.414-0.41 2.154v16.014c0.002 1.42 0.496 2.726 1.328 3.756 0.46 0.572 1.024 1.056 1.662 1.43l14.018 8.010c1.22 0.704 2.6 0.93 3.908 0.728 0.726-0.114 1.43-0.358 2.074-0.726l14.002-8.002c1.236-0.714 2.12-1.794 2.598-3.028 0.266-0.684 0.404-1.414 0.41-2.168z"></path>
</svg>
