<!-- Generated by IcoMoon.io -->
<svg version="1.1" xmlns="http://www.w3.org/2000/svg" width="48" height="48" viewBox="0 0 48 48">
<title>home</title>
<path d="M4.772 16.422c-0.472 0.368-0.772 0.938-0.772 1.578v22c0 1.656 0.674 3.16 1.758 4.242s2.586 1.758 4.242 1.758h28c1.656 0 3.16-0.674 4.242-1.758s1.758-2.586 1.758-4.242v-22c-0.002-0.6-0.268-1.186-0.772-1.578l-18-14c-0.716-0.55-1.722-0.57-2.456 0zM32 42v-18c0-1.104-0.896-2-2-2h-12c-1.104 0-2 0.896-2 2v18h-6c-0.552 0-1.050-0.222-1.414-0.586s-0.586-0.862-0.586-1.414v-21.022l16-12.444 16 12.444v21.022c0 0.552-0.222 1.050-0.586 1.414s-0.862 0.586-1.414 0.586zM20 42v-16h8v16z"></path>
</svg>
