<!-- Generated by IcoMoon.io -->
<svg version="1.1" xmlns="http://www.w3.org/2000/svg" width="48" height="48" viewBox="0 0 48 48">
<title>image</title>
<path d="M10 4c-1.656 0-3.16 0.674-4.242 1.758s-1.758 2.586-1.758 4.242v28c0 1.656 0.674 3.16 1.758 4.242s2.586 1.758 4.242 1.758h28c1.656 0 3.16-0.674 4.242-1.758s1.758-2.586 1.758-4.242v-28c0-1.656-0.674-3.16-1.758-4.242s-2.586-1.758-4.242-1.758zM22 17c0-1.38-0.562-2.632-1.464-3.536s-2.156-1.464-3.536-1.464-2.632 0.562-3.536 1.464-1.464 2.156-1.464 3.536 0.562 2.632 1.464 3.536 2.156 1.464 3.536 1.464 2.632-0.562 3.536-1.464 1.464-2.156 1.464-3.536zM18 17c0 0.276-0.11 0.524-0.292 0.708s-0.432 0.292-0.708 0.292-0.524-0.11-0.708-0.292-0.292-0.432-0.292-0.708 0.11-0.524 0.292-0.708 0.432-0.292 0.708-0.292 0.524 0.11 0.708 0.292 0.292 0.432 0.292 0.708zM14.828 40l17.172-17.172 8 8v7.172c0 0.552-0.222 1.050-0.586 1.414s-0.862 0.586-1.414 0.586zM40 25.172l-6.586-6.586c-0.782-0.782-2.048-0.782-2.828 0l-21.288 21.288c-0.27-0.1-0.51-0.258-0.712-0.46-0.364-0.364-0.586-0.862-0.586-1.414v-28c0-0.552 0.222-1.050 0.586-1.414s0.862-0.586 1.414-0.586h28c0.552 0 1.050 0.222 1.414 0.586s0.586 0.862 0.586 1.414z"></path>
</svg>
