<!-- Generated by IcoMoon.io -->
<svg version="1.1" xmlns="http://www.w3.org/2000/svg" width="48" height="48" viewBox="0 0 48 48">
<title>instagram</title>
<path d="M14 2c-3.314 0-6.316 1.346-8.486 3.514s-3.514 5.172-3.514 8.486v20c0 3.314 1.346 6.316 3.514 8.486s5.172 3.514 8.486 3.514h20c3.314 0 6.316-1.346 8.486-3.514s3.514-5.172 3.514-8.486v-20c0-3.314-1.346-6.316-3.514-8.486s-5.172-3.514-8.486-3.514zM14 6h20c2.21 0 4.206 0.894 5.656 2.344s2.344 3.446 2.344 5.656v20c0 2.21-0.894 4.206-2.344 5.656s-3.446 2.344-5.656 2.344h-20c-2.21 0-4.206-0.894-5.656-2.344s-2.344-3.446-2.344-5.656v-20c0-2.21 0.894-4.206 2.344-5.656s3.446-2.344 5.656-2.344zM33.978 22.446c-0.3-1.944-1.142-3.714-2.388-5.134-1.508-1.722-3.608-2.93-6.018-3.288-0.928-0.148-1.94-0.154-2.954-0.004-2.732 0.404-5.042 1.882-6.564 3.934s-2.266 4.694-1.86 7.424 1.882 5.042 3.934 6.564 4.694 2.266 7.424 1.86 5.042-1.882 6.564-3.934 2.266-4.694 1.86-7.424zM30.022 23.034c0.244 1.64-0.2 3.218-1.116 4.454s-2.3 2.118-3.938 2.36-3.218-0.2-4.454-1.116-2.118-2.3-2.36-3.938 0.2-3.218 1.116-4.454 2.3-2.118 3.938-2.36c0.626-0.092 1.23-0.084 1.74-0.004 1.48 0.22 2.732 0.94 3.636 1.972 0.75 0.856 1.26 1.926 1.44 3.086zM35 15c1.104 0 2-0.896 2-2s-0.896-2-2-2-2 0.896-2 2 0.896 2 2 2z"></path>
</svg>
