<!-- Generated by IcoMoon.io -->
<svg version="1.1" xmlns="http://www.w3.org/2000/svg" width="48" height="48" viewBox="0 0 48 48">
<title>key</title>
<path d="M40.586 2.586l-4 4c-0.782 0.782-0.782 2.048 0 2.828s2.048 0.782 2.828 0l4-4c0.782-0.782 0.782-2.048 0-2.828s-2.048-0.782-2.828 0zM24.184 21.796c-2.524-2.488-5.816-3.738-9.106-3.746-3.304-0.006-6.616 1.24-9.156 3.746-2.554 2.52-3.846 5.842-3.87 9.166s1.228 6.664 3.748 9.218c2.68 2.646 6.018 3.892 9.342 3.87s6.646-1.314 9.166-3.87 3.768-5.894 3.746-9.218-1.314-6.646-3.87-9.166zM21.376 24.644c1.77 1.746 2.664 4.040 2.678 6.346s-0.848 4.612-2.594 6.382-4.040 2.664-6.346 2.678-4.612-0.848-6.382-2.594c-1.832-1.854-2.694-4.16-2.678-6.466s0.91-4.6 2.678-6.346c1.758-1.734 4.046-2.598 6.338-2.592 2.282 0.004 4.558 0.87 6.304 2.592zM24.194 24.634l8.22-8.22c0.782-0.782 0.782-2.048 0-2.828s-2.048-0.782-2.828 0l-8.22 8.22c-0.782 0.782-0.782 2.048 0 2.828s2.048 0.782 2.828 0zM29.586 16.414l6 6c0.782 0.782 2.048 0.782 2.828 0l7-7c0.782-0.782 0.782-2.048 0-2.828l-6-6c-0.782-0.782-2.048-0.782-2.828 0s-0.782 2.048 0 2.828l4.586 4.586-4.172 4.172-4.586-4.586c-0.782-0.782-2.048-0.782-2.828 0s-0.782 2.048 0 2.828zM32.414 16.414l7-7c0.782-0.782 0.782-2.048 0-2.828s-2.048-0.782-2.828 0l-7 7c-0.782 0.782-0.782 2.048 0 2.828s2.048 0.782 2.828 0z"></path>
</svg>
