<!-- Generated by IcoMoon.io -->
<svg version="1.1" xmlns="http://www.w3.org/2000/svg" width="48" height="48" viewBox="0 0 48 48">
<title>layers</title>
<path d="M24 6.236l15.528 7.764-15.528 7.764-15.528-7.764zM23.106 2.212l-20 10c-0.988 0.494-1.388 1.694-0.894 2.682 0.202 0.406 0.522 0.712 0.894 0.894l20 10c0.584 0.292 1.24 0.272 1.788 0l20-10c0.988-0.494 1.388-1.696 0.894-2.684-0.202-0.404-0.524-0.71-0.894-0.894l-20-10c-0.584-0.292-1.24-0.272-1.788 0zM3.106 35.788l20 10c0.584 0.292 1.24 0.272 1.788 0l20-10c0.988-0.494 1.388-1.696 0.894-2.684s-1.696-1.388-2.684-0.894l-19.104 9.554-19.106-9.552c-0.988-0.494-2.19-0.094-2.684 0.894s-0.094 2.19 0.894 2.684zM3.106 25.788l20 10c0.584 0.292 1.24 0.272 1.788 0l20-10c0.988-0.494 1.388-1.696 0.894-2.684s-1.696-1.388-2.684-0.894l-19.104 9.554-19.106-9.552c-0.988-0.494-2.19-0.094-2.684 0.894s-0.094 2.19 0.894 2.684z"></path>
</svg>
