<!-- Generated by IcoMoon.io -->
<svg version="1.1" xmlns="http://www.w3.org/2000/svg" width="48" height="48" viewBox="0 0 48 48">
<title>life-buoy</title>
<path d="M46 24c0-6.074-2.464-11.578-6.444-15.556s-9.482-6.444-15.556-6.444-11.578 2.464-15.556 6.444-6.444 9.482-6.444 15.556 2.464 11.578 6.444 15.556 9.482 6.444 15.556 6.444 11.578-2.464 15.556-6.444 6.444-9.482 6.444-15.556zM30 24c0 1.658-0.67 3.154-1.758 4.242s-2.584 1.758-4.242 1.758-3.154-0.67-4.242-1.758-1.758-2.584-1.758-4.242 0.67-3.154 1.758-4.242 2.584-1.758 4.242-1.758 3.154 0.67 4.242 1.758 1.758 2.584 1.758 4.242zM35.236 9.936l-5.72 5.72c0 0 0 0 0 0-1.582-1.046-3.478-1.656-5.516-1.656s-3.934 0.61-5.514 1.658l-5.72-5.72c3.078-2.466 6.984-3.938 11.234-3.938s8.156 1.472 11.236 3.936zM38.064 12.764c2.464 3.080 3.936 6.986 3.936 11.236s-1.472 8.156-3.936 11.236l-5.72-5.72c1.046-1.582 1.656-3.478 1.656-5.516s-0.61-3.934-1.658-5.514zM15.658 29.514l-5.72 5.72c-2.466-3.078-3.938-6.984-3.938-11.234s1.472-8.156 3.936-11.236l5.72 5.72c-1.046 1.582-1.656 3.478-1.656 5.516s0.61 3.934 1.658 5.514zM12.764 38.064l5.72-5.72c1.582 1.046 3.478 1.656 5.516 1.656s3.934-0.61 5.514-1.658l5.72 5.72c-3.078 2.466-6.984 3.938-11.234 3.938s-8.156-1.472-11.236-3.936z"></path>
</svg>
