<!-- Generated by IcoMoon.io -->
<svg version="1.1" xmlns="http://www.w3.org/2000/svg" width="48" height="48" viewBox="0 0 48 48">
<title>link</title>
<path d="M18.398 27.198c1.984 2.654 4.86 4.252 7.896 4.69s6.246-0.284 8.9-2.268c0.478-0.358 0.93-0.75 1.31-1.136l5.99-5.99c2.326-2.408 3.444-5.502 3.392-8.57s-1.278-6.122-3.662-8.422c-2.344-2.264-5.376-3.384-8.398-3.366-2.984 0.016-5.968 1.142-8.274 3.366l-3.462 3.442c-0.784 0.778-0.788 2.046-0.008 2.828s2.046 0.788 2.828 0.008l3.418-3.398c1.54-1.484 3.526-2.234 5.52-2.246 2.018-0.012 4.032 0.734 5.596 2.244 1.59 1.536 2.406 3.566 2.442 5.616s-0.71 4.108-2.22 5.672l-6.010 6.010c-0.228 0.232-0.526 0.494-0.856 0.74-1.77 1.324-3.904 1.804-5.934 1.512s-3.942-1.356-5.264-3.126c-0.662-0.884-1.914-1.066-2.8-0.404s-1.066 1.914-0.404 2.8zM29.602 20.802c-1.984-2.654-4.86-4.252-7.896-4.69s-6.248 0.284-8.902 2.268c-0.478 0.358-0.928 0.75-1.31 1.136l-5.99 5.99c-2.326 2.408-3.444 5.502-3.392 8.57s1.278 6.122 3.662 8.422c2.344 2.264 5.376 3.384 8.398 3.366 2.984-0.016 5.968-1.142 8.274-3.366l3.446-3.446c0.782-0.782 0.782-2.048 0-2.828s-2.048-0.782-2.828 0l-3.392 3.396c-1.54 1.484-3.526 2.234-5.52 2.246-2.018 0.012-4.032-0.734-5.596-2.244-1.59-1.536-2.406-3.566-2.442-5.616s0.71-4.108 2.22-5.672l6.010-6.010c0.228-0.232 0.526-0.494 0.856-0.74 1.77-1.324 3.904-1.804 5.934-1.512s3.942 1.356 5.264 3.126c0.662 0.884 1.914 1.066 2.8 0.404s1.066-1.914 0.404-2.8z"></path>
</svg>
