<!-- Generated by IcoMoon.io -->
<svg version="1.1" xmlns="http://www.w3.org/2000/svg" width="48" height="48" viewBox="0 0 48 48">
<title>linkedin</title>
<path d="M32 14c-3.866 0-7.368 1.57-9.9 4.1s-4.1 6.034-4.1 9.9v14c0 1.104 0.896 2 2 2h8c1.104 0 2-0.896 2-2v-14c0-0.552 0.222-1.050 0.586-1.414s0.862-0.586 1.414-0.586 1.050 0.222 1.414 0.586 0.586 0.862 0.586 1.414v14c0 1.104 0.896 2 2 2h8c1.104 0 2-0.896 2-2v-14c0-3.866-1.57-7.368-4.1-9.9s-6.034-4.1-9.9-4.1zM32 18c2.762 0 5.26 1.118 7.072 2.928s2.928 4.31 2.928 7.072v12h-4v-12c0-1.656-0.674-3.16-1.758-4.242s-2.586-1.758-4.242-1.758-3.16 0.674-4.242 1.758-1.758 2.586-1.758 4.242v12h-4v-12c0-2.762 1.118-5.26 2.928-7.072s4.31-2.928 7.072-2.928zM4 16c-1.104 0-2 0.896-2 2v24c0 1.104 0.896 2 2 2h8c1.104 0 2-0.896 2-2v-24c0-1.104-0.896-2-2-2zM6 20h4v20h-4zM14 8c0-1.656-0.674-3.16-1.758-4.242s-2.586-1.758-4.242-1.758-3.16 0.674-4.242 1.758-1.758 2.586-1.758 4.242 0.674 3.16 1.758 4.242 2.586 1.758 4.242 1.758 3.16-0.674 4.242-1.758 1.758-2.586 1.758-4.242zM10 8c0 0.552-0.222 1.050-0.586 1.414s-0.862 0.586-1.414 0.586-1.050-0.222-1.414-0.586-0.586-0.862-0.586-1.414 0.222-1.050 0.586-1.414 0.862-0.586 1.414-0.586 1.050 0.222 1.414 0.586 0.586 0.862 0.586 1.414z"></path>
</svg>
