<!-- Generated by IcoMoon.io -->
<svg version="1.1" xmlns="http://www.w3.org/2000/svg" width="48" height="48" viewBox="0 0 48 48">
<title>link-2</title>
<path d="M30 16h6c2.21 0 4.206 0.894 5.656 2.344s2.344 3.446 2.344 5.656-0.894 4.206-2.344 5.656-3.446 2.344-5.656 2.344h-6c-1.104 0-2 0.896-2 2s0.896 2 2 2h6c3.314 0 6.316-1.346 8.486-3.514s3.514-5.172 3.514-8.486-1.346-6.316-3.514-8.486-5.172-3.514-8.486-3.514h-6c-1.104 0-2 0.896-2 2s0.896 2 2 2zM18 32h-6c-2.21 0-4.206-0.894-5.656-2.344s-2.344-3.446-2.344-5.656 0.894-4.206 2.344-5.656 3.446-2.344 5.656-2.344h6c1.104 0 2-0.896 2-2s-0.896-2-2-2h-6c-3.314 0-6.316 1.346-8.486 3.514s-3.514 5.172-3.514 8.486 1.346 6.316 3.514 8.486 5.172 3.514 8.486 3.514h6c1.104 0 2-0.896 2-2s-0.896-2-2-2zM16 26h16c1.104 0 2-0.896 2-2s-0.896-2-2-2h-16c-1.104 0-2 0.896-2 2s0.896 2 2 2z"></path>
</svg>
