<!-- Generated by IcoMoon.io -->
<svg version="1.1" xmlns="http://www.w3.org/2000/svg" width="48" height="48" viewBox="0 0 48 48">
<title>list</title>
<path d="M16 14h26c1.104 0 2-0.896 2-2s-0.896-2-2-2h-26c-1.104 0-2 0.896-2 2s0.896 2 2 2zM16 26h26c1.104 0 2-0.896 2-2s-0.896-2-2-2h-26c-1.104 0-2 0.896-2 2s0.896 2 2 2zM16 38h26c1.104 0 2-0.896 2-2s-0.896-2-2-2h-26c-1.104 0-2 0.896-2 2s0.896 2 2 2zM6 14c1.104 0 2-0.896 2-2s-0.896-2-2-2-2 0.896-2 2 0.896 2 2 2zM6 26c1.104 0 2-0.896 2-2s-0.896-2-2-2-2 0.896-2 2 0.896 2 2 2zM6 38c1.104 0 2-0.896 2-2s-0.896-2-2-2-2 0.896-2 2 0.896 2 2 2z"></path>
</svg>
