<!-- Generated by IcoMoon.io -->
<svg version="1.1" xmlns="http://www.w3.org/2000/svg" width="48" height="48" viewBox="0 0 48 48">
<title>loader</title>
<path d="M22 4v8c0 1.104 0.896 2 2 2s2-0.896 2-2v-8c0-1.104-0.896-2-2-2s-2 0.896-2 2zM22 36v8c0 1.104 0.896 2 2 2s2-0.896 2-2v-8c0-1.104-0.896-2-2-2s-2 0.896-2 2zM8.446 11.274l5.66 5.66c0.782 0.782 2.048 0.782 2.828 0s0.782-2.048 0-2.828l-5.66-5.66c-0.782-0.782-2.048-0.782-2.828 0s-0.782 2.048 0 2.828zM31.066 33.894l5.66 5.66c0.782 0.782 2.048 0.782 2.828 0s0.782-2.048 0-2.828l-5.66-5.66c-0.782-0.782-2.048-0.782-2.828 0s-0.782 2.048 0 2.828zM4 26h8c1.104 0 2-0.896 2-2s-0.896-2-2-2h-8c-1.104 0-2 0.896-2 2s0.896 2 2 2zM36 26h8c1.104 0 2-0.896 2-2s-0.896-2-2-2h-8c-1.104 0-2 0.896-2 2s0.896 2 2 2zM11.274 39.554l5.66-5.66c0.782-0.782 0.782-2.048 0-2.828s-2.048-0.782-2.828 0l-5.66 5.66c-0.782 0.782-0.782 2.048 0 2.828s2.048 0.782 2.828 0zM33.894 16.934l5.66-5.66c0.782-0.782 0.782-2.048 0-2.828s-2.048-0.782-2.828 0l-5.66 5.66c-0.782 0.782-0.782 2.048 0 2.828s2.048 0.782 2.828 0z"></path>
</svg>
