<!-- Generated by IcoMoon.io -->
<svg version="1.1" xmlns="http://www.w3.org/2000/svg" width="48" height="48" viewBox="0 0 48 48">
<title>lock</title>
<path d="M10 24h28c0.552 0 1.050 0.222 1.414 0.586s0.586 0.862 0.586 1.414v14c0 0.552-0.222 1.050-0.586 1.414s-0.862 0.586-1.414 0.586h-28c-0.552 0-1.050-0.222-1.414-0.586s-0.586-0.862-0.586-1.414v-14c0-0.552 0.222-1.050 0.586-1.414s0.862-0.586 1.414-0.586zM36 20v-6c0-3.314-1.346-6.316-3.514-8.486s-5.172-3.514-8.486-3.514-6.316 1.346-8.486 3.514-3.514 5.172-3.514 8.486v6h-2c-1.656 0-3.16 0.674-4.242 1.758s-1.758 2.586-1.758 4.242v14c0 1.656 0.674 3.16 1.758 4.242s2.586 1.758 4.242 1.758h28c1.656 0 3.16-0.674 4.242-1.758s1.758-2.586 1.758-4.242v-14c0-1.656-0.674-3.16-1.758-4.242s-2.586-1.758-4.242-1.758zM16 20v-6c0-2.21 0.894-4.206 2.344-5.656s3.446-2.344 5.656-2.344 4.206 0.894 5.656 2.344 2.344 3.446 2.344 5.656v6z"></path>
</svg>
