<!-- Generated by IcoMoon.io -->
<svg version="1.1" xmlns="http://www.w3.org/2000/svg" width="48" height="48" viewBox="0 0 48 48">
<title>log-in</title>
<path d="M30 8h8c0.552 0 1.050 0.222 1.414 0.586s0.586 0.862 0.586 1.414v28c0 0.552-0.222 1.050-0.586 1.414s-0.862 0.586-1.414 0.586h-8c-1.104 0-2 0.896-2 2s0.896 2 2 2h8c1.656 0 3.16-0.674 4.242-1.758s1.758-2.586 1.758-4.242v-28c0-1.656-0.674-3.16-1.758-4.242s-2.586-1.758-4.242-1.758h-8c-1.104 0-2 0.896-2 2s0.896 2 2 2zM25.172 22h-19.172c-1.104 0-2 0.896-2 2s0.896 2 2 2h19.172l-6.586 6.586c-0.782 0.782-0.782 2.048 0 2.828s2.048 0.782 2.828 0l10-10c0.192-0.192 0.336-0.412 0.434-0.648s0.152-0.494 0.152-0.766c0-0.26-0.050-0.522-0.152-0.766-0.098-0.236-0.242-0.456-0.434-0.648l-10-10c-0.782-0.782-2.048-0.782-2.828 0s-0.782 2.048 0 2.828z"></path>
</svg>
