<!-- Generated by IcoMoon.io -->
<svg version="1.1" xmlns="http://www.w3.org/2000/svg" width="48" height="48" viewBox="0 0 48 48">
<title>mail</title>
<path d="M6 15.842l16.854 11.798c0.68 0.47 1.59 0.492 2.294 0l16.852-11.798v20.158c0 0.544-0.22 1.042-0.59 1.41s-0.866 0.59-1.41 0.59h-32c-0.544 0-1.042-0.22-1.41-0.59s-0.59-0.866-0.59-1.41zM2 11.966c0 0.020 0 0.040 0 0.060v23.974c0 1.656 0.68 3.158 1.76 4.24s2.584 1.76 4.24 1.76h32c1.656 0 3.158-0.68 4.24-1.76s1.76-2.584 1.76-4.24v-23.976c0-0.020 0-0.040 0-0.060-0.010-1.642-0.686-3.13-1.76-4.204-1.082-1.080-2.584-1.76-4.24-1.76h-32c-1.656 0-3.158 0.68-4.24 1.76-1.074 1.074-1.75 2.562-1.76 4.206zM41.788 11.108l-17.788 12.45-17.788-12.45c0.096-0.192 0.224-0.366 0.376-0.518 0.37-0.37 0.868-0.59 1.412-0.59h32c0.544 0 1.042 0.22 1.41 0.59 0.152 0.152 0.28 0.328 0.376 0.518z"></path>
</svg>
