<!-- Generated by IcoMoon.io -->
<svg version="1.1" xmlns="http://www.w3.org/2000/svg" width="48" height="48" viewBox="0 0 48 48">
<title>map-pin</title>
<path d="M44 20c0-5.522-2.24-10.526-5.858-14.142s-8.62-5.858-14.142-5.858-10.526 2.24-14.142 5.858-5.858 8.62-5.858 14.142c0 1.138 0.106 2.256 0.3 3.352 0.548 3.096 1.798 6.008 3.364 8.64 5.464 9.182 15.226 15.672 15.226 15.672 0.662 0.434 1.53 0.458 2.218 0 0 0 9.764-6.49 15.226-15.672 1.566-2.632 2.816-5.544 3.364-8.64 0.196-1.096 0.302-2.214 0.302-3.352zM40 20c0 0.888-0.082 1.774-0.238 2.656-0.442 2.5-1.474 4.956-2.864 7.292-3.824 6.428-10.072 11.494-12.738 13.48-2.796-1.832-9.176-6.954-13.060-13.48-1.39-2.336-2.422-4.792-2.864-7.292-0.154-0.882-0.236-1.768-0.236-2.656 0-4.418 1.788-8.416 4.686-11.314s6.896-4.686 11.314-4.686 8.416 1.788 11.314 4.686 4.686 6.896 4.686 11.314zM32 20c0-2.208-0.898-4.212-2.344-5.656s-3.448-2.344-5.656-2.344-4.212 0.898-5.656 2.344-2.344 3.448-2.344 5.656 0.898 4.212 2.344 5.656 3.448 2.344 5.656 2.344 4.212-0.898 5.656-2.344 2.344-3.448 2.344-5.656zM28 20c0 1.106-0.446 2.102-1.172 2.828s-1.722 1.172-2.828 1.172-2.102-0.446-2.828-1.172-1.172-1.722-1.172-2.828 0.446-2.102 1.172-2.828 1.722-1.172 2.828-1.172 2.102 0.446 2.828 1.172 1.172 1.722 1.172 2.828z"></path>
</svg>
