<!-- Generated by IcoMoon.io -->
<svg version="1.1" xmlns="http://www.w3.org/2000/svg" width="48" height="48" viewBox="0 0 48 48">
<title>map</title>
<path d="M14 7.446v27.394l-10 5.714v-27.394zM34 40.554v-27.394l10-5.714v27.392zM31.070 45.77c0.164 0.086 0.34 0.15 0.526 0.188 0.066 0.014 0.134 0.024 0.202 0.030s0.136 0.010 0.204 0.010c-0.002 0.002-0.002 0.002-0.002 0.002s0 0 0.002 0c0.346 0 0.688-0.092 0.992-0.264l0.030-0.018 13.97-7.982c0.64-0.366 1.002-1.036 1.006-1.736v-32c0-1.104-0.896-2-2-2-0.366 0-0.708 0.098-0.992 0.264l-13.070 7.468-15.006-7.504c-0.166-0.084-0.342-0.15-0.528-0.188-0.068-0.014-0.134-0.024-0.202-0.030s-0.136-0.010-0.204-0.010c0.002 0 0.002 0 0.002 0s0 0-0.002 0c-0.346 0-0.688 0.092-0.99 0.264l-0.030 0.016-13.97 7.984c-0.642 0.366-1.004 1.036-1.008 1.736v32c0 1.104 0.896 2 2 2 0.366 0 0.708-0.098 0.992-0.264l13.070-7.468zM30 13.236v27.528l-12-6v-27.528z"></path>
</svg>
