<!-- Generated by IcoMoon.io -->
<svg version="1.1" xmlns="http://www.w3.org/2000/svg" width="48" height="48" viewBox="0 0 48 48">
<title>maximize-2</title>
<path d="M37.172 8l-10.586 10.586c-0.782 0.782-0.782 2.048 0 2.828s2.048 0.782 2.828 0l10.586-10.586v7.172c0 1.104 0.896 2 2 2s2-0.896 2-2v-12c0-0.272-0.054-0.53-0.152-0.766s-0.242-0.456-0.432-0.646c-0.002-0.002-0.002-0.002-0.004-0.004-0.184-0.184-0.404-0.332-0.646-0.432-0.236-0.098-0.494-0.152-0.766-0.152h-12c-1.104 0-2 0.896-2 2s0.896 2 2 2zM10.828 40l10.586-10.586c0.782-0.782 0.782-2.048 0-2.828s-2.048-0.782-2.828 0l-10.586 10.586v-7.172c0-1.104-0.896-2-2-2s-2 0.896-2 2v12c0 1.104 0.896 2 2 2h12c1.104 0 2-0.896 2-2s-0.896-2-2-2z"></path>
</svg>
