<!-- Generated by IcoMoon.io -->
<svg version="1.1" xmlns="http://www.w3.org/2000/svg" width="48" height="48" viewBox="0 0 48 48">
<title>message-circle</title>
<path d="M44 22.994v-0.994c0-0.034-0.002-0.076-0.004-0.116-0.272-4.676-2.226-8.922-5.284-12.102-3.204-3.334-7.628-5.504-12.602-5.778-0.032-0.002-0.072-0.004-0.11-0.004h-0.978c-2.81-0.032-5.764 0.62-8.528 2.016-2.446 1.242-4.582 2.976-6.278 5.070-2.644 3.268-4.214 7.41-4.216 11.892-0.028 2.55 0.506 5.22 1.648 7.754l-3.544 10.634c-0.132 0.392-0.144 0.836 0 1.264 0.35 1.048 1.482 1.614 2.53 1.264l10.628-3.542c2.32 1.054 4.968 1.652 7.752 1.646 2.744-0.018 5.428-0.616 7.882-1.732 3.824-1.742 7.080-4.746 9.082-8.75 1.288-2.498 2.030-5.43 2.022-8.522zM40 23.006c0.006 2.45-0.584 4.75-1.578 6.678-1.602 3.204-4.164 5.57-7.184 6.944-1.94 0.884-4.070 1.358-6.252 1.372-2.442 0.006-4.742-0.584-6.67-1.578-0.498-0.258-1.056-0.284-1.55-0.12l-7.606 2.536 2.536-7.606c0.176-0.526 0.12-1.074-0.112-1.534-1.104-2.188-1.608-4.508-1.584-6.676 0.002-3.578 1.238-6.84 3.326-9.418 1.342-1.658 3.036-3.034 4.98-4.020 2.184-1.104 4.504-1.608 6.672-1.584h0.912c3.924 0.214 7.408 1.922 9.938 4.554 2.404 2.502 3.944 5.832 4.172 9.506z"></path>
</svg>
