<!-- Generated by IcoMoon.io -->
<svg version="1.1" xmlns="http://www.w3.org/2000/svg" width="48" height="48" viewBox="0 0 48 48">
<title>message-square</title>
<path d="M44 30v-20c0-1.656-0.674-3.16-1.758-4.242s-2.586-1.758-4.242-1.758h-28c-1.656 0-3.16 0.674-4.242 1.758s-1.758 2.586-1.758 4.242v32c0 0.512 0.196 1.024 0.586 1.414 0.782 0.782 2.048 0.782 2.828 0l7.414-7.414h23.172c1.656 0 3.16-0.674 4.242-1.758s1.758-2.586 1.758-4.242zM40 30c0 0.552-0.222 1.050-0.586 1.414s-0.862 0.586-1.414 0.586h-24c-0.552 0-1.052 0.224-1.414 0.586l-4.586 4.586v-27.172c0-0.552 0.222-1.050 0.586-1.414s0.862-0.586 1.414-0.586h28c0.552 0 1.050 0.222 1.414 0.586s0.586 0.862 0.586 1.414z"></path>
</svg>
