<!-- Generated by IcoMoon.io -->
<svg version="1.1" xmlns="http://www.w3.org/2000/svg" width="48" height="48" viewBox="0 0 48 48">
<title>mic-off</title>
<path d="M25.032 27.86c-0.328 0.088-0.672 0.134-1.028 0.134-1.11-0.002-2.106-0.446-2.83-1.17-0.726-0.724-1.174-1.72-1.174-2.824v-1.172zM32 18.68v-10.68c0.002-2.206-0.894-4.21-2.338-5.658s-3.446-2.346-5.654-2.348c-2.028-0.002-3.886 0.754-5.298 2.004-1.272 1.126-2.184 2.654-2.548 4.394-0.226 1.082 0.468 2.14 1.55 2.366s2.14-0.468 2.366-1.55c0.184-0.88 0.644-1.65 1.282-2.216 0.7-0.62 1.612-0.994 2.616-0.998 1.142 0.006 2.132 0.452 2.854 1.174 0.726 0.728 1.172 1.724 1.17 2.832v10.68c0 1.104 0.896 2 2 2s2-0.896 2-2zM36 20v4c0 0.752-0.070 1.48-0.186 2.090-0.204 1.086 0.51 2.132 1.596 2.336s2.132-0.51 2.336-1.596c0.164-0.868 0.254-1.844 0.254-2.83v-4c0-1.104-0.896-2-2-2s-2 0.896-2 2zM16 48h16c1.104 0 2-0.896 2-2s-0.896-2-2-2h-6v-4.048c2.892-0.378 5.582-1.464 7.868-3.254l10.718 10.718c0.782 0.782 2.048 0.782 2.828 0s0.782-2.048 0-2.828l-11.676-11.676c-0.090-0.158-0.202-0.306-0.338-0.438-0.126-0.124-0.264-0.226-0.41-0.31l-31.576-31.578c-0.782-0.782-2.048-0.782-2.828 0s-0.782 2.048 0 2.828l15.414 15.414v5.172c0.002 2.21 0.902 4.212 2.348 5.656s3.45 2.34 5.658 2.338c1.478-0.002 2.866-0.404 4.054-1.106l2.954 2.954c-1.918 1.386-4.156 2.136-6.424 2.246-0.188-0.058-0.386-0.088-0.59-0.088-0.206 0-0.402 0.030-0.59 0.088-2.834-0.138-5.624-1.274-7.81-3.414-2.306-2.258-3.506-5.216-3.596-8.212-0.004-0.224-0.004-0.448-0.004-0.448v-4.014c0-1.104-0.896-2-2-2s-2 0.896-2 2v3.986c0 0.298 0.006 0.596 0.006 0.596 0.12 3.988 1.722 7.938 4.796 10.95 2.598 2.546 5.848 4.026 9.198 4.446v4.022h-6c-1.104 0-2 0.896-2 2s0.896 2 2 2z"></path>
</svg>
