<!-- Generated by IcoMoon.io -->
<svg version="1.1" xmlns="http://www.w3.org/2000/svg" width="48" height="48" viewBox="0 0 48 48">
<title>mic</title>
<path d="M24 4c1.106 0 2.102 0.446 2.828 1.172s1.172 1.722 1.172 2.828v16c0 1.106-0.446 2.102-1.172 2.828s-1.722 1.172-2.828 1.172-2.102-0.446-2.828-1.172-1.172-1.722-1.172-2.828v-16c0-1.106 0.446-2.102 1.172-2.828s1.722-1.172 2.828-1.172zM24 0c-2.208 0-4.212 0.898-5.656 2.344s-2.344 3.448-2.344 5.656v16c0 2.208 0.898 4.212 2.344 5.656s3.448 2.344 5.656 2.344 4.212-0.898 5.656-2.344 2.344-3.448 2.344-5.656v-16c0-2.208-0.898-4.212-2.344-5.656s-3.448-2.344-5.656-2.344zM16 48h16c1.104 0 2-0.896 2-2s-0.896-2-2-2h-6v-4.124c3.618-0.452 6.864-2.112 9.314-4.562 2.892-2.894 4.686-6.896 4.686-11.314v-4c0-1.104-0.896-2-2-2s-2 0.896-2 2v4c0 3.314-1.34 6.312-3.514 8.486s-5.172 3.514-8.486 3.514-6.312-1.34-8.486-3.514-3.514-5.172-3.514-8.486v-4c0-1.104-0.896-2-2-2s-2 0.896-2 2v4c0 4.418 1.794 8.42 4.686 11.314 2.45 2.45 5.694 4.11 9.314 4.562v4.124h-6c-1.104 0-2 0.896-2 2s0.896 2 2 2z"></path>
</svg>
