<!-- Generated by IcoMoon.io -->
<svg version="1.1" xmlns="http://www.w3.org/2000/svg" width="48" height="48" viewBox="0 0 48 48">
<title>minimize</title>
<path d="M14 6v6c0 0.552-0.222 1.050-0.586 1.414s-0.862 0.586-1.414 0.586h-6c-1.104 0-2 0.896-2 2s0.896 2 2 2h6c1.656 0 3.16-0.674 4.242-1.758s1.758-2.586 1.758-4.242v-6c0-1.104-0.896-2-2-2s-2 0.896-2 2zM42 14h-6c-0.552 0-1.050-0.222-1.414-0.586s-0.586-0.862-0.586-1.414v-6c0-1.104-0.896-2-2-2s-2 0.896-2 2v6c0 1.656 0.674 3.16 1.758 4.242s2.586 1.758 4.242 1.758h6c1.104 0 2-0.896 2-2s-0.896-2-2-2zM34 42v-6c0-0.552 0.222-1.050 0.586-1.414s0.862-0.586 1.414-0.586h6c1.104 0 2-0.896 2-2s-0.896-2-2-2h-6c-1.656 0-3.16 0.674-4.242 1.758s-1.758 2.586-1.758 4.242v6c0 1.104 0.896 2 2 2s2-0.896 2-2zM6 34h6c0.552 0 1.050 0.222 1.414 0.586s0.586 0.862 0.586 1.414v6c0 1.104 0.896 2 2 2s2-0.896 2-2v-6c0-1.656-0.674-3.16-1.758-4.242s-2.586-1.758-4.242-1.758h-6c-1.104 0-2 0.896-2 2s0.896 2 2 2z"></path>
</svg>
