<!-- Generated by IcoMoon.io -->
<svg version="1.1" xmlns="http://www.w3.org/2000/svg" width="48" height="48" viewBox="0 0 48 48">
<title>moon</title>
<path d="M43.992 25.764c0.044-0.466-0.076-0.952-0.376-1.362-0.65-0.892-1.902-1.088-2.794-0.438-1.9 1.386-4.12 2.172-6.376 2.324-2.736 0.184-5.53-0.566-7.9-2.316-2.666-1.97-4.278-4.83-4.734-7.87s0.248-6.248 2.218-8.912c0.284-0.382 0.432-0.87 0.382-1.382-0.106-1.1-1.084-1.904-2.184-1.796-4.516 0.44-8.628 2.36-11.79 5.302-3.472 3.23-5.804 7.694-6.274 12.772-0.508 5.498 1.262 10.686 4.532 14.622s8.044 6.626 13.544 7.134 10.686-1.262 14.622-4.532 6.626-8.044 7.134-13.544zM39.134 29.348c-0.98 2.726-2.67 5.086-4.832 6.882-3.152 2.618-7.296 4.032-11.696 3.626s-8.216-2.556-10.834-5.708-4.032-7.296-3.626-11.696c0.374-4.064 2.234-7.628 5.014-10.212 1.564-1.456 3.42-2.6 5.462-3.344-0.912 2.528-1.154 5.212-0.768 7.798 0.606 4.046 2.76 7.868 6.312 10.494 3.156 2.334 6.896 3.336 10.544 3.090 1.504-0.1 2.992-0.414 4.42-0.93z"></path>
</svg>
