<!-- Generated by IcoMoon.io -->
<svg version="1.1" xmlns="http://www.w3.org/2000/svg" width="48" height="48" viewBox="0 0 48 48">
<title>more-vertical</title>
<path d="M28 24c0-1.104-0.45-2.106-1.172-2.828s-1.724-1.172-2.828-1.172-2.106 0.45-2.828 1.172-1.172 1.724-1.172 2.828 0.45 2.106 1.172 2.828 1.724 1.172 2.828 1.172 2.106-0.45 2.828-1.172 1.172-1.724 1.172-2.828zM28 10c0-1.104-0.45-2.106-1.172-2.828s-1.724-1.172-2.828-1.172-2.106 0.45-2.828 1.172-1.172 1.724-1.172 2.828 0.45 2.106 1.172 2.828 1.724 1.172 2.828 1.172 2.106-0.45 2.828-1.172 1.172-1.724 1.172-2.828zM28 38c0-1.104-0.45-2.106-1.172-2.828s-1.724-1.172-2.828-1.172-2.106 0.45-2.828 1.172-1.172 1.724-1.172 2.828 0.45 2.106 1.172 2.828 1.724 1.172 2.828 1.172 2.106-0.45 2.828-1.172 1.172-1.724 1.172-2.828z"></path>
</svg>
