<!-- Generated by IcoMoon.io -->
<svg version="1.1" xmlns="http://www.w3.org/2000/svg" width="48" height="48" viewBox="0 0 48 48">
<title>mouse-pointer</title>
<path d="M9.714 9.714l24.568 10.236-9.766 3.316c-0.57 0.196-1.044 0.64-1.25 1.25l-3.316 9.766zM26.020 28.848l10.566 10.566c0.782 0.782 2.048 0.782 2.828 0s0.782-2.048 0-2.828l-10.566-10.566 11.736-3.986c1.046-0.356 1.606-1.492 1.25-2.536-0.192-0.566-0.612-0.988-1.124-1.202l-33.94-14.14c-1.020-0.424-2.19 0.058-2.616 1.078-0.214 0.512-0.198 1.064 0 1.538l14.14 33.94c0.424 1.020 1.596 1.502 2.616 1.078 0.55-0.23 0.944-0.676 1.124-1.202z"></path>
</svg>
