<!-- Generated by IcoMoon.io -->
<svg version="1.1" xmlns="http://www.w3.org/2000/svg" width="48" height="48" viewBox="0 0 48 48">
<title>move</title>
<path d="M22 8.828v13.172h-13.172l2.586-2.586c0.782-0.782 0.782-2.048 0-2.828s-2.048-0.782-2.828 0l-6 6c-0.362 0.362-0.586 0.862-0.586 1.414 0 0.272 0.054 0.53 0.152 0.766s0.242 0.456 0.434 0.648l6 6c0.782 0.782 2.048 0.782 2.828 0s0.782-2.048 0-2.828l-2.586-2.586h13.172v13.172l-2.586-2.586c-0.782-0.782-2.048-0.782-2.828 0s-0.782 2.048 0 2.828l6 6c0.192 0.192 0.412 0.336 0.648 0.434s0.494 0.152 0.766 0.152c0.26 0 0.522-0.050 0.766-0.152 0.236-0.098 0.456-0.242 0.648-0.434l6-6c0.782-0.782 0.782-2.048 0-2.828s-2.048-0.782-2.828 0l-2.586 2.586v-13.172h13.172l-2.586 2.586c-0.782 0.782-0.782 2.048 0 2.828s2.048 0.782 2.828 0l6-6c0.192-0.192 0.336-0.412 0.434-0.648 0.3-0.724 0.156-1.59-0.434-2.18l-6-6c-0.782-0.782-2.048-0.782-2.828 0s-0.782 2.048 0 2.828l2.586 2.586h-13.172v-13.172l2.586 2.586c0.782 0.782 2.048 0.782 2.828 0s0.782-2.048 0-2.828l-6-6c-0.184-0.184-0.404-0.332-0.648-0.434-0.49-0.202-1.042-0.202-1.532 0-0.236 0.098-0.456 0.242-0.648 0.434l-6 6c-0.782 0.782-0.782 2.048 0 2.828s2.048 0.782 2.828 0z"></path>
</svg>
