<!-- Generated by IcoMoon.io -->
<svg version="1.1" xmlns="http://www.w3.org/2000/svg" width="48" height="48" viewBox="0 0 48 48">
<title>music</title>
<path d="M16 36c0 1.106-0.446 2.102-1.172 2.828s-1.722 1.172-2.828 1.172-2.102-0.446-2.828-1.172-1.172-1.722-1.172-2.828 0.446-2.102 1.172-2.828 1.722-1.172 2.828-1.172 2.102 0.446 2.828 1.172 1.172 1.722 1.172 2.828zM44 32v-26c0-0.1-0.008-0.214-0.028-0.328-0.182-1.090-1.212-1.826-2.302-1.644l-24 4c-0.952 0.162-1.67 0.984-1.67 1.972v19.070c-1.176-0.68-2.544-1.070-4-1.070-2.208 0-4.212 0.898-5.656 2.344s-2.344 3.448-2.344 5.656 0.898 4.212 2.344 5.656 3.448 2.344 5.656 2.344 4.212-0.898 5.656-2.344 2.344-3.448 2.344-5.656v-24.306l20-3.334v16.71c-1.176-0.68-2.544-1.070-4-1.070-2.208 0-4.212 0.898-5.656 2.344s-2.344 3.448-2.344 5.656 0.898 4.212 2.344 5.656 3.448 2.344 5.656 2.344 4.212-0.898 5.656-2.344 2.344-3.448 2.344-5.656zM40 32c0 1.106-0.446 2.102-1.172 2.828s-1.722 1.172-2.828 1.172-2.102-0.446-2.828-1.172-1.172-1.722-1.172-2.828 0.446-2.102 1.172-2.828 1.722-1.172 2.828-1.172 2.102 0.446 2.828 1.172 1.172 1.722 1.172 2.828z"></path>
</svg>
