<!-- Generated by IcoMoon.io -->
<svg version="1.1" xmlns="http://www.w3.org/2000/svg" width="48" height="48" viewBox="0 0 48 48">
<title>navigation-2</title>
<path d="M25.876 3.308c-0.198-0.532-0.614-0.976-1.186-1.186-1.036-0.382-2.186 0.148-2.568 1.186l-14 38c-0.196 0.538-0.164 1.152 0.14 1.684 0.548 0.96 1.77 1.292 2.728 0.744l13.010-7.432 13.008 7.432c0.498 0.282 1.108 0.352 1.684 0.14 1.036-0.382 1.568-1.532 1.186-2.568zM24 9.786l10.226 27.754-9.234-5.276c-0.634-0.362-1.382-0.34-1.984 0l-9.234 5.276z"></path>
</svg>
