<!-- Generated by IcoMoon.io -->
<svg version="1.1" xmlns="http://www.w3.org/2000/svg" width="48" height="48" viewBox="0 0 48 48">
<title>navigation</title>
<path d="M5.144 20.192c-0.524 0.25-0.934 0.72-1.084 1.322-0.268 1.072 0.384 2.158 1.456 2.426l14.836 3.708 3.708 14.836c0.142 0.562 0.522 1.056 1.084 1.322 0.998 0.472 2.19 0.046 2.664-0.952l18-38c0.248-0.526 0.266-1.15 0-1.712-0.472-0.998-1.666-1.424-2.664-0.952zM11.906 21.416l27.89-13.212-13.212 27.89-2.644-10.58c-0.184-0.738-0.756-1.276-1.456-1.456z"></path>
</svg>
