<!-- Generated by IcoMoon.io -->
<svg version="1.1" xmlns="http://www.w3.org/2000/svg" width="48" height="48" viewBox="0 0 48 48">
<title>paperclip</title>
<path d="M41.466 20.686l-18.38 18.38c-1.954 1.954-4.512 2.93-7.076 2.93s-5.122-0.976-7.076-2.93-2.93-4.512-2.93-7.076 0.976-5.122 2.93-7.076l18.38-18.38c1.172-1.172 2.706-1.758 4.246-1.758s3.072 0.586 4.246 1.758 1.758 2.706 1.758 4.246-0.586 3.072-1.758 4.246l-18.4 18.38c-0.392 0.392-0.902 0.588-1.416 0.588s-1.024-0.196-1.416-0.586-0.586-0.9-0.586-1.416 0.196-1.024 0.586-1.416l16.98-16.96c0.782-0.78 0.782-2.046 0.002-2.828s-2.046-0.782-2.828-0.002l-16.98 16.96c-1.172 1.172-1.758 2.712-1.758 4.244s0.586 3.072 1.758 4.244 2.712 1.758 4.244 1.758 3.072-0.586 4.244-1.758l18.4-18.38c1.954-1.954 2.93-4.516 2.93-7.074s-0.978-5.122-2.93-7.074-4.516-2.93-7.074-2.93-5.122 0.978-7.074 2.93l-18.38 18.38c-2.734 2.734-4.102 6.322-4.102 9.904s1.368 7.17 4.102 9.904 6.322 4.102 9.904 4.102 7.17-1.368 9.904-4.102l18.38-18.38c0.782-0.782 0.782-2.048 0-2.828s-2.048-0.782-2.828 0z"></path>
</svg>
