<!-- Generated by IcoMoon.io -->
<svg version="1.1" xmlns="http://www.w3.org/2000/svg" width="48" height="48" viewBox="0 0 48 48">
<title>pause-circle</title>
<path d="M46 24c0-6.074-2.464-11.578-6.444-15.556s-9.482-6.444-15.556-6.444-11.578 2.464-15.556 6.444-6.444 9.482-6.444 15.556 2.464 11.578 6.444 15.556 9.482 6.444 15.556 6.444 11.578-2.464 15.556-6.444 6.444-9.482 6.444-15.556zM42 24c0 4.972-2.012 9.468-5.272 12.728s-7.756 5.272-12.728 5.272-9.468-2.012-12.728-5.272-5.272-7.756-5.272-12.728 2.012-9.468 5.272-12.728 7.756-5.272 12.728-5.272 9.468 2.012 12.728 5.272 5.272 7.756 5.272 12.728zM22 30v-12c0-1.104-0.896-2-2-2s-2 0.896-2 2v12c0 1.104 0.896 2 2 2s2-0.896 2-2zM30 30v-12c0-1.104-0.896-2-2-2s-2 0.896-2 2v12c0 1.104 0.896 2 2 2s2-0.896 2-2z"></path>
</svg>
