<!-- Generated by IcoMoon.io -->
<svg version="1.1" xmlns="http://www.w3.org/2000/svg" width="48" height="48" viewBox="0 0 48 48">
<title>pen-tool</title>
<path d="M37.414 27.414l0.586-0.586 3.172 3.172-11.172 11.172-3.172-3.172 0.586-0.586zM4.504 2.064c-0.070-0.018-0.14-0.032-0.212-0.042-0.286-0.044-0.568-0.022-0.834 0.052-0.264 0.074-0.518 0.204-0.74 0.39-0.184 0.154-0.342 0.342-0.462 0.558-0.12 0.212-0.198 0.44-0.232 0.674-0.040 0.256-0.030 0.51 0.024 0.742 0.002 0.010 0.006 0.022 0.008 0.032l0.008 0.034 6.992 28.966c0.188 0.776 0.806 1.338 1.552 1.492l11.53 2.306c-0.282 0.718-0.134 1.566 0.448 2.146l6 6c0.782 0.782 2.048 0.782 2.828 0l14-14c0.782-0.782 0.782-2.048 0-2.828l-6-6c-0.58-0.58-1.428-0.73-2.146-0.448l-2.306-11.53c-0.156-0.784-0.752-1.368-1.492-1.552zM28 22c0-1.656-0.674-3.16-1.758-4.242s-2.586-1.758-4.242-1.758c-0.926 0-1.804 0.21-2.586 0.586l-8.974-8.974 20.85 5.032 2.54 12.698-8.486 8.486-12.698-2.54-5.034-20.848 8.974 8.974c-0.376 0.782-0.586 1.66-0.586 2.586 0 1.656 0.674 3.16 1.758 4.242s2.586 1.758 4.242 1.758 3.16-0.674 4.242-1.758 1.758-2.586 1.758-4.242zM24 22c0 0.552-0.222 1.050-0.586 1.414s-0.862 0.586-1.414 0.586-1.050-0.222-1.414-0.586-0.586-0.862-0.586-1.414c0-0.54 0.212-1.028 0.562-1.39 0.008-0.008 0.016-0.016 0.026-0.024s0.016-0.016 0.024-0.026c0.36-0.348 0.848-0.56 1.388-0.56 0.552 0 1.050 0.222 1.414 0.586s0.586 0.862 0.586 1.414z"></path>
</svg>
