<!-- Generated by IcoMoon.io -->
<svg version="1.1" xmlns="http://www.w3.org/2000/svg" width="48" height="48" viewBox="0 0 48 48">
<title>percent</title>
<path d="M36.586 8.586l-28 28c-0.782 0.782-0.782 2.048 0 2.828s2.048 0.782 2.828 0l28-28c0.782-0.782 0.782-2.048 0-2.828s-2.048-0.782-2.828 0zM20 13c0-1.932-0.786-3.686-2.050-4.95s-3.018-2.050-4.95-2.050-3.686 0.786-4.95 2.050-2.050 3.018-2.050 4.95 0.786 3.686 2.050 4.95 3.018 2.050 4.95 2.050 3.686-0.786 4.95-2.050 2.050-3.018 2.050-4.95zM16 13c0 0.828-0.334 1.576-0.878 2.122s-1.294 0.878-2.122 0.878-1.576-0.334-2.122-0.878-0.878-1.294-0.878-2.122 0.334-1.576 0.878-2.122 1.294-0.878 2.122-0.878 1.576 0.334 2.122 0.878 0.878 1.294 0.878 2.122zM42 35c0-1.932-0.786-3.686-2.050-4.95s-3.018-2.050-4.95-2.050-3.686 0.786-4.95 2.050-2.050 3.018-2.050 4.95 0.786 3.686 2.050 4.95 3.018 2.050 4.95 2.050 3.686-0.786 4.95-2.050 2.050-3.018 2.050-4.95zM38 35c0 0.828-0.334 1.576-0.878 2.122s-1.294 0.878-2.122 0.878-1.576-0.334-2.122-0.878-0.878-1.294-0.878-2.122 0.334-1.576 0.878-2.122 1.294-0.878 2.122-0.878 1.576 0.334 2.122 0.878 0.878 1.294 0.878 2.122z"></path>
</svg>
