<!-- Generated by IcoMoon.io -->
<svg version="1.1" xmlns="http://www.w3.org/2000/svg" width="48" height="48" viewBox="0 0 48 48">
<title>phone-outgoing</title>
<path d="M33.414 17.414l10.586-10.586v7.172c0 1.104 0.896 2 2 2s2-0.896 2-2v-12c0-0.272-0.054-0.53-0.152-0.766s-0.242-0.456-0.432-0.646c-0.002-0.002-0.002-0.002-0.004-0.004-0.184-0.184-0.404-0.332-0.646-0.432-0.236-0.098-0.494-0.152-0.766-0.152h-12c-1.104 0-2 0.896-2 2s0.896 2 2 2h7.172l-10.586 10.586c-0.782 0.782-0.782 2.048 0 2.828s2.048 0.782 2.828 0zM46 33.84c0.032-1.428-0.472-2.808-1.346-3.886-0.92-1.132-2.258-1.934-3.85-2.16-1.6-0.196-3.39-0.628-5.172-1.292-0.866-0.318-1.786-0.436-2.688-0.348-1.326 0.128-2.614 0.698-3.638 1.71l-1.44 1.44c-3.54-2.234-6.72-5.334-9.166-9.178l1.452-1.452c0.644-0.66 1.126-1.452 1.414-2.312 0.424-1.264 0.428-2.672-0.078-4.022-0.578-1.506-1.036-3.288-1.288-5.19-0.208-1.428-0.912-2.69-1.926-3.608-1.078-0.972-2.512-1.558-4.054-1.542h-5.992c-0.176 0-0.364 0.008-0.546 0.024-1.648 0.15-3.084 0.956-4.066 2.132s-1.516 2.734-1.366 4.398c0.6 6.152 2.73 12.486 6.432 18.204 3.004 4.826 7.296 9.246 12.596 12.612 5.136 3.394 11.368 5.724 18.172 6.462 0.184 0.018 0.382 0.026 0.576 0.026 1.656-0.006 3.156-0.686 4.236-1.774s1.746-2.594 1.74-4.242zM42 33.84v6c0.002 0.56-0.218 1.060-0.58 1.424s-0.858 0.59-1.412 0.592c-6.298-0.672-11.922-2.782-16.526-5.824-4.856-3.086-8.718-7.074-11.404-11.388-3.394-5.24-5.31-10.962-5.848-16.476-0.048-0.536 0.128-1.052 0.458-1.448s0.806-0.66 1.356-0.71l6.176-0.010c0.542-0.006 1.014 0.188 1.374 0.512 0.34 0.308 0.576 0.732 0.646 1.216 0.284 2.144 0.816 4.234 1.514 6.050 0.162 0.432 0.16 0.894 0.020 1.316-0.098 0.29-0.262 0.562-0.484 0.79l-2.524 2.522c-0.648 0.648-0.758 1.628-0.324 2.402 3.168 5.57 7.678 9.914 12.762 12.756 0.794 0.444 1.764 0.288 2.39-0.332l2.54-2.54c0.332-0.328 0.754-0.514 1.196-0.558 0.304-0.030 0.62 0.010 0.918 0.12 2.044 0.762 4.14 1.272 6.068 1.508 0.482 0.068 0.924 0.332 1.23 0.71 0.294 0.362 0.462 0.824 0.452 1.364z"></path>
</svg>
