<!-- Generated by IcoMoon.io -->
<svg version="1.1" xmlns="http://www.w3.org/2000/svg" width="48" height="48" viewBox="0 0 48 48">
<title>phone-off</title>
<path d="M12.058 24.532c-3.364-5.186-5.28-10.88-5.828-16.37-0.048-0.532 0.128-1.046 0.458-1.442s0.806-0.66 1.356-0.71l6.176-0.010c0.542-0.006 1.014 0.188 1.374 0.512 0.34 0.308 0.576 0.732 0.646 1.216 0.284 2.144 0.816 4.234 1.514 6.050 0.162 0.432 0.16 0.894 0.020 1.316-0.098 0.29-0.262 0.562-0.484 0.79l-2.524 2.522c-0.782 0.782-0.782 2.048 0 2.828s2.048 0.782 2.828 0l2.558-2.558c0.644-0.66 1.126-1.452 1.414-2.312 0.424-1.264 0.428-2.672-0.078-4.022-0.578-1.506-1.036-3.288-1.288-5.19-0.208-1.43-0.912-2.692-1.926-3.61-1.078-0.972-2.512-1.558-4.054-1.542h-5.992c-0.176 0-0.364 0.008-0.546 0.024-1.648 0.15-3.084 0.956-4.066 2.132s-1.516 2.734-1.366 4.402c0.612 6.124 2.742 12.428 6.452 18.15 0.6 0.926 1.84 1.19 2.766 0.59s1.19-1.84 0.59-2.766zM18.57 32.26l2.842-2.842c1.858 1.656 3.836 3.062 5.798 4.15 0.794 0.442 1.76 0.284 2.386-0.334l2.54-2.54c0.332-0.328 0.754-0.514 1.196-0.558 0.304-0.030 0.62 0.010 0.918 0.12 2.044 0.762 4.14 1.272 6.068 1.508 0.48 0.068 0.916 0.328 1.224 0.704 0.292 0.356 0.462 0.81 0.458 1.298v6.012c0.002 0.56-0.218 1.060-0.58 1.424s-0.858 0.59-1.412 0.592c-6.298-0.672-11.922-2.782-16.526-5.824-1.814-1.152-3.474-2.42-4.914-3.712zM44.586 0.586l-24.462 24.46c-0.062 0.048-0.122 0.102-0.178 0.158-0.058 0.058-0.11 0.118-0.16 0.18l-19.2 19.2c-0.782 0.782-0.782 2.048 0 2.828s2.048 0.782 2.828 0l12.324-12.324c1.646 1.496 3.528 2.94 5.54 4.218 5.136 3.394 11.368 5.724 18.172 6.462 0.184 0.018 0.382 0.026 0.576 0.026 1.656-0.006 3.156-0.686 4.236-1.774s1.746-2.594 1.74-4.242v-5.988c0.008-1.446-0.498-2.8-1.364-3.858-0.92-1.122-2.25-1.916-3.834-2.14-1.6-0.196-3.39-0.628-5.172-1.292-0.866-0.318-1.786-0.436-2.688-0.348-1.326 0.128-2.614 0.698-3.638 1.71l-1.44 1.44c-1.218-0.774-2.442-1.688-3.62-2.722l23.168-23.166c0.782-0.782 0.782-2.048 0-2.828s-2.048-0.782-2.828 0z"></path>
</svg>
