<!-- Generated by IcoMoon.io -->
<svg version="1.1" xmlns="http://www.w3.org/2000/svg" width="48" height="48" viewBox="0 0 48 48">
<title>pie-chart</title>
<path d="M40.578 31.002c-1.936 4.578-5.542 7.936-9.812 9.67s-9.198 1.834-13.776-0.102-7.936-5.542-9.67-9.812-1.836-9.2 0.1-13.778c1.872-4.428 5.304-7.712 9.378-9.486 1.012-0.442 1.476-1.62 1.036-2.632s-1.62-1.476-2.632-1.036c-4.978 2.168-9.178 6.188-11.466 11.596-2.366 5.596-2.238 11.624-0.124 16.838s6.224 9.628 11.818 11.994 11.624 2.238 16.838 0.124 9.628-6.224 11.994-11.818c0.43-1.018-0.046-2.19-1.064-2.622s-2.19 0.046-2.622 1.064zM41.89 22h-15.89v-15.89c4.172 0.46 7.912 2.346 10.728 5.162s4.702 6.556 5.162 10.728zM46 24c0-6.074-2.464-11.578-6.444-15.556s-9.482-6.444-15.556-6.444c-1.104 0-2 0.896-2 2v20c0 1.104 0.896 2 2 2h20c1.104 0 2-0.896 2-2z"></path>
</svg>
