<!-- Generated by IcoMoon.io -->
<svg version="1.1" xmlns="http://www.w3.org/2000/svg" width="48" height="48" viewBox="0 0 48 48">
<title>play-circle</title>
<path d="M46 24c0-6.074-2.464-11.578-6.444-15.556s-9.482-6.444-15.556-6.444-11.578 2.464-15.556 6.444-6.444 9.482-6.444 15.556 2.464 11.578 6.444 15.556 9.482 6.444 15.556 6.444 11.578-2.464 15.556-6.444 6.444-9.482 6.444-15.556zM42 24c0 4.972-2.012 9.468-5.272 12.728s-7.756 5.272-12.728 5.272-9.468-2.012-12.728-5.272-5.272-7.756-5.272-12.728 2.012-9.468 5.272-12.728 7.756-5.272 12.728-5.272 9.468 2.012 12.728 5.272 5.272 7.756 5.272 12.728zM21.11 14.336c-0.312-0.21-0.696-0.336-1.11-0.336-1.104 0-2 0.896-2 2v16c-0.002 0.376 0.106 0.766 0.336 1.11 0.612 0.92 1.854 1.168 2.774 0.554l12-8c0.206-0.136 0.4-0.324 0.554-0.554 0.612-0.92 0.364-2.16-0.554-2.774zM22 19.738l6.394 4.262-6.394 4.262z"></path>
</svg>
