<!-- Generated by IcoMoon.io -->
<svg version="1.1" xmlns="http://www.w3.org/2000/svg" width="48" height="48" viewBox="0 0 48 48">
<title>pocket</title>
<path d="M8 4c-1.656 0-3.16 0.674-4.242 1.758s-1.758 2.586-1.758 4.242v12c0 6.074 2.464 11.578 6.444 15.556s9.482 6.444 15.556 6.444 11.578-2.464 15.556-6.444 6.444-9.482 6.444-15.556v-12c0-1.656-0.674-3.16-1.758-4.242s-2.586-1.758-4.242-1.758zM8 8h32c0.552 0 1.050 0.222 1.414 0.586s0.586 0.862 0.586 1.414v12c0 4.972-2.012 9.468-5.272 12.728s-7.756 5.272-12.728 5.272-9.468-2.012-12.728-5.272-5.272-7.756-5.272-12.728v-12c0-0.552 0.222-1.050 0.586-1.414s0.862-0.586 1.414-0.586zM14.586 21.414l8 8c0.782 0.782 2.048 0.782 2.828 0l8-8c0.782-0.782 0.782-2.048 0-2.828s-2.048-0.782-2.828 0l-6.586 6.586-6.586-6.586c-0.782-0.782-2.048-0.782-2.828 0s-0.782 2.048 0 2.828z"></path>
</svg>
