<!-- Generated by IcoMoon.io -->
<svg version="1.1" xmlns="http://www.w3.org/2000/svg" width="48" height="48" viewBox="0 0 48 48">
<title>printer</title>
<path d="M34 16h-20v-10h20zM10 38v6c0 1.104 0.896 2 2 2h24c1.104 0 2-0.896 2-2v-6h2c1.656 0 3.16-0.674 4.242-1.758s1.758-2.586 1.758-4.242v-10c0-1.656-0.674-3.16-1.758-4.242s-2.586-1.758-4.242-1.758h-2v-12c0-1.104-0.896-2-2-2h-24c-1.104 0-2 0.896-2 2v12h-2c-1.656 0-3.16 0.674-4.242 1.758s-1.758 2.586-1.758 4.242v10c0 1.656 0.674 3.16 1.758 4.242s2.586 1.758 4.242 1.758zM12 26c-1.104 0-2 0.896-2 2v6h-2c-0.552 0-1.050-0.222-1.414-0.586s-0.586-0.862-0.586-1.414v-10c0-0.552 0.222-1.050 0.586-1.414s0.862-0.586 1.414-0.586h32c0.552 0 1.050 0.222 1.414 0.586s0.586 0.862 0.586 1.414v10c0 0.552-0.222 1.050-0.586 1.414s-0.862 0.586-1.414 0.586h-2v-6c0-1.104-0.896-2-2-2zM14 30h20v12h-20z"></path>
</svg>
