<!-- Generated by IcoMoon.io -->
<svg version="1.1" xmlns="http://www.w3.org/2000/svg" width="48" height="48" viewBox="0 0 48 48">
<title>radio</title>
<path d="M30 24c0-1.656-0.674-3.16-1.758-4.242s-2.586-1.758-4.242-1.758-3.16 0.674-4.242 1.758-1.758 2.586-1.758 4.242 0.674 3.16 1.758 4.242 2.586 1.758 4.242 1.758 3.16-0.674 4.242-1.758 1.758-2.586 1.758-4.242zM26 24c0 0.552-0.222 1.050-0.586 1.414s-0.862 0.586-1.414 0.586-1.050-0.222-1.414-0.586-0.586-0.862-0.586-1.414 0.222-1.050 0.586-1.414 0.862-0.586 1.414-0.586 1.050 0.222 1.414 0.586 0.586 0.862 0.586 1.414zM31.066 16.936c1.954 1.952 2.932 4.508 2.932 7.070s-0.974 5.118-2.924 7.072c-0.78 0.782-0.78 2.048 0.002 2.828s2.048 0.78 2.828-0.002c2.732-2.734 4.096-6.322 4.094-9.902s-1.372-7.166-4.106-9.898c-0.782-0.78-2.048-0.78-2.828 0.002s-0.78 2.048 0.002 2.828zM16.934 31.064c-1.954-1.95-2.932-4.506-2.934-7.068s0.974-5.118 2.924-7.072c0.78-0.782 0.78-2.048-0.002-2.828s-2.048-0.78-2.828 0.002c-2.73 2.732-4.096 6.32-4.094 9.9s1.372 7.166 4.106 9.898c0.782 0.78 2.048 0.78 2.828-0.002s0.78-2.048-0.002-2.828zM36.726 11.274c3.514 3.516 5.27 8.118 5.27 12.728 0 4.608-1.756 9.21-5.27 12.724-0.78 0.782-0.78 2.048 0 2.828s2.048 0.78 2.828 0c4.294-4.294 6.44-9.926 6.442-15.552 0-5.63-2.148-11.262-6.442-15.556-0.78-0.782-2.048-0.782-2.828 0s-0.782 2.048 0 2.828zM11.274 36.726c-3.514-3.516-5.27-8.118-5.27-12.728 0-4.608 1.756-9.21 5.27-12.724 0.78-0.782 0.78-2.048 0-2.828s-2.048-0.78-2.828 0c-4.294 4.294-6.44 9.926-6.442 15.552 0 5.626 2.148 11.26 6.442 15.556 0.78 0.782 2.048 0.782 2.828 0s0.782-2.048 0-2.828z"></path>
</svg>
