<!-- Generated by IcoMoon.io -->
<svg version="1.1" xmlns="http://www.w3.org/2000/svg" width="48" height="48" viewBox="0 0 48 48">
<title>refresh-cw</title>
<path d="M8.906 18.668c1.474-4.166 4.494-7.338 8.192-9.104s8.064-2.118 12.228-0.644c2.372 0.84 4.412 2.176 5.966 3.76l5.66 5.32h-6.952c-1.104 0-2 0.896-2 2s0.896 2 2 2h11.994c0.010 0 0.018 0 0.028 0 0.274-0.002 0.536-0.062 0.772-0.164 0.238-0.102 0.458-0.252 0.648-0.45 0.024-0.026 0.048-0.052 0.072-0.078 0.15-0.174 0.266-0.366 0.346-0.57s0.128-0.422 0.138-0.652c0.002-0.030 0.002-0.058 0.002-0.086v-12c0-1.104-0.896-2-2-2s-2 0.896-2 2v7.378l-5.852-5.498c-1.984-2.020-4.542-3.686-7.486-4.728-5.206-1.842-10.67-1.398-15.286 0.804s-8.398 6.172-10.24 11.378c-0.37 1.040 0.176 2.182 1.216 2.552s2.184-0.176 2.552-1.218zM4 32.624l5.91 5.554c3.858 3.862 8.98 5.816 14.096 5.818s10.238-1.95 14.144-5.854c2.208-2.208 3.802-4.814 4.722-7.49 0.36-1.044-0.196-2.182-1.242-2.542s-2.182 0.196-2.542 1.242c-0.722 2.1-1.986 4.182-3.766 5.962-3.126 3.124-7.218 4.684-11.314 4.684s-8.188-1.564-11.358-4.732l-5.6-5.266h6.95c1.104 0 2-0.896 2-2s-0.896-2-2-2h-11.994c-0.010 0-0.018 0-0.028 0-0.274 0.002-0.536 0.062-0.772 0.164-0.238 0.102-0.458 0.252-0.648 0.45-0.024 0.026-0.048 0.052-0.072 0.078-0.15 0.174-0.266 0.366-0.346 0.57s-0.128 0.422-0.138 0.652c-0.002 0.030-0.002 0.058-0.002 0.086v12c0 1.104 0.896 2 2 2s2-0.896 2-2z"></path>
</svg>
