<!-- Generated by IcoMoon.io -->
<svg version="1.1" xmlns="http://www.w3.org/2000/svg" width="48" height="48" viewBox="0 0 48 48">
<title>refresh-ccw</title>
<path d="M42.866 17.332c-1.842-5.206-5.624-9.174-10.24-11.378s-10.080-2.646-15.286-0.804c-2.944 1.042-5.504 2.708-7.488 4.728l-5.852 5.5v-7.378c0-1.104-0.896-2-2-2s-2 0.896-2 2v11.996c0 0.030 0 0.060 0.002 0.088 0.010 0.23 0.058 0.45 0.138 0.652 0.080 0.204 0.196 0.396 0.346 0.57 0.024 0.026 0.048 0.054 0.072 0.078 0.182 0.19 0.402 0.344 0.648 0.45 0.238 0.102 0.498 0.16 0.772 0.164 0.008 0 0.014 0 0.022 0h12c1.104 0 2-0.896 2-2s-0.896-1.998-2-1.998h-6.952l5.66-5.318c1.554-1.584 3.594-2.92 5.966-3.76 4.166-1.474 8.53-1.122 12.228 0.644s6.718 4.936 8.192 9.102c0.368 1.042 1.512 1.586 2.552 1.218s1.586-1.512 1.218-2.552zM40.95 30l-5.6 5.262c-3.168 3.17-7.26 4.732-11.358 4.732s-8.19-1.56-11.314-4.684c-1.78-1.78-3.046-3.862-3.766-5.962-0.36-1.044-1.496-1.6-2.542-1.242s-1.6 1.496-1.242 2.542c0.92 2.678 2.514 5.284 4.722 7.49 3.906 3.904 9.028 5.856 14.144 5.854s10.236-1.956 14.096-5.818l5.91-5.55v7.376c0 1.104 0.896 2 2 2s2-0.896 2-2v-11.996c0-0.030 0-0.060-0.002-0.088-0.010-0.23-0.058-0.45-0.138-0.652-0.080-0.204-0.196-0.396-0.346-0.57-0.024-0.026-0.048-0.054-0.072-0.078-0.182-0.19-0.402-0.344-0.648-0.45-0.238-0.102-0.498-0.16-0.772-0.164-0.008 0-0.014 0-0.022 0h-12c-1.104 0-2 0.896-2 2s0.896 2 2 2z"></path>
</svg>
