<!-- Generated by IcoMoon.io -->
<svg version="1.1" xmlns="http://www.w3.org/2000/svg" width="48" height="48" viewBox="0 0 48 48">
<title>repeat</title>
<path d="M8 22v-4c0-1.658 0.67-3.154 1.758-4.242s2.584-1.758 4.242-1.758h23.172l-4.586 4.586c-0.782 0.782-0.782 2.048 0 2.828s2.048 0.782 2.828 0l8-8c0.192-0.192 0.336-0.412 0.434-0.648s0.152-0.494 0.152-0.766c0-0.26-0.050-0.522-0.152-0.766-0.098-0.236-0.242-0.456-0.434-0.648l-8-8c-0.782-0.782-2.048-0.782-2.828 0s-0.782 2.048 0 2.828l4.586 4.586h-23.172c-2.76 0-5.264 1.122-7.072 2.928s-2.928 4.312-2.928 7.072v4c0 1.104 0.896 2 2 2s2-0.896 2-2zM40 26v4c0 1.658-0.67 3.154-1.758 4.242s-2.584 1.758-4.242 1.758h-23.172l4.586-4.586c0.782-0.782 0.782-2.048 0-2.828s-2.048-0.782-2.828 0l-8 8c-0.184 0.184-0.332 0.404-0.434 0.648s-0.152 0.506-0.152 0.766c0 0.512 0.196 1.024 0.586 1.414l8 8c0.782 0.782 2.048 0.782 2.828 0s0.782-2.048 0-2.828l-4.586-4.586h23.172c2.76 0 5.264-1.122 7.072-2.928s2.928-4.312 2.928-7.072v-4c0-1.104-0.896-2-2-2s-2 0.896-2 2z"></path>
</svg>
