<!-- Generated by IcoMoon.io -->
<svg version="1.1" xmlns="http://www.w3.org/2000/svg" width="48" height="48" viewBox="0 0 48 48">
<title>rewind</title>
<path d="M20 33.91l-12.742-9.91 12.742-9.91zM42.772 39.578c0.336 0.264 0.764 0.422 1.228 0.422 1.104 0 2-0.896 2-2v-28c0.002-0.426-0.136-0.86-0.422-1.228-0.678-0.872-1.934-1.028-2.806-0.35l-18 14c-0.122 0.092-0.244 0.212-0.35 0.35-0.28 0.36-0.418 0.784-0.422 1.208v-13.98c0.002-0.426-0.136-0.86-0.422-1.228-0.678-0.872-1.934-1.028-2.806-0.35l-18 14c-0.122 0.092-0.244 0.212-0.35 0.35-0.678 0.872-0.522 2.128 0.35 2.806l18 14c0.336 0.264 0.764 0.422 1.228 0.422 1.104 0 2-0.896 2-2v-13.982c0.006 0.59 0.27 1.17 0.772 1.56zM42 33.91l-12.742-9.91 12.742-9.91z"></path>
</svg>
