<!-- Generated by IcoMoon.io -->
<svg version="1.1" xmlns="http://www.w3.org/2000/svg" width="48" height="48" viewBox="0 0 48 48">
<title>rotate-cw</title>
<path d="M39.094 29.334c-1.472 4.166-4.49 7.34-8.188 9.106s-8.062 2.122-12.228 0.65-7.34-4.49-9.106-8.188-2.122-8.062-0.65-12.228 4.49-7.34 8.188-9.106 8.062-2.122 12.228-0.65c2.376 0.84 4.418 2.176 5.974 3.764l5.648 5.318h-6.96c-1.104 0-2 0.896-2 2s0.896 2 2 2h11.994c0.008 0 0.018 0 0.026 0 0.274-0.002 0.534-0.060 0.772-0.164 0.238-0.102 0.458-0.252 0.648-0.45 0.024-0.024 0.046-0.050 0.068-0.076 0.152-0.174 0.268-0.368 0.35-0.574 0.082-0.204 0.13-0.426 0.138-0.656 0.004-0.028 0.004-0.056 0.004-0.084v-11.996c0-1.104-0.896-2-2-2s-2 0.896-2 2v7.37l-5.832-5.49c-1.986-2.024-4.548-3.692-7.496-4.732-5.208-1.842-10.672-1.396-15.288 0.81s-8.394 6.176-10.234 11.384-1.392 10.67 0.812 15.286 6.176 8.394 11.384 10.234 10.67 1.394 15.286-0.812 8.394-6.176 10.234-11.384c0.368-1.042-0.178-2.184-1.22-2.552s-2.184 0.178-2.552 1.22z"></path>
</svg>
