<!-- Generated by IcoMoon.io -->
<svg version="1.1" xmlns="http://www.w3.org/2000/svg" width="48" height="48" viewBox="0 0 48 48">
<title>rotate-ccw</title>
<path d="M5.134 30.664c1.836 5.208 5.61 9.182 10.224 11.392s10.076 2.66 15.286 0.826 9.182-5.61 11.392-10.224 2.66-10.076 0.826-15.286-5.61-9.182-10.224-11.392-10.076-2.66-15.286-0.826c-2.948 1.040-5.51 2.704-7.498 4.724l-5.854 5.5v-7.378c0-1.104-0.896-2-2-2s-2 0.896-2 2v11.996c0 0.030 0 0.060 0.002 0.088 0.010 0.23 0.058 0.45 0.138 0.652 0.080 0.204 0.196 0.396 0.346 0.57 0.024 0.026 0.048 0.054 0.072 0.078 0.182 0.19 0.402 0.344 0.648 0.45 0.238 0.102 0.498 0.16 0.772 0.164 0.008 0 0.014 0 0.022 0h12c1.104 0 2-0.896 2-2s-0.896-1.998-2-1.998h-6.952l5.658-5.318c1.558-1.584 3.6-2.918 5.974-3.754 4.168-1.468 8.532-1.11 12.228 0.66s6.712 4.946 8.18 9.114 1.11 8.532-0.66 12.228-4.946 6.712-9.114 8.18-8.532 1.11-12.228-0.66-6.712-4.946-8.18-9.114c-0.368-1.042-1.51-1.588-2.55-1.222s-1.588 1.51-1.222 2.55z"></path>
</svg>
