<!-- Generated by IcoMoon.io -->
<svg version="1.1" xmlns="http://www.w3.org/2000/svg" width="48" height="48" viewBox="0 0 48 48">
<title>rss</title>
<path d="M8 24c4.418 0 8.416 1.788 11.314 4.686s4.686 6.896 4.686 11.314c0 1.104 0.896 2 2 2s2-0.896 2-2c0-5.522-2.24-10.526-5.858-14.142s-8.62-5.858-14.142-5.858c-1.104 0-2 0.896-2 2s0.896 2 2 2zM8 10c8.284 0 15.782 3.356 21.214 8.786s8.786 12.93 8.786 21.214c0 1.104 0.896 2 2 2s2-0.896 2-2c0-9.388-3.808-17.892-9.958-24.042s-14.654-9.958-24.042-9.958c-1.104 0-2 0.896-2 2s0.896 2 2 2zM14 38c0-1.104-0.45-2.106-1.172-2.828s-1.724-1.172-2.828-1.172-2.106 0.45-2.828 1.172-1.172 1.724-1.172 2.828 0.45 2.106 1.172 2.828 1.724 1.172 2.828 1.172 2.106-0.45 2.828-1.172 1.172-1.724 1.172-2.828z"></path>
</svg>
