<!-- Generated by IcoMoon.io -->
<svg version="1.1" xmlns="http://www.w3.org/2000/svg" width="48" height="48" viewBox="0 0 48 48">
<title>save</title>
<path d="M38 44c1.656 0 3.16-0.674 4.242-1.758s1.758-2.586 1.758-4.242v-22c0-0.512-0.196-1.024-0.586-1.414l-10-10c-0.362-0.362-0.862-0.586-1.414-0.586h-22c-1.656 0-3.16 0.674-4.242 1.758s-1.758 2.586-1.758 4.242v28c0 1.656 0.674 3.16 1.758 4.242s2.586 1.758 4.242 1.758zM16 40v-12h16v12zM12 8v8c0 1.104 0.896 2 2 2h16c1.104 0 2-0.896 2-2s-0.896-2-2-2h-14v-6h15.172l8.828 8.828v21.172c0 0.552-0.222 1.050-0.586 1.414s-0.862 0.586-1.414 0.586h-2v-14c0-1.104-0.896-2-2-2h-20c-1.104 0-2 0.896-2 2v14h-2c-0.552 0-1.050-0.222-1.414-0.586s-0.586-0.862-0.586-1.414v-28c0-0.552 0.222-1.050 0.586-1.414s0.862-0.586 1.414-0.586z"></path>
</svg>
