<!-- Generated by IcoMoon.io -->
<svg version="1.1" xmlns="http://www.w3.org/2000/svg" width="48" height="48" viewBox="0 0 48 48">
<title>scissors</title>
<path d="M14.756 33.102c0.022 0.024 0.046 0.050 0.070 0.072s0.048 0.046 0.072 0.070c0.686 0.718 1.102 1.686 1.102 2.756 0 1.106-0.446 2.102-1.172 2.828s-1.722 1.172-2.828 1.172-2.102-0.446-2.828-1.172-1.172-1.722-1.172-2.828 0.446-2.102 1.172-2.828 1.722-1.172 2.828-1.172c1.070 0 2.038 0.416 2.756 1.102zM27.528 30.376l11.060 11.040c0.782 0.78 2.048 0.78 2.828-0.002s0.78-2.048-0.002-2.828l-11.060-11.040c-0.782-0.78-2.048-0.78-2.828 0.002s-0.78 2.048 0.002 2.828zM14.898 14.756c-0.024 0.022-0.048 0.046-0.072 0.070s-0.048 0.048-0.070 0.072c-0.718 0.686-1.686 1.102-2.756 1.102-1.106 0-2.102-0.446-2.828-1.172s-1.172-1.722-1.172-2.828 0.446-2.102 1.172-2.828 1.722-1.172 2.828-1.172 2.102 0.446 2.828 1.172 1.172 1.722 1.172 2.828c0 1.070-0.416 2.038-1.102 2.756zM16.064 18.892l5.108 5.108-5.108 5.108c-1.192-0.704-2.582-1.108-4.064-1.108-2.208 0-4.212 0.898-5.656 2.344s-2.344 3.448-2.344 5.656 0.898 4.212 2.344 5.656 3.448 2.344 5.656 2.344 4.212-0.898 5.656-2.344 2.344-3.448 2.344-5.656c0-1.482-0.404-2.872-1.108-4.064l22.522-22.522c0.782-0.782 0.782-2.048 0-2.828s-2.048-0.782-2.828 0l-14.586 14.586-5.108-5.108c0.704-1.192 1.108-2.582 1.108-4.064 0-2.208-0.898-4.212-2.344-5.656s-3.448-2.344-5.656-2.344-4.212 0.898-5.656 2.344-2.344 3.448-2.344 5.656 0.898 4.212 2.344 5.656 3.448 2.344 5.656 2.344c1.482 0 2.872-0.404 4.064-1.108z"></path>
</svg>
