<!-- Generated by IcoMoon.io -->
<svg version="1.1" xmlns="http://www.w3.org/2000/svg" width="48" height="48" viewBox="0 0 48 48">
<title>send</title>
<path d="M45.926 4.538c0.086-0.302 0.1-0.628 0.030-0.952-0.048-0.226-0.136-0.448-0.262-0.65-0.128-0.204-0.29-0.38-0.476-0.524-0.234-0.18-0.498-0.3-0.772-0.362s-0.564-0.068-0.852-0.008c-0.084 0.018-0.17 0.042-0.252 0.070l-0.042 0.014-39.96 13.986c-0.504 0.176-0.934 0.552-1.168 1.076-0.448 1.010 0.006 2.192 1.016 2.64l17.298 7.688 7.688 17.298c0.216 0.486 0.626 0.886 1.166 1.076 1.042 0.364 2.184-0.184 2.548-1.228l13.986-39.958c0.020-0.054 0.038-0.108 0.054-0.164zM21.558 23.614l-12.136-5.392 26.966-9.44zM39.218 11.612l-9.44 26.966-5.392-12.136z"></path>
</svg>
