<!-- Generated by IcoMoon.io -->
<svg version="1.1" xmlns="http://www.w3.org/2000/svg" width="48" height="48" viewBox="0 0 48 48">
<title>server</title>
<path d="M8 2c-1.656 0-3.16 0.674-4.242 1.758s-1.758 2.586-1.758 4.242v8c0 1.656 0.674 3.16 1.758 4.242s2.586 1.758 4.242 1.758h32c1.656 0 3.16-0.674 4.242-1.758s1.758-2.586 1.758-4.242v-8c0-1.656-0.674-3.16-1.758-4.242s-2.586-1.758-4.242-1.758zM8 6h32c0.552 0 1.050 0.222 1.414 0.586s0.586 0.862 0.586 1.414v8c0 0.552-0.222 1.050-0.586 1.414s-0.862 0.586-1.414 0.586h-32c-0.552 0-1.050-0.222-1.414-0.586s-0.586-0.862-0.586-1.414v-8c0-0.552 0.222-1.050 0.586-1.414s0.862-0.586 1.414-0.586zM8 26c-1.656 0-3.16 0.674-4.242 1.758s-1.758 2.586-1.758 4.242v8c0 1.656 0.674 3.16 1.758 4.242s2.586 1.758 4.242 1.758h32c1.656 0 3.16-0.674 4.242-1.758s1.758-2.586 1.758-4.242v-8c0-1.656-0.674-3.16-1.758-4.242s-2.586-1.758-4.242-1.758zM8 30h32c0.552 0 1.050 0.222 1.414 0.586s0.586 0.862 0.586 1.414v8c0 0.552-0.222 1.050-0.586 1.414s-0.862 0.586-1.414 0.586h-32c-0.552 0-1.050-0.222-1.414-0.586s-0.586-0.862-0.586-1.414v-8c0-0.552 0.222-1.050 0.586-1.414s0.862-0.586 1.414-0.586zM12 14c1.104 0 2-0.896 2-2s-0.896-2-2-2-2 0.896-2 2 0.896 2 2 2zM12 38c1.104 0 2-0.896 2-2s-0.896-2-2-2-2 0.896-2 2 0.896 2 2 2z"></path>
</svg>
