<!-- Generated by IcoMoon.io -->
<svg version="1.1" xmlns="http://www.w3.org/2000/svg" width="48" height="48" viewBox="0 0 48 48">
<title>settings</title>
<path d="M32 24c0-2.208-0.898-4.212-2.344-5.656s-3.448-2.344-5.656-2.344-4.212 0.898-5.656 2.344-2.344 3.448-2.344 5.656 0.898 4.212 2.344 5.656 3.448 2.344 5.656 2.344 4.212-0.898 5.656-2.344 2.344-3.448 2.344-5.656zM28 24c0 1.106-0.446 2.102-1.172 2.828s-1.722 1.172-2.828 1.172-2.102-0.446-2.828-1.172-1.172-1.722-1.172-2.828 0.446-2.102 1.172-2.828 1.722-1.172 2.828-1.172 2.102 0.446 2.828 1.172 1.172 1.722 1.172 2.828zM40.63 30.808c0.092-0.21 0.224-0.382 0.384-0.514 0.224-0.184 0.502-0.292 0.806-0.294h0.18c1.656 0 3.16-0.674 4.242-1.758s1.758-2.586 1.758-4.242-0.674-3.16-1.758-4.242-2.586-1.758-4.242-1.758h-0.318c-0.22-0.002-0.43-0.056-0.616-0.152-0.254-0.132-0.46-0.344-0.584-0.624-0.006-0.058-0.008-0.118-0.008-0.178-0.048-0.11-0.080-0.222-0.098-0.336 0.040-0.668 0.154-0.908 0.336-1.094l0.124-0.124c1.17-1.172 1.756-2.712 1.754-4.244s-0.588-3.072-1.762-4.244c-1.172-1.17-2.712-1.756-4.244-1.754s-3.072 0.588-4.24 1.758l-0.092 0.092c-0.166 0.16-0.366 0.272-0.576 0.332-0.28 0.078-0.582 0.064-0.876-0.066-0.202-0.088-0.374-0.22-0.506-0.38-0.184-0.224-0.292-0.502-0.294-0.806v-0.18c0-1.656-0.674-3.16-1.758-4.242s-2.586-1.758-4.242-1.758-3.16 0.674-4.242 1.758-1.758 2.586-1.758 4.242v0.318c-0.002 0.22-0.056 0.43-0.152 0.616-0.132 0.254-0.344 0.46-0.624 0.584-0.058 0.006-0.118 0.008-0.178 0.008-0.11 0.048-0.222 0.080-0.336 0.098-0.67-0.042-0.91-0.156-1.096-0.338l-0.124-0.124c-1.172-1.17-2.71-1.756-4.244-1.756s-3.070 0.588-4.244 1.764c-1.17 1.172-1.756 2.71-1.756 4.244s0.588 3.072 1.758 4.24l0.096 0.094c0.16 0.166 0.272 0.366 0.332 0.576 0.078 0.28 0.064 0.582-0.062 0.868-0.012 0.032-0.026 0.068-0.042 0.104-0.082 0.218-0.216 0.406-0.382 0.55-0.22 0.19-0.5 0.306-0.766 0.312h-0.18c-1.656 0-3.16 0.674-4.242 1.758s-1.758 2.588-1.758 4.244 0.674 3.16 1.758 4.242 2.586 1.758 4.242 1.758h0.318c0.22 0.002 0.43 0.056 0.616 0.152 0.256 0.134 0.466 0.348 0.592 0.642 0.048 0.11 0.080 0.222 0.098 0.336-0.040 0.668-0.154 0.908-0.336 1.094l-0.124 0.124c-1.17 1.172-1.756 2.712-1.754 4.244s0.588 3.072 1.762 4.244c1.172 1.17 2.712 1.756 4.244 1.754s3.072-0.588 4.24-1.758l0.094-0.096c0.166-0.16 0.366-0.272 0.576-0.332 0.28-0.078 0.582-0.064 0.868 0.062 0.032 0.012 0.068 0.026 0.104 0.042 0.218 0.082 0.406 0.216 0.55 0.382 0.19 0.22 0.306 0.5 0.312 0.766v0.184c0 1.656 0.674 3.16 1.758 4.242s2.586 1.758 4.242 1.758 3.16-0.674 4.242-1.758 1.758-2.586 1.758-4.242v-0.318c0.002-0.22 0.056-0.43 0.152-0.616 0.134-0.256 0.348-0.466 0.642-0.592 0.11-0.048 0.222-0.080 0.336-0.098 0.668 0.040 0.908 0.154 1.094 0.336l0.124 0.124c1.172 1.17 2.712 1.756 4.244 1.754s3.072-0.588 4.244-1.762c1.17-1.172 1.756-2.712 1.754-4.244s-0.588-3.072-1.758-4.24l-0.096-0.094c-0.16-0.166-0.272-0.366-0.332-0.576-0.078-0.28-0.064-0.582 0.062-0.868zM36.792 18.604c-0.024-0.402-0.076-0.594-0.152-0.764v0.16c0 0.086 0.006 0.168 0.016 0.25 0.042 0.12 0.086 0.238 0.136 0.354 0.008 0.18 0.010 0.182 0.010 0.184 0.498 1.162 1.368 2.060 2.416 2.606 0.742 0.386 1.57 0.596 2.422 0.606h0.36c0.552 0 1.050 0.222 1.414 0.586s0.586 0.862 0.586 1.414-0.222 1.050-0.586 1.414-0.862 0.586-1.414 0.586h-0.18c-1.274 0.006-2.44 0.456-3.35 1.206-0.646 0.532-1.162 1.214-1.5 1.986-0.514 1.164-0.576 2.42-0.254 3.564 0.238 0.846 0.682 1.628 1.304 2.272l0.144 0.146c0.392 0.392 0.588 0.9 0.588 1.414s-0.194 1.024-0.584 1.414c-0.394 0.394-0.902 0.59-1.418 0.59s-1.024-0.194-1.414-0.584l-0.122-0.122c-0.926-0.906-2.080-1.404-3.264-1.504-0.874-0.074-1.764 0.068-2.586 0.424-1.156 0.496-2.054 1.366-2.6 2.412-0.386 0.742-0.596 1.57-0.606 2.422v0.362c0 0.552-0.222 1.050-0.586 1.414s-0.86 0.584-1.412 0.584-1.050-0.222-1.414-0.586-0.586-0.862-0.586-1.414v-0.18c-0.030-1.32-0.51-2.484-1.288-3.384-0.568-0.656-1.292-1.17-2.116-1.488-1.15-0.494-2.386-0.548-3.512-0.232-0.846 0.238-1.628 0.682-2.272 1.304l-0.146 0.144c-0.392 0.392-0.9 0.588-1.414 0.588s-1.024-0.194-1.414-0.584c-0.394-0.394-0.59-0.902-0.59-1.418s0.194-1.024 0.584-1.414l0.122-0.122c0.906-0.926 1.404-2.080 1.504-3.264 0.074-0.874-0.068-1.764-0.424-2.586-0.496-1.156-1.366-2.054-2.412-2.6-0.742-0.386-1.57-0.596-2.422-0.606l-0.36 0.002c-0.552 0-1.050-0.222-1.414-0.586s-0.586-0.862-0.586-1.414 0.222-1.050 0.586-1.414 0.862-0.586 1.414-0.586h0.18c1.32-0.030 2.484-0.51 3.384-1.288 0.656-0.568 1.17-1.292 1.488-2.116 0.494-1.15 0.548-2.386 0.232-3.512-0.238-0.846-0.682-1.628-1.304-2.272l-0.146-0.146c-0.392-0.392-0.588-0.9-0.588-1.414s0.194-1.024 0.584-1.414c0.394-0.394 0.902-0.59 1.418-0.59s1.024 0.194 1.414 0.584l0.122 0.122c0.926 0.906 2.080 1.404 3.264 1.504 0.74 0.064 1.49-0.028 2.202-0.274 0.192-0.024 0.372-0.072 0.532-0.144-0.062 0.002-0.122 0.006-0.178 0.008-0.402 0.024-0.594 0.076-0.764 0.152h0.16c0.086 0 0.168-0.006 0.25-0.016 0.12-0.042 0.238-0.086 0.354-0.136 0.18-0.008 0.182-0.010 0.184-0.010 1.162-0.498 2.060-1.368 2.606-2.416 0.386-0.74 0.596-1.57 0.606-2.42v-0.362c0-0.552 0.222-1.050 0.586-1.414s0.862-0.586 1.414-0.586 1.050 0.222 1.414 0.586 0.586 0.862 0.586 1.414v0.18c0.006 1.274 0.456 2.44 1.206 3.35 0.532 0.646 1.214 1.162 1.992 1.502 1.156 0.51 2.412 0.572 3.556 0.25 0.846-0.238 1.628-0.682 2.272-1.304l0.146-0.144c0.392-0.392 0.9-0.588 1.414-0.588s1.024 0.194 1.414 0.584c0.394 0.394 0.59 0.902 0.59 1.418s-0.194 1.024-0.584 1.414l-0.122 0.122c-0.906 0.926-1.404 2.080-1.504 3.264-0.064 0.74 0.028 1.49 0.274 2.202 0.024 0.19 0.074 0.37 0.144 0.532-0.002-0.064-0.004-0.124-0.008-0.178z"></path>
</svg>
