<!-- Generated by IcoMoon.io -->
<svg version="1.1" xmlns="http://www.w3.org/2000/svg" width="48" height="48" viewBox="0 0 48 48">
<title>share-2</title>
<path d="M32.428 36.196c0.050-0.066 0.096-0.134 0.14-0.208 0.040-0.070 0.076-0.142 0.108-0.214 0.146-0.216 0.312-0.418 0.496-0.602 0.726-0.726 1.722-1.172 2.828-1.172s2.102 0.446 2.828 1.172 1.172 1.722 1.172 2.828-0.446 2.102-1.172 2.828-1.722 1.172-2.828 1.172-2.102-0.446-2.828-1.172-1.172-1.722-1.172-2.828c0-0.65 0.154-1.262 0.428-1.804zM32.602 12.112c-0.018-0.034-0.036-0.068-0.056-0.102s-0.040-0.068-0.062-0.1c-0.308-0.566-0.484-1.216-0.484-1.91 0-1.106 0.446-2.102 1.172-2.828s1.722-1.172 2.828-1.172 2.102 0.446 2.828 1.172 1.172 1.722 1.172 2.828-0.446 2.102-1.172 2.828-1.722 1.172-2.828 1.172-2.102-0.446-2.828-1.172c-0.216-0.216-0.408-0.456-0.57-0.716zM15.398 21.888c0.018 0.034 0.036 0.068 0.056 0.102s0.040 0.068 0.062 0.1c0.308 0.566 0.484 1.216 0.484 1.91s-0.176 1.344-0.486 1.912c-0.022 0.032-0.042 0.066-0.062 0.1s-0.038 0.066-0.054 0.1c-0.162 0.26-0.354 0.5-0.57 0.716-0.726 0.726-1.722 1.172-2.828 1.172s-2.102-0.446-2.828-1.172-1.172-1.722-1.172-2.828 0.446-2.102 1.172-2.828 1.722-1.172 2.828-1.172 2.102 0.446 2.828 1.172c0.216 0.216 0.408 0.456 0.57 0.716zM28.3 12.176l-10.616 6.194c-0.008-0.010-0.018-0.018-0.028-0.028-1.444-1.444-3.448-2.342-5.656-2.342s-4.212 0.898-5.656 2.344-2.344 3.448-2.344 5.656 0.898 4.212 2.344 5.656 3.448 2.344 5.656 2.344 4.212-0.898 5.656-2.344c0.010-0.010 0.018-0.018 0.028-0.028l10.618 6.188c-0.196 0.694-0.302 1.428-0.302 2.184 0 2.208 0.898 4.212 2.344 5.656s3.448 2.344 5.656 2.344 4.212-0.898 5.656-2.344 2.344-3.448 2.344-5.656-0.898-4.212-2.344-5.656-3.448-2.344-5.656-2.344-4.212 0.898-5.656 2.344c-0.006 0.006-0.014 0.014-0.020 0.020l-10.624-6.19c0.196-0.692 0.3-1.42 0.3-2.174s-0.104-1.484-0.3-2.176l10.616-6.196c0.008 0.010 0.018 0.018 0.028 0.028 1.444 1.446 3.448 2.344 5.656 2.344s4.212-0.898 5.656-2.344 2.344-3.448 2.344-5.656-0.898-4.212-2.344-5.656-3.448-2.344-5.656-2.344-4.212 0.898-5.656 2.344-2.344 3.448-2.344 5.656c0 0.754 0.104 1.484 0.3 2.176z"></path>
</svg>
