<!-- Generated by IcoMoon.io -->
<svg version="1.1" xmlns="http://www.w3.org/2000/svg" width="48" height="48" viewBox="0 0 48 48">
<title>shield-off</title>
<path d="M41.29 28.592c0.482-1.552 0.716-3.134 0.71-4.6v-13.992c0-0.852-0.534-1.58-1.298-1.872l-16-6c-0.472-0.176-0.968-0.164-1.402 0l-6.32 2.36c-1.034 0.384-1.56 1.536-1.174 2.572s1.538 1.56 2.574 1.174l5.618-2.098 14.002 5.25v12.622c0.004 1.044-0.164 2.222-0.53 3.4-0.328 1.054 0.262 2.176 1.318 2.502s2.176-0.262 2.502-1.318zM10 12.828l22.462 22.462c-2.378 2.414-5.26 4.628-8.524 6.398-2.418-1.38-8.804-5.404-12.038-11.062-0.158-0.276-0.306-0.552-0.446-0.834-0.912-1.822-1.454-3.756-1.454-5.792zM0.586 3.414l5.648 5.65c-0.15 0.284-0.232 0.604-0.234 0.936v14c0 2.764 0.738 5.31 1.876 7.582 0.174 0.35 0.358 0.692 0.552 1.030 4.702 8.228 14.68 13.178 14.68 13.178 0.596 0.298 1.272 0.27 1.828-0.020 3.97-2.094 7.48-4.732 10.356-7.65l9.296 9.296c0.782 0.782 2.048 0.782 2.828 0s0.782-2.048 0-2.828l-44.002-44.002c-0.782-0.782-2.048-0.782-2.828 0s-0.782 2.048 0 2.828z"></path>
</svg>
