<!-- Generated by IcoMoon.io -->
<svg version="1.1" xmlns="http://www.w3.org/2000/svg" width="48" height="48" viewBox="0 0 48 48">
<title>shield</title>
<path d="M24 41.724c-2.368-1.344-8.84-5.39-12.1-11.098-0.158-0.276-0.306-0.552-0.446-0.834-0.912-1.822-1.454-3.756-1.454-5.792v-12.614l14-5.25 14 5.25v12.614c0 2.036-0.542 3.97-1.452 5.794-0.14 0.28-0.29 0.558-0.446 0.834-3.262 5.708-9.734 9.752-12.1 11.098zM24.894 45.788c0 0 9.978-4.95 14.68-13.178 0.192-0.336 0.376-0.68 0.552-1.030 1.136-2.27 1.874-4.816 1.874-7.58v-14c0-0.852-0.534-1.58-1.298-1.872l-16-6c-0.472-0.178-0.97-0.164-1.404 0l-16 6c-0.798 0.298-1.292 1.054-1.298 1.872v14c0 2.764 0.738 5.31 1.876 7.582 0.174 0.35 0.358 0.692 0.552 1.030 4.702 8.228 14.68 13.178 14.68 13.178 0.584 0.292 1.24 0.272 1.788 0z"></path>
</svg>
