<!-- Generated by IcoMoon.io -->
<svg version="1.1" xmlns="http://www.w3.org/2000/svg" width="48" height="48" viewBox="0 0 48 48">
<title>shopping-bag</title>
<path d="M38 10h-28l3-4h22zM43.588 10.784l-5.988-7.984c-0.392-0.522-0.988-0.798-1.6-0.8h-24c-0.652 0-1.232 0.312-1.6 0.8l-5.988 7.984c-0.086 0.112-0.162 0.234-0.222 0.364-0.13 0.274-0.192 0.566-0.19 0.852v28c0 1.656 0.674 3.16 1.758 4.242s2.586 1.758 4.242 1.758h28c1.656 0 3.16-0.674 4.242-1.758s1.758-2.586 1.758-4.242v-28c0-0.438-0.142-0.844-0.378-1.17-0.008-0.010-0.014-0.020-0.022-0.030zM8 14h32v26c0 0.552-0.222 1.050-0.586 1.414s-0.862 0.586-1.414 0.586h-28c-0.552 0-1.050-0.222-1.414-0.586s-0.586-0.862-0.586-1.414zM30 20c0 1.658-0.67 3.154-1.758 4.242s-2.584 1.758-4.242 1.758-3.154-0.67-4.242-1.758-1.758-2.584-1.758-4.242c0-1.104-0.896-2-2-2s-2 0.896-2 2c0 2.76 1.122 5.264 2.928 7.072s4.312 2.928 7.072 2.928 5.264-1.122 7.072-2.928 2.928-4.312 2.928-7.072c0-1.104-0.896-2-2-2s-2 0.896-2 2z"></path>
</svg>
