<!-- Generated by IcoMoon.io -->
<svg version="1.1" xmlns="http://www.w3.org/2000/svg" width="48" height="48" viewBox="0 0 48 48">
<title>shopping-cart</title>
<path d="M22 42c0-1.104-0.45-2.106-1.172-2.828s-1.724-1.172-2.828-1.172-2.106 0.45-2.828 1.172-1.172 1.724-1.172 2.828 0.45 2.106 1.172 2.828 1.724 1.172 2.828 1.172 2.106-0.45 2.828-1.172 1.172-1.724 1.172-2.828zM44 42c0-1.104-0.45-2.106-1.172-2.828s-1.724-1.172-2.828-1.172-2.106 0.45-2.828 1.172-1.172 1.724-1.172 2.828 0.45 2.106 1.172 2.828 1.724 1.172 2.828 1.172 2.106-0.45 2.828-1.172 1.172-1.724 1.172-2.828zM14.442 14h29.14l-2.742 14.382c-0.092 0.456-0.332 0.85-0.664 1.136-0.36 0.312-0.826 0.492-1.376 0.482h-19.468c-0.464 0.006-0.902-0.142-1.252-0.406-0.38-0.286-0.658-0.702-0.758-1.206zM2 4h6.36l1.696 8.478c0.216 0.874 1.004 1.522 1.944 1.522h2.442l-0.8-4h-1.642c-1.104 0-2 0.896-2 2 0 0.106 0.008 0.21 0.024 0.31 0.008 0.056 0.020 0.114 0.034 0.168l3.342 16.694c0.298 1.502 1.14 2.766 2.28 3.622 1.042 0.784 2.34 1.226 3.708 1.206h19.412c1.496 0.030 2.91-0.522 3.99-1.454 0.988-0.852 1.696-2.026 1.97-3.366l3.204-16.804c0.206-1.086-0.504-2.132-1.59-2.34-0.13-0.026-0.26-0.038-0.374-0.036h-32.36l-1.68-8.392c-0.188-0.924-0.994-1.608-1.96-1.608h-8c-1.104 0-2 0.896-2 2s0.896 2 2 2z"></path>
</svg>
