<!-- Generated by IcoMoon.io -->
<svg version="1.1" xmlns="http://www.w3.org/2000/svg" width="48" height="48" viewBox="0 0 48 48">
<title>shuffle</title>
<path d="M9.414 41.414l30.586-30.586v5.172c0 1.104 0.896 2 2 2s2-0.896 2-2v-10c0-0.272-0.054-0.53-0.152-0.766s-0.242-0.456-0.432-0.646c-0.002-0.002-0.002-0.002-0.004-0.004-0.184-0.184-0.404-0.332-0.646-0.432-0.236-0.098-0.494-0.152-0.766-0.152h-10c-1.104 0-2 0.896-2 2s0.896 2 2 2h5.172l-30.586 30.586c-0.782 0.782-0.782 2.048 0 2.828s2.048 0.782 2.828 0zM28.586 31.414l8.586 8.586h-5.172c-1.104 0-2 0.896-2 2s0.896 2 2 2h10c0.26 0 0.522-0.050 0.766-0.152s0.464-0.25 0.648-0.434c0.192-0.192 0.336-0.412 0.434-0.648s0.152-0.494 0.152-0.766v-10c0-1.104-0.896-2-2-2s-2 0.896-2 2v5.172l-8.586-8.586c-0.782-0.782-2.048-0.782-2.828 0s-0.782 2.048 0 2.828zM6.586 9.414l10 10c0.782 0.782 2.048 0.782 2.828 0s0.782-2.048 0-2.828l-10-10c-0.782-0.782-2.048-0.782-2.828 0s-0.782 2.048 0 2.828z"></path>
</svg>
