<!-- Generated by IcoMoon.io -->
<svg version="1.1" xmlns="http://www.w3.org/2000/svg" width="48" height="48" viewBox="0 0 48 48">
<title>skip-back</title>
<path d="M36.75 41.562c0.34 0.272 0.776 0.438 1.25 0.438 1.104 0 2-0.896 2-2v-32c0.002-0.436-0.142-0.878-0.438-1.25-0.69-0.862-1.948-1.002-2.812-0.312l-20 16c-0.106 0.084-0.216 0.19-0.312 0.312-0.69 0.862-0.55 2.122 0.312 2.812zM36 35.838l-14.798-11.838 14.798-11.838zM12 38v-28c0-1.104-0.896-2-2-2s-2 0.896-2 2v28c0 1.104 0.896 2 2 2s2-0.896 2-2z"></path>
</svg>
