<!-- Generated by IcoMoon.io -->
<svg version="1.1" xmlns="http://www.w3.org/2000/svg" width="48" height="48" viewBox="0 0 48 48">
<title>slack</title>
<path d="M29 22c1.38 0 2.632-0.56 3.536-1.464s1.464-2.156 1.464-3.536v-10c0-1.38-0.56-2.632-1.464-3.536s-2.156-1.464-3.536-1.464-2.632 0.56-3.536 1.464-1.464 2.156-1.464 3.536v10c0 1.38 0.56 2.632 1.464 3.536s2.156 1.464 3.536 1.464zM29 18c-0.28 0-0.528-0.11-0.708-0.292s-0.292-0.428-0.292-0.708v-10c0-0.28 0.11-0.528 0.292-0.708s0.428-0.292 0.708-0.292 0.528 0.11 0.708 0.292 0.292 0.428 0.292 0.708v10c0 0.28-0.11 0.528-0.292 0.708s-0.428 0.292-0.708 0.292zM41 22c1.38 0 2.632-0.56 3.536-1.464s1.464-2.156 1.464-3.536-0.56-2.632-1.464-3.536-2.156-1.464-3.536-1.464-2.632 0.56-3.536 1.464-1.464 2.156-1.464 3.536v3c0 1.104 0.896 2 2 2zM41 18h-1v-1c0-0.28 0.11-0.528 0.292-0.708s0.428-0.292 0.708-0.292 0.528 0.11 0.708 0.292 0.292 0.428 0.292 0.708-0.11 0.528-0.292 0.708-0.428 0.292-0.708 0.292zM19 26c-1.38 0-2.632 0.56-3.536 1.464s-1.464 2.156-1.464 3.536v10c0 1.38 0.56 2.632 1.464 3.536s2.156 1.464 3.536 1.464 2.632-0.56 3.536-1.464 1.464-2.156 1.464-3.536v-10c0-1.38-0.56-2.632-1.464-3.536s-2.156-1.464-3.536-1.464zM19 30c0.28 0 0.528 0.11 0.708 0.292s0.292 0.428 0.292 0.708v10c0 0.28-0.11 0.528-0.292 0.708s-0.428 0.292-0.708 0.292-0.528-0.11-0.708-0.292-0.292-0.428-0.292-0.708v-10c0-0.28 0.11-0.528 0.292-0.708s0.428-0.292 0.708-0.292zM7 26c-1.38 0-2.632 0.56-3.536 1.464s-1.464 2.156-1.464 3.536 0.56 2.632 1.464 3.536 2.156 1.464 3.536 1.464 2.632-0.56 3.536-1.464 1.464-2.156 1.464-3.536v-3c0-1.104-0.896-2-2-2zM7 30h1v1c0 0.28-0.11 0.528-0.292 0.708s-0.428 0.292-0.708 0.292-0.528-0.11-0.708-0.292-0.292-0.428-0.292-0.708 0.11-0.528 0.292-0.708 0.428-0.292 0.708-0.292zM26 29c0 1.38 0.56 2.632 1.464 3.536s2.156 1.464 3.536 1.464h10c1.38 0 2.632-0.56 3.536-1.464s1.464-2.156 1.464-3.536-0.56-2.632-1.464-3.536-2.156-1.464-3.536-1.464h-10c-1.38 0-2.632 0.56-3.536 1.464s-1.464 2.156-1.464 3.536zM30 29c0-0.28 0.11-0.528 0.292-0.708s0.428-0.292 0.708-0.292h10c0.28 0 0.528 0.11 0.708 0.292s0.292 0.428 0.292 0.708-0.11 0.528-0.292 0.708-0.428 0.292-0.708 0.292h-10c-0.28 0-0.528-0.11-0.708-0.292s-0.292-0.428-0.292-0.708zM31 40c0.28 0 0.528 0.11 0.708 0.292s0.292 0.428 0.292 0.708-0.11 0.528-0.292 0.708-0.428 0.292-0.708 0.292-0.528-0.11-0.708-0.292-0.292-0.428-0.292-0.708v-1zM31 36h-3c-1.104 0-2 0.896-2 2v3c0 1.38 0.56 2.632 1.464 3.536s2.156 1.464 3.536 1.464 2.632-0.56 3.536-1.464 1.464-2.156 1.464-3.536-0.56-2.632-1.464-3.536-2.156-1.464-3.536-1.464zM18 19c0 0.28-0.11 0.528-0.292 0.708s-0.428 0.292-0.708 0.292h-10c-0.28 0-0.528-0.11-0.708-0.292s-0.292-0.428-0.292-0.708 0.11-0.528 0.292-0.708 0.428-0.292 0.708-0.292h10c0.28 0 0.528 0.11 0.708 0.292s0.292 0.428 0.292 0.708zM22 19c0-1.38-0.56-2.632-1.464-3.536s-2.156-1.464-3.536-1.464h-10c-1.38 0-2.632 0.56-3.536 1.464s-1.464 2.156-1.464 3.536 0.56 2.632 1.464 3.536 2.156 1.464 3.536 1.464h10c1.38 0 2.632-0.56 3.536-1.464s1.464-2.156 1.464-3.536zM17 8c-0.28 0-0.528-0.11-0.708-0.292s-0.292-0.428-0.292-0.708 0.11-0.528 0.292-0.708 0.428-0.292 0.708-0.292 0.528 0.11 0.708 0.292 0.292 0.428 0.292 0.708v1zM17 12h3c1.104 0 2-0.896 2-2v-3c0-1.38-0.56-2.632-1.464-3.536s-2.156-1.464-3.536-1.464-2.632 0.56-3.536 1.464-1.464 2.156-1.464 3.536 0.56 2.632 1.464 3.536 2.156 1.464 3.536 1.464z"></path>
</svg>
