<!-- Generated by IcoMoon.io -->
<svg version="1.1" xmlns="http://www.w3.org/2000/svg" width="48" height="48" viewBox="0 0 48 48">
<title>slash</title>
<path d="M46 24c0-6.074-2.464-11.578-6.444-15.556s-9.482-6.444-15.556-6.444-11.578 2.464-15.556 6.444-6.444 9.482-6.444 15.556 2.464 11.578 6.444 15.556 9.482 6.444 15.556 6.444 11.578-2.464 15.556-6.444 6.444-9.482 6.444-15.556zM38.064 35.236l-25.3-25.3c3.080-2.464 6.986-3.936 11.236-3.936 4.972 0 9.468 2.012 12.728 5.272s5.272 7.756 5.272 12.728c0 4.25-1.472 8.156-3.936 11.236zM9.936 12.764l25.3 25.3c-3.080 2.464-6.986 3.936-11.236 3.936-4.972 0-9.468-2.012-12.728-5.272s-5.272-7.756-5.272-12.728c0-4.25 1.472-8.156 3.936-11.236z"></path>
</svg>
