<!-- Generated by IcoMoon.io -->
<svg version="1.1" xmlns="http://www.w3.org/2000/svg" width="48" height="48" viewBox="0 0 48 48">
<title>sliders</title>
<path d="M10 20v-14c0-1.104-0.896-2-2-2s-2 0.896-2 2v14c0 1.104 0.896 2 2 2s2-0.896 2-2zM26 42v-18c0-1.104-0.896-2-2-2s-2 0.896-2 2v18c0 1.104 0.896 2 2 2s2-0.896 2-2zM42 24v-18c0-1.104-0.896-2-2-2s-2 0.896-2 2v18c0 1.104 0.896 2 2 2s2-0.896 2-2zM2 30h4v12c0 1.104 0.896 2 2 2s2-0.896 2-2v-12h4c1.104 0 2-0.896 2-2s-0.896-2-2-2h-12c-1.104 0-2 0.896-2 2s0.896 2 2 2zM18 18h12c1.104 0 2-0.896 2-2s-0.896-2-2-2h-4v-8c0-1.104-0.896-2-2-2s-2 0.896-2 2v8h-4c-1.104 0-2 0.896-2 2s0.896 2 2 2zM34 34h4v8c0 1.104 0.896 2 2 2s2-0.896 2-2v-8h4c1.104 0 2-0.896 2-2s-0.896-2-2-2h-12c-1.104 0-2 0.896-2 2s0.896 2 2 2z"></path>
</svg>
