<!-- Generated by IcoMoon.io -->
<svg version="1.1" xmlns="http://www.w3.org/2000/svg" width="48" height="48" viewBox="0 0 48 48">
<title>speaker</title>
<path d="M12 2c-1.656 0-3.16 0.674-4.242 1.758s-1.758 2.586-1.758 4.242v32c0 1.656 0.674 3.16 1.758 4.242s2.586 1.758 4.242 1.758h24c1.656 0 3.16-0.674 4.242-1.758s1.758-2.586 1.758-4.242v-32c0-1.656-0.674-3.16-1.758-4.242s-2.586-1.758-4.242-1.758zM12 6h24c0.552 0 1.050 0.222 1.414 0.586s0.586 0.862 0.586 1.414v32c0 0.552-0.222 1.050-0.586 1.414s-0.862 0.586-1.414 0.586h-24c-0.552 0-1.050-0.222-1.414-0.586s-0.586-0.862-0.586-1.414v-32c0-0.552 0.222-1.050 0.586-1.414s0.862-0.586 1.414-0.586zM34 28c0-2.76-1.122-5.264-2.928-7.072s-4.312-2.928-7.072-2.928-5.264 1.122-7.072 2.928-2.928 4.312-2.928 7.072 1.122 5.264 2.928 7.072 4.312 2.928 7.072 2.928 5.264-1.122 7.072-2.928 2.928-4.312 2.928-7.072zM30 28c0 1.658-0.67 3.154-1.758 4.242s-2.584 1.758-4.242 1.758-3.154-0.67-4.242-1.758-1.758-2.584-1.758-4.242 0.67-3.154 1.758-4.242 2.584-1.758 4.242-1.758 3.154 0.67 4.242 1.758 1.758 2.584 1.758 4.242zM24 14c1.104 0 2-0.896 2-2s-0.896-2-2-2-2 0.896-2 2 0.896 2 2 2z"></path>
</svg>
