<!-- Generated by IcoMoon.io -->
<svg version="1.1" xmlns="http://www.w3.org/2000/svg" width="48" height="48" viewBox="0 0 48 48">
<title>square</title>
<path d="M11.4 6c-1.49 0-2.844 0.607-3.818 1.582s-1.582 2.327-1.582 3.818v25.2c0 1.49 0.607 2.844 1.582 3.818s2.327 1.582 3.818 1.582h25.2c1.49 0 2.844-0.607 3.818-1.582s1.582-2.327 1.582-3.818v-25.2c0-1.49-0.607-2.844-1.582-3.818s-2.327-1.582-3.818-1.582zM11.4 9.6h25.2c0.497 0 0.945 0.2 1.273 0.527s0.527 0.776 0.527 1.273v25.2c0 0.497-0.2 0.945-0.527 1.273s-0.776 0.527-1.273 0.527h-25.2c-0.497 0-0.945-0.2-1.273-0.527s-0.527-0.776-0.527-1.273v-25.2c0-0.497 0.2-0.945 0.527-1.273s0.776-0.527 1.273-0.527z"></path>
</svg>
