<!-- Generated by IcoMoon.io -->
<svg version="1.1" xmlns="http://www.w3.org/2000/svg" width="48" height="48" viewBox="0 0 48 48">
<title>star</title>
<path d="M25.794 3.114c-0.184-0.378-0.496-0.704-0.908-0.908-0.99-0.488-2.19-0.082-2.678 0.908l-5.716 11.578-12.782 1.87c-0.416 0.058-0.822 0.254-1.142 0.582-0.772 0.792-0.754 2.058 0.036 2.828l9.246 9.006-2.182 12.724c-0.072 0.414-0.012 0.862 0.202 1.268 0.514 0.978 1.724 1.354 2.702 0.84l11.428-6.010 11.43 6.010c0.372 0.198 0.816 0.278 1.268 0.202 1.088-0.186 1.82-1.22 1.634-2.31l-2.182-12.724 9.246-9.006c0.302-0.292 0.518-0.688 0.584-1.144 0.16-1.092-0.596-2.108-1.69-2.268l-12.78-1.868zM24 8.518l4.386 8.888c0.302 0.61 0.872 0.998 1.504 1.094l9.812 1.434-7.098 6.914c-0.488 0.476-0.682 1.138-0.576 1.77l1.674 9.766-8.772-4.614c-0.602-0.316-1.294-0.296-1.862 0l-8.772 4.614 1.674-9.766c0.116-0.672-0.118-1.322-0.576-1.77l-7.098-6.914 9.814-1.436c0.672-0.098 1.218-0.52 1.504-1.092z"></path>
</svg>
