<!-- Generated by IcoMoon.io -->
<svg version="1.1" xmlns="http://www.w3.org/2000/svg" width="48" height="48" viewBox="0 0 48 48">
<title>sun</title>
<path d="M36 24c0-3.314-1.346-6.316-3.514-8.486s-5.172-3.514-8.486-3.514-6.316 1.346-8.486 3.514-3.514 5.172-3.514 8.486 1.346 6.316 3.514 8.486 5.172 3.514 8.486 3.514 6.316-1.346 8.486-3.514 3.514-5.172 3.514-8.486zM32 24c0 2.21-0.894 4.206-2.344 5.656s-3.446 2.344-5.656 2.344-4.206-0.894-5.656-2.344-2.344-3.446-2.344-5.656 0.894-4.206 2.344-5.656 3.446-2.344 5.656-2.344 4.206 0.894 5.656 2.344 2.344 3.446 2.344 5.656zM22 2v4c0 1.104 0.896 2 2 2s2-0.896 2-2v-4c0-1.104-0.896-2-2-2s-2 0.896-2 2zM22 42v4c0 1.104 0.896 2 2 2s2-0.896 2-2v-4c0-1.104-0.896-2-2-2s-2 0.896-2 2zM7.026 9.854l2.84 2.84c0.782 0.782 2.048 0.782 2.828 0s0.782-2.048 0-2.828l-2.84-2.84c-0.782-0.782-2.048-0.782-2.828 0s-0.782 2.048 0 2.828zM35.306 38.134l2.84 2.84c0.782 0.782 2.048 0.782 2.828 0s0.782-2.048 0-2.828l-2.84-2.84c-0.782-0.782-2.048-0.782-2.828 0s-0.782 2.048 0 2.828zM2 26h4c1.104 0 2-0.896 2-2s-0.896-2-2-2h-4c-1.104 0-2 0.896-2 2s0.896 2 2 2zM42 26h4c1.104 0 2-0.896 2-2s-0.896-2-2-2h-4c-1.104 0-2 0.896-2 2s0.896 2 2 2zM9.854 40.974l2.84-2.84c0.782-0.782 0.782-2.048 0-2.828s-2.048-0.782-2.828 0l-2.84 2.84c-0.782 0.782-0.782 2.048 0 2.828s2.048 0.782 2.828 0zM38.134 12.694l2.84-2.84c0.782-0.782 0.782-2.048 0-2.828s-2.048-0.782-2.828 0l-2.84 2.84c-0.782 0.782-0.782 2.048 0 2.828s2.048 0.782 2.828 0z"></path>
</svg>
