<!-- Generated by IcoMoon.io -->
<svg version="1.1" xmlns="http://www.w3.org/2000/svg" width="48" height="48" viewBox="0 0 48 48">
<title>sunrise</title>
<path d="M36 36c0-3.314-1.346-6.316-3.514-8.486s-5.172-3.514-8.486-3.514-6.316 1.346-8.486 3.514-3.514 5.172-3.514 8.486c0 1.104 0.896 2 2 2s2-0.896 2-2c0-2.21 0.894-4.206 2.344-5.656s3.446-2.344 5.656-2.344 4.206 0.894 5.656 2.344 2.344 3.446 2.344 5.656c0 1.104 0.896 2 2 2s2-0.896 2-2zM7.026 21.854l2.84 2.84c0.782 0.782 2.048 0.782 2.828 0s0.782-2.048 0-2.828l-2.84-2.84c-0.782-0.782-2.048-0.782-2.828 0s-0.782 2.048 0 2.828zM2 38h4c1.104 0 2-0.896 2-2s-0.896-2-2-2h-4c-1.104 0-2 0.896-2 2s0.896 2 2 2zM42 38h4c1.104 0 2-0.896 2-2s-0.896-2-2-2h-4c-1.104 0-2 0.896-2 2s0.896 2 2 2zM38.134 24.694l2.84-2.84c0.782-0.782 0.782-2.048 0-2.828s-2.048-0.782-2.828 0l-2.84 2.84c-0.782 0.782-0.782 2.048 0 2.828s2.048 0.782 2.828 0zM46 42h-44c-1.104 0-2 0.896-2 2s0.896 2 2 2h44c1.104 0 2-0.896 2-2s-0.896-2-2-2zM17.414 13.414l4.586-4.586v9.172c0 1.104 0.896 2 2 2s2-0.896 2-2v-9.172l4.586 4.586c0.782 0.782 2.048 0.782 2.828 0s0.782-2.048 0-2.828l-8-8c-0.184-0.184-0.404-0.332-0.648-0.434-0.49-0.202-1.042-0.202-1.532 0-0.236 0.098-0.456 0.242-0.648 0.434l-8 8c-0.782 0.782-0.782 2.048 0 2.828s2.048 0.782 2.828 0z"></path>
</svg>
