<!-- Generated by IcoMoon.io -->
<svg version="1.1" xmlns="http://www.w3.org/2000/svg" width="48" height="48" viewBox="0 0 48 48">
<title>tag</title>
<path d="M42.594 28.234c1.166-1.172 1.748-2.704 1.748-4.23 0.002-1.528-0.58-3.064-1.748-4.24l-17.18-17.18c-0.362-0.36-0.862-0.584-1.414-0.584h-20c-1.104 0-2 0.896-2 2v20c0 0.512 0.196 1.024 0.586 1.416l17.184 17.164c1.172 1.17 2.712 1.756 4.244 1.754s3.072-0.588 4.24-1.758zM39.766 25.406l-14.34 14.34c-0.392 0.392-0.9 0.588-1.414 0.588s-1.024-0.194-1.414-0.584l-16.598-16.58v-17.17h17.172l16.594 16.594c0.384 0.386 0.578 0.894 0.578 1.408 0 0.512-0.194 1.018-0.578 1.404zM14 16c1.104 0 2-0.896 2-2s-0.896-2-2-2-2 0.896-2 2 0.896 2 2 2z"></path>
</svg>
