<!-- Generated by IcoMoon.io -->
<svg version="1.1" xmlns="http://www.w3.org/2000/svg" width="48" height="48" viewBox="0 0 48 48">
<title>target</title>
<path d="M46 24c0-6.074-2.464-11.578-6.444-15.556s-9.482-6.444-15.556-6.444-11.578 2.464-15.556 6.444-6.444 9.482-6.444 15.556 2.464 11.578 6.444 15.556 9.482 6.444 15.556 6.444 11.578-2.464 15.556-6.444 6.444-9.482 6.444-15.556zM42 24c0 4.972-2.012 9.468-5.272 12.728s-7.756 5.272-12.728 5.272-9.468-2.012-12.728-5.272-5.272-7.756-5.272-12.728 2.012-9.468 5.272-12.728 7.756-5.272 12.728-5.272 9.468 2.012 12.728 5.272 5.272 7.756 5.272 12.728zM38 24c0-3.866-1.57-7.368-4.1-9.9s-6.034-4.1-9.9-4.1-7.368 1.57-9.9 4.1-4.1 6.034-4.1 9.9 1.57 7.368 4.1 9.9 6.034 4.1 9.9 4.1 7.368-1.57 9.9-4.1 4.1-6.034 4.1-9.9zM34 24c0 2.762-1.118 5.26-2.928 7.072s-4.31 2.928-7.072 2.928-5.26-1.118-7.072-2.928-2.928-4.31-2.928-7.072 1.118-5.26 2.928-7.072 4.31-2.928 7.072-2.928 5.26 1.118 7.072 2.928 2.928 4.31 2.928 7.072zM30 24c0-1.656-0.674-3.16-1.758-4.242s-2.586-1.758-4.242-1.758-3.16 0.674-4.242 1.758-1.758 2.586-1.758 4.242 0.674 3.16 1.758 4.242 2.586 1.758 4.242 1.758 3.16-0.674 4.242-1.758 1.758-2.586 1.758-4.242zM26 24c0 0.552-0.222 1.050-0.586 1.414s-0.862 0.586-1.414 0.586-1.050-0.222-1.414-0.586-0.586-0.862-0.586-1.414 0.222-1.050 0.586-1.414 0.862-0.586 1.414-0.586 1.050 0.222 1.414 0.586 0.586 0.862 0.586 1.414z"></path>
</svg>
