<!-- Generated by IcoMoon.io -->
<svg version="1.1" xmlns="http://www.w3.org/2000/svg" width="48" height="48" viewBox="0 0 48 48">
<title>thermometer</title>
<path d="M26 29.52c0.004 0.658 0.322 1.292 0.906 1.674 0.698 0.456 1.372 1.108 1.916 1.92 1.074 1.608 1.396 3.494 1.046 5.254s-1.368 3.38-2.976 4.454-3.494 1.396-5.254 1.046-3.38-1.368-4.454-2.976-1.396-3.494-1.046-5.254 1.368-3.38 2.976-4.454c0.536-0.364 0.886-0.974 0.886-1.664v-22.52c0-0.828 0.334-1.576 0.878-2.122s1.294-0.878 2.122-0.878 1.576 0.334 2.122 0.878 0.878 1.294 0.878 2.122zM30 28.512v-21.512c0-1.932-0.786-3.686-2.050-4.95s-3.018-2.050-4.95-2.050-3.686 0.786-4.95 2.050-2.050 3.018-2.050 4.95v21.518c-2.014 1.658-3.308 3.92-3.788 6.34-0.548 2.758-0.044 5.732 1.642 8.258s4.242 4.128 7 4.678 5.732 0.044 8.258-1.642 4.128-4.242 4.678-7 0.044-5.732-1.642-8.258c-0.614-0.918-1.346-1.72-2.146-2.38z"></path>
</svg>
