<!-- Generated by IcoMoon.io -->
<svg version="1.1" xmlns="http://www.w3.org/2000/svg" width="48" height="48" viewBox="0 0 48 48">
<title>thumbs-up</title>
<path d="M26 18c0 1.104 0.896 2 2 2h11.358c0.13 0.004 0.306 0.022 0.306 0.022 0.546 0.082 1.004 0.376 1.31 0.792s0.45 0.94 0.368 1.484l-2.76 17.996c-0.074 0.478-0.312 0.896-0.65 1.2-0.36 0.322-0.83 0.512-1.372 0.506h-20.56v-19.576l7.216-16.236c0.614 0.196 1.164 0.536 1.612 0.984 0.726 0.726 1.172 1.722 1.172 2.828zM30 16v-6c0-2.208-0.898-4.212-2.344-5.656s-3.448-2.344-5.656-2.344c-0.81 0-1.508 0.482-1.828 1.188l-8 18c-0.12 0.268-0.174 0.55-0.172 0.812v22c0 1.104 0.896 2 2 2h22.56c1.534 0.018 2.964-0.562 4.042-1.526 1.010-0.904 1.714-2.152 1.934-3.566l2.76-18.004c0.25-1.64-0.192-3.228-1.1-4.462s-2.294-2.126-3.93-2.374c-0.33-0.050-0.666-0.074-0.984-0.068zM14 42h-6c-0.552 0-1.050-0.222-1.414-0.586s-0.586-0.862-0.586-1.414v-14c0-0.552 0.222-1.050 0.586-1.414s0.862-0.586 1.414-0.586h6c1.104 0 2-0.896 2-2s-0.896-2-2-2h-6c-1.656 0-3.16 0.674-4.242 1.758s-1.758 2.586-1.758 4.242v14c0 1.656 0.674 3.16 1.758 4.242s2.586 1.758 4.242 1.758h6c1.104 0 2-0.896 2-2s-0.896-2-2-2z"></path>
</svg>
