<!-- Generated by IcoMoon.io -->
<svg version="1.1" xmlns="http://www.w3.org/2000/svg" width="48" height="48" viewBox="0 0 48 48">
<title>thumbs-down</title>
<path d="M22 30c0-1.104-0.896-2-2-2h-11.358c-0.13-0.004-0.306-0.022-0.306-0.022-0.546-0.082-1.004-0.376-1.31-0.792s-0.45-0.94-0.368-1.484l2.76-17.996c0.074-0.478 0.312-0.896 0.65-1.2 0.358-0.322 0.83-0.512 1.372-0.506h20.56v19.576l-7.216 16.236c-0.614-0.196-1.164-0.536-1.612-0.984-0.726-0.726-1.172-1.722-1.172-2.828zM18 32v6c0 2.208 0.898 4.212 2.344 5.656s3.448 2.344 5.656 2.344c0.81 0 1.508-0.482 1.828-1.188l8-18c0.12-0.268 0.174-0.55 0.172-0.812v-22c0-1.104-0.896-2-2-2h-22.56c-1.534-0.018-2.964 0.562-4.042 1.526-1.010 0.904-1.714 2.152-1.934 3.566l-2.76 18.004c-0.25 1.64 0.192 3.228 1.1 4.462s2.294 2.126 3.93 2.374c0.33 0.050 0.666 0.074 0.984 0.068zM34 6h5.34c0.722-0.012 1.348 0.238 1.824 0.664 0.426 0.382 0.728 0.9 0.836 1.492v13.574c-0.074 0.68-0.416 1.26-0.91 1.666-0.47 0.388-1.074 0.612-1.722 0.602l-5.368 0.002c-1.104 0-2 0.896-2 2s0.896 2 2 2h5.312c1.62 0.024 3.138-0.54 4.32-1.512 1.244-1.022 2.118-2.502 2.352-4.22 0.010-0.080 0.016-0.174 0.016-0.268v-14c0-0.084-0.006-0.178-0.018-0.274-0.222-1.606-1.010-3.020-2.15-4.040-1.2-1.074-2.794-1.716-4.492-1.684h-5.34c-1.104 0-2 0.896-2 2s0.896 2 2 2z"></path>
</svg>
