<!-- Generated by IcoMoon.io -->
<svg version="1.1" xmlns="http://www.w3.org/2000/svg" width="48" height="48" viewBox="0 0 48 48">
<title>toggle-right</title>
<path d="M16 8c-4.418 0-8.42 1.794-11.314 4.686s-4.686 6.896-4.686 11.314 1.794 8.42 4.686 11.314 6.896 4.686 11.314 4.686h16c4.418 0 8.42-1.794 11.314-4.686s4.686-6.896 4.686-11.314-1.794-8.42-4.686-11.314-6.896-4.686-11.314-4.686zM16 12h16c3.314 0 6.312 1.34 8.486 3.514s3.514 5.172 3.514 8.486-1.34 6.312-3.514 8.486-5.172 3.514-8.486 3.514h-16c-3.314 0-6.312-1.34-8.486-3.514s-3.514-5.172-3.514-8.486 1.34-6.312 3.514-8.486 5.172-3.514 8.486-3.514zM40 24c0-2.208-0.898-4.212-2.344-5.656s-3.448-2.344-5.656-2.344-4.212 0.898-5.656 2.344-2.344 3.448-2.344 5.656 0.898 4.212 2.344 5.656 3.448 2.344 5.656 2.344 4.212-0.898 5.656-2.344 2.344-3.448 2.344-5.656zM36 24c0 1.106-0.446 2.102-1.172 2.828s-1.722 1.172-2.828 1.172-2.102-0.446-2.828-1.172-1.172-1.722-1.172-2.828 0.446-2.102 1.172-2.828 1.722-1.172 2.828-1.172 2.102 0.446 2.828 1.172 1.172 1.722 1.172 2.828z"></path>
</svg>
