<!-- Generated by IcoMoon.io -->
<svg version="1.1" xmlns="http://www.w3.org/2000/svg" width="48" height="48" viewBox="0 0 48 48">
<title>tool</title>
<path d="M30.814 13.986l7.54-7.512c0.162-0.158 0.304-0.36 0.41-0.592 0.454-1.008 0.004-2.192-1.002-2.644-0.526-0.236-1.064-0.44-1.614-0.612-3.164-0.984-6.68-0.856-9.926 0.614-3.522 1.594-6.066 4.468-7.328 7.818-1.108 2.934-1.234 6.248-0.174 9.394l-12.894 12.894c-1.218 1.218-1.828 2.82-1.828 4.414s0.61 3.196 1.828 4.414 2.82 1.828 4.414 1.828 3.196-0.61 4.414-1.828l12.896-12.896c0.1 0.034 0.2 0.066 0.302 0.098 3.164 0.984 6.68 0.856 9.926-0.614 3.522-1.594 6.066-4.468 7.328-7.818s1.248-7.188-0.346-10.71c-0.090-0.206-0.228-0.41-0.408-0.59-0.782-0.782-2.048-0.782-2.828 0l-7.512 7.54zM27.972 11.2c-0.766 0.78-1.146 1.8-1.144 2.812 0.004 1.004 0.384 2.014 1.142 2.788l3.214 3.216c0.796 0.78 1.814 1.16 2.826 1.158 1.004-0.004 2.014-0.384 2.788-1.142l5.148-5.148c0.18 1.592-0.030 3.186-0.582 4.652-0.904 2.398-2.718 4.444-5.234 5.584-2.32 1.050-4.824 1.142-7.090 0.438-0.394-0.122-0.782-0.27-1.158-0.44-0.774-0.348-1.654-0.164-2.236 0.41l-13.82 13.82c-0.438 0.438-1.008 0.656-1.586 0.656s-1.148-0.218-1.586-0.656-0.656-1.008-0.656-1.586 0.218-1.148 0.656-1.586l13.82-13.82c0.602-0.602 0.74-1.492 0.408-2.238-1.138-2.516-1.15-5.252-0.246-7.65s2.718-4.444 5.234-5.584c1.704-0.772 3.51-1.026 5.246-0.826z"></path>
</svg>
