<!-- Generated by IcoMoon.io -->
<svg version="1.1" xmlns="http://www.w3.org/2000/svg" width="48" height="48" viewBox="0 0 48 48">
<title>trending-down</title>
<path d="M34 38h12c0.272 0 0.53-0.054 0.766-0.152s0.456-0.242 0.648-0.434 0.336-0.412 0.434-0.648c0.098-0.236 0.152-0.494 0.152-0.766v-12c0-1.104-0.896-2-2-2s-2 0.896-2 2v7.172l-15.586-15.586c-0.782-0.782-2.048-0.782-2.828 0l-8.586 8.586-13.586-13.586c-0.782-0.782-2.048-0.782-2.828 0s-0.782 2.048 0 2.828l15 15c0.782 0.782 2.048 0.782 2.828 0l8.586-8.586 14.172 14.172h-7.172c-1.104 0-2 0.896-2 2s0.896 2 2 2z"></path>
</svg>
