<!-- Generated by IcoMoon.io -->
<svg version="1.1" xmlns="http://www.w3.org/2000/svg" width="48" height="48" viewBox="0 0 48 48">
<title>truck</title>
<path d="M30 30h-26v-22h26v8zM34 18h5.172l4.828 4.828v7.172h-10zM14 37c0 0.828-0.334 1.576-0.878 2.122s-1.294 0.878-2.122 0.878-1.576-0.334-2.122-0.878-0.878-1.294-0.878-2.122 0.334-1.576 0.878-2.122 1.294-0.878 2.122-0.878 1.576 0.334 2.122 0.878 0.878 1.294 0.878 2.122zM44 37c0-1.074-0.242-2.090-0.674-3h2.674c1.104 0 2-0.896 2-2v-10c0-0.512-0.196-1.024-0.586-1.414l-6-6c-0.362-0.362-0.862-0.586-1.414-0.586h-6v-8c0-1.104-0.896-2-2-2h-30c-1.104 0-2 0.896-2 2v26c0 1.104 0.896 2 2 2h2.674c-0.432 0.91-0.674 1.926-0.674 3 0 1.932 0.786 3.686 2.050 4.95s3.018 2.050 4.95 2.050 3.686-0.786 4.95-2.050 2.050-3.018 2.050-4.95c0-1.074-0.242-2.090-0.674-3h13.348c-0.432 0.91-0.674 1.926-0.674 3 0 1.932 0.786 3.686 2.050 4.95s3.018 2.050 4.95 2.050 3.686-0.786 4.95-2.050 2.050-3.018 2.050-4.95zM40 37c0 0.828-0.334 1.576-0.878 2.122s-1.294 0.878-2.122 0.878-1.576-0.334-2.122-0.878-0.878-1.294-0.878-2.122 0.334-1.576 0.878-2.122 1.294-0.878 2.122-0.878 1.576 0.334 2.122 0.878 0.878 1.294 0.878 2.122z"></path>
</svg>
