<!-- Generated by IcoMoon.io -->
<svg version="1.1" xmlns="http://www.w3.org/2000/svg" width="48" height="48" viewBox="0 0 48 48">
<title>tv</title>
<path d="M24 16h16c0.552 0 1.050 0.222 1.414 0.586s0.586 0.862 0.586 1.414v22c0 0.552-0.222 1.050-0.586 1.414s-0.862 0.586-1.414 0.586h-32c-0.552 0-1.050-0.222-1.414-0.586s-0.586-0.862-0.586-1.414v-22c0-0.552 0.222-1.050 0.586-1.414s0.862-0.586 1.414-0.586h16zM32.586 2.586l-8.586 8.586-8.586-8.586c-0.782-0.782-2.048-0.782-2.828 0s-0.782 2.048 0 2.828l6.586 6.586h-11.172c-1.656 0-3.16 0.674-4.242 1.758s-1.758 2.586-1.758 4.242v22c0 1.656 0.674 3.16 1.758 4.242s2.586 1.758 4.242 1.758h32c1.656 0 3.16-0.674 4.242-1.758s1.758-2.586 1.758-4.242v-22c0-1.656-0.674-3.16-1.758-4.242s-2.586-1.758-4.242-1.758h-11.172l6.586-6.586c0.782-0.782 0.782-2.048 0-2.828s-2.048-0.782-2.828 0z"></path>
</svg>
