<!-- Generated by IcoMoon.io -->
<svg version="1.1" xmlns="http://www.w3.org/2000/svg" width="48" height="48" viewBox="0 0 48 48">
<title>twitch</title>
<path d="M40 6v21.172l-6.828 6.828h-9.172c-0.512 0-1.024 0.196-1.414 0.586l-4.586 4.586v-3.172c0-1.104-0.896-2-2-2h-8v-28zM42 2h-36c-1.104 0-2 0.896-2 2v32c0 1.104 0.896 2 2 2h8v6c0 1.104 0.896 2 2 2 0.552 0 1.052-0.224 1.414-0.586l7.414-7.414h9.172c0.552 0 1.052-0.224 1.414-0.586l8-8c0.39-0.39 0.586-0.902 0.586-1.414v-24c0-1.104-0.896-2-2-2zM24 22v-8c0-1.104-0.896-2-2-2s-2 0.896-2 2v8c0 1.104 0.896 2 2 2s2-0.896 2-2zM34 22v-8c0-1.104-0.896-2-2-2s-2 0.896-2 2v8c0 1.104 0.896 2 2 2s2-0.896 2-2z"></path>
</svg>
