<!-- Generated by IcoMoon.io -->
<svg version="1.1" xmlns="http://www.w3.org/2000/svg" width="48" height="48" viewBox="0 0 48 48">
<title>twitter</title>
<path d="M41.666 10.524c-0.372 0.484-0.782 0.95-1.232 1.392-0.466 0.464-0.694 1.134-0.556 1.816 0.074 0.364 0.12 0.808 0.122 1.268 0 10.512-4.858 17.942-11.62 21.796-5.294 3.018-11.876 3.91-18.444 2.24 2.49-0.722 4.92-1.842 7.186-3.38 0.294-0.198 0.546-0.486 0.704-0.842 0.448-1.010-0.006-2.192-1.016-2.64-5.548-2.466-8.26-5.862-9.538-9.186-0.834-2.168-1.092-4.396-1.040-6.454 0.042-1.622 0.276-3.12 0.556-4.364 0.788 0.686 1.606 1.412 2.47 2.076 4.102 3.154 9.248 4.958 14.79 4.814 1.086-0.030 1.952-0.914 1.952-2v-2.022c-0.004-0.358 0.018-0.714 0.068-1.066 0.226-1.612 1.008-3.138 2.324-4.282 1.45-1.262 3.272-1.816 5.052-1.692s3.506 0.926 4.768 2.376c0.504 0.572 1.298 0.832 2.066 0.608 0.462-0.134 0.926-0.286 1.39-0.456zM44.848 4.366c-1.48 1.044-3.046 1.852-4.574 2.41-1.862-1.672-4.182-2.604-6.552-2.77-2.796-0.194-5.672 0.678-7.954 2.664-2.072 1.802-3.304 4.216-3.66 6.744-0.074 0.53-0.11 1.064-0.108 1.6-3.844-0.284-7.386-1.7-10.3-3.94-1.55-1.192-2.924-2.618-4.068-4.232-0.64-0.9-1.888-1.114-2.788-0.474-0.308 0.218-0.534 0.506-0.67 0.818 0 0-0.264 0.598-0.57 1.52-0.224 0.674-0.482 1.55-0.714 2.58-0.326 1.444-0.604 3.204-0.652 5.142-0.062 2.454 0.24 5.224 1.304 7.992 1.366 3.55 3.932 6.956 8.294 9.646-3.138 1.452-6.49 2.078-9.746 1.934-1.104-0.048-2.038 0.806-2.086 1.91-0.034 0.778 0.38 1.472 1.026 1.836 9.81 5.45 20.852 5.356 29.332 0.522 8.080-4.602 13.638-13.4 13.638-25.268-0.002-0.334-0.016-0.66-0.046-0.978 2.012-2.23 3.352-4.858 3.992-7.562 0.254-1.074-0.412-2.152-1.486-2.406-0.58-0.138-1.16-0.006-1.614 0.312z"></path>
</svg>
