<!-- Generated by IcoMoon.io -->
<svg version="1.1" xmlns="http://www.w3.org/2000/svg" width="48" height="48" viewBox="0 0 48 48">
<title>umbrella</title>
<path d="M43.68 22h-39.348c0.774-3.648 2.518-6.948 4.97-9.592 3.234-3.488 7.696-5.83 12.788-6.316 5.526-0.528 10.738 1.232 14.708 4.51 3.434 2.836 5.93 6.802 6.882 11.4zM47.99 23.81c-0.632-6.624-3.892-12.368-8.646-16.294s-11.010-6.040-17.634-5.408c-6.104 0.582-11.462 3.398-15.34 7.578-3.518 3.794-5.818 8.714-6.36 14.114-0.11 1.1 0.692 2.080 1.79 2.19 0.070 0.008 0.14 0.010 0.2 0.010h44c1.062 0 1.932-0.828 1.996-1.874-0.002-0.274-0.004-0.296-0.006-0.316zM34 38c0 1.106-0.446 2.102-1.172 2.828s-1.722 1.172-2.828 1.172-2.102-0.446-2.828-1.172-1.172-1.722-1.172-2.828v-14c0-1.104-0.896-2-2-2s-2 0.896-2 2v14c0 2.208 0.898 4.212 2.344 5.656s3.448 2.344 5.656 2.344 4.212-0.898 5.656-2.344 2.344-3.448 2.344-5.656c0-1.104-0.896-2-2-2s-2 0.896-2 2z"></path>
</svg>
