<!-- Generated by IcoMoon.io -->
<svg version="1.1" xmlns="http://www.w3.org/2000/svg" width="48" height="48" viewBox="0 0 48 48">
<title>underline</title>
<path d="M10 6v14c0 3.866 1.57 7.368 4.1 9.9s6.034 4.1 9.9 4.1 7.368-1.57 9.9-4.1 4.1-6.034 4.1-9.9v-14c0-1.104-0.896-2-2-2s-2 0.896-2 2v14c0 2.762-1.118 5.26-2.928 7.072s-4.31 2.928-7.072 2.928-5.26-1.118-7.072-2.928-2.928-4.31-2.928-7.072v-14c0-1.104-0.896-2-2-2s-2 0.896-2 2zM8 44h32c1.104 0 2-0.896 2-2s-0.896-2-2-2h-32c-1.104 0-2 0.896-2 2s0.896 2 2 2z"></path>
</svg>
