<!-- Generated by IcoMoon.io -->
<svg version="1.1" xmlns="http://www.w3.org/2000/svg" width="48" height="48" viewBox="0 0 48 48">
<title>unlock</title>
<path d="M10 24h28c0.552 0 1.050 0.222 1.414 0.586s0.586 0.862 0.586 1.414v14c0 0.552-0.222 1.050-0.586 1.414s-0.862 0.586-1.414 0.586h-28c-0.552 0-1.050-0.222-1.414-0.586s-0.586-0.862-0.586-1.414v-14c0-0.552 0.222-1.050 0.586-1.414s0.862-0.586 1.414-0.586zM16 20v-6c-0.002-2.212 0.89-4.21 2.338-5.662 1.446-1.448 3.438-2.344 5.642-2.348 2.060 0.006 3.896 0.756 5.304 2 1.276 1.13 2.194 2.664 2.56 4.418 0.226 1.082 1.284 1.776 2.366 1.55s1.776-1.284 1.55-2.366c-0.544-2.614-1.916-4.908-3.824-6.598-2.12-1.876-4.904-3.008-7.946-3.004-3.314 0.004-6.314 1.352-8.482 3.524s-3.512 5.174-3.508 8.486v6h-2c-1.656 0-3.16 0.674-4.242 1.758s-1.758 2.586-1.758 4.242v14c0 1.656 0.674 3.16 1.758 4.242s2.586 1.758 4.242 1.758h28c1.656 0 3.16-0.674 4.242-1.758s1.758-2.586 1.758-4.242v-14c0-1.656-0.674-3.16-1.758-4.242s-2.586-1.758-4.242-1.758z"></path>
</svg>
