<!-- Generated by IcoMoon.io -->
<svg version="1.1" xmlns="http://www.w3.org/2000/svg" width="48" height="48" viewBox="0 0 48 48">
<title>upload</title>
<path d="M40 30v8c0 0.552-0.222 1.050-0.586 1.414s-0.862 0.586-1.414 0.586h-28c-0.552 0-1.050-0.222-1.414-0.586s-0.586-0.862-0.586-1.414v-8c0-1.104-0.896-2-2-2s-2 0.896-2 2v8c0 1.656 0.674 3.16 1.758 4.242s2.586 1.758 4.242 1.758h28c1.656 0 3.16-0.674 4.242-1.758s1.758-2.586 1.758-4.242v-8c0-1.104-0.896-2-2-2s-2 0.896-2 2zM22 10.828v19.172c0 1.104 0.896 2 2 2s2-0.896 2-2v-19.172l6.586 6.586c0.782 0.782 2.048 0.782 2.828 0s0.782-2.048 0-2.828l-10-10c-0.184-0.184-0.404-0.332-0.648-0.434-0.49-0.202-1.042-0.202-1.532 0-0.236 0.098-0.456 0.242-0.648 0.434l-10 10c-0.782 0.782-0.782 2.048 0 2.828s2.048 0.782 2.828 0z"></path>
</svg>
