<!-- Generated by IcoMoon.io -->
<svg version="1.1" xmlns="http://www.w3.org/2000/svg" width="48" height="48" viewBox="0 0 48 48">
<title>upload-cloud</title>
<path d="M22 28.828v13.172c0 1.104 0.896 2 2 2s2-0.896 2-2v-13.172l4.586 4.586c0.782 0.782 2.048 0.782 2.828 0s0.782-2.048 0-2.828l-8-8c-0.184-0.184-0.404-0.332-0.648-0.434s-0.506-0.152-0.766-0.152c-0.512 0-1.024 0.196-1.414 0.586l-8 8c-0.782 0.782-0.782 2.048 0 2.828s2.048 0.782 2.828 0zM41.738 38.536c2.908-1.586 4.902-4.204 5.768-7.148s0.61-6.224-0.976-9.132c-1.358-2.49-3.474-4.31-5.918-5.326-1.448-0.602-3.010-0.92-4.598-0.93h-1.054c-1.45-4.114-4.288-7.416-7.834-9.504-3.966-2.336-8.83-3.162-13.642-1.918s-8.666 4.324-11.004 8.29-3.162 8.83-1.918 13.642c0.744 2.874 2.146 5.418 3.95 7.426 0.738 0.822 2.004 0.888 2.824 0.15s0.888-2.004 0.15-2.824c-1.376-1.53-2.47-3.5-3.052-5.754-0.968-3.744-0.328-7.522 1.492-10.61s4.814-5.48 8.558-6.448 7.522-0.328 10.61 1.492 5.48 4.814 6.448 8.558c0.232 0.87 1.012 1.5 1.938 1.5h2.506c1.072 0.008 2.122 0.222 3.090 0.624 1.63 0.678 3.034 1.886 3.94 3.546 1.058 1.94 1.23 4.122 0.65 6.088s-1.906 3.708-3.846 4.764c-0.97 0.528-1.328 1.744-0.798 2.714s1.744 1.328 2.714 0.798z"></path>
</svg>
