<!-- Generated by IcoMoon.io -->
<svg version="1.1" xmlns="http://www.w3.org/2000/svg" width="48" height="48" viewBox="0 0 48 48">
<title>users</title>
<path d="M36 42v-4c0-2.76-1.122-5.264-2.928-7.072s-4.312-2.928-7.072-2.928h-16c-2.76 0-5.264 1.122-7.072 2.928s-2.928 4.312-2.928 7.072v4c0 1.104 0.896 2 2 2s2-0.896 2-2v-4c0-1.658 0.67-3.154 1.758-4.242s2.584-1.758 4.242-1.758h16c1.658 0 3.154 0.67 4.242 1.758s1.758 2.584 1.758 4.242v4c0 1.104 0.896 2 2 2s2-0.896 2-2zM28 14c0-2.76-1.122-5.264-2.928-7.072s-4.312-2.928-7.072-2.928-5.264 1.122-7.072 2.928-2.928 4.312-2.928 7.072 1.122 5.264 2.928 7.072 4.312 2.928 7.072 2.928 5.264-1.122 7.072-2.928 2.928-4.312 2.928-7.072zM24 14c0 1.658-0.67 3.154-1.758 4.242s-2.584 1.758-4.242 1.758-3.154-0.67-4.242-1.758-1.758-2.584-1.758-4.242 0.67-3.154 1.758-4.242 2.584-1.758 4.242-1.758 3.154 0.67 4.242 1.758 1.758 2.584 1.758 4.242zM48 42v-4c-0.002-2.49-0.914-4.77-2.43-6.522-1.304-1.506-3.056-2.622-5.058-3.152-1.068-0.282-2.162 0.354-2.444 1.422s0.354 2.162 1.422 2.444c1.214 0.322 2.272 0.996 3.056 1.904 0.908 1.052 1.452 2.412 1.454 3.904v4c0 1.104 0.896 2 2 2s2-0.896 2-2zM31.504 8.198c1.606 0.412 2.89 1.43 3.674 2.754s1.062 2.94 0.65 4.546c-0.352 1.376-1.15 2.512-2.21 3.304-0.628 0.47-1.35 0.818-2.126 1.022-1.068 0.28-1.708 1.374-1.426 2.442s1.374 1.708 2.442 1.426c1.274-0.334 2.464-0.91 3.504-1.688 1.768-1.32 3.104-3.226 3.69-5.516 0.684-2.674 0.22-5.378-1.084-7.576s-3.45-3.906-6.124-4.592c-1.070-0.274-2.16 0.372-2.434 1.442s0.372 2.16 1.442 2.434z"></path>
</svg>
