<!-- Generated by IcoMoon.io -->
<svg version="1.1" xmlns="http://www.w3.org/2000/svg" width="48" height="48" viewBox="0 0 48 48">
<title>user-check</title>
<path d="M34 42v-4c0-2.76-1.122-5.264-2.928-7.072s-4.312-2.928-7.072-2.928h-14c-2.76 0-5.264 1.122-7.072 2.928s-2.928 4.312-2.928 7.072v4c0 1.104 0.896 2 2 2s2-0.896 2-2v-4c0-1.658 0.67-3.154 1.758-4.242s2.584-1.758 4.242-1.758h14c1.658 0 3.154 0.67 4.242 1.758s1.758 2.584 1.758 4.242v4c0 1.104 0.896 2 2 2s2-0.896 2-2zM27 14c0-2.76-1.122-5.264-2.928-7.072s-4.312-2.928-7.072-2.928-5.264 1.122-7.072 2.928-2.928 4.312-2.928 7.072 1.122 5.264 2.928 7.072 4.312 2.928 7.072 2.928 5.264-1.122 7.072-2.928 2.928-4.312 2.928-7.072zM23 14c0 1.658-0.67 3.154-1.758 4.242s-2.584 1.758-4.242 1.758-3.154-0.67-4.242-1.758-1.758-2.584-1.758-4.242 0.67-3.154 1.758-4.242 2.584-1.758 4.242-1.758 3.154 0.67 4.242 1.758 1.758 2.584 1.758 4.242zM32.586 23.414l4 4c0.782 0.782 2.048 0.782 2.828 0l8-8c0.782-0.782 0.782-2.048 0-2.828s-2.048-0.782-2.828 0l-6.586 6.586-2.586-2.586c-0.782-0.782-2.048-0.782-2.828 0s-0.782 2.048 0 2.828z"></path>
</svg>
