<!-- Generated by IcoMoon.io -->
<svg version="1.1" xmlns="http://www.w3.org/2000/svg" width="48" height="48" viewBox="0 0 48 48">
<title>video-off</title>
<path d="M21.32 12h6.68c0.552 0 1.050 0.222 1.414 0.586s0.586 0.862 0.586 1.414v6.68c0 0.552 0.224 1.052 0.586 1.414l2 2c0.702 0.702 1.796 0.774 2.586 0.206l8.828-6.384v16.084c0 1.104 0.896 2 2 2s2-0.896 2-2v-20c0.002-0.402-0.122-0.816-0.38-1.172-0.648-0.894-1.898-1.096-2.792-0.448l-10.618 7.682-0.21-0.21v-5.852c0-1.656-0.674-3.16-1.758-4.242s-2.586-1.758-4.242-1.758h-6.68c-1.104 0-2 0.896-2 2s0.896 2 2 2zM9.172 12l20.828 20.828v1.172c0 0.552-0.222 1.050-0.586 1.414s-0.862 0.586-1.414 0.586h-22c-0.552 0-1.050-0.222-1.414-0.586s-0.586-0.862-0.586-1.414v-20c0-0.552 0.222-1.050 0.586-1.414s0.862-0.586 1.414-0.586zM0.586 3.414l4.636 4.636c-1.346 0.174-2.554 0.796-3.464 1.708-1.084 1.082-1.758 2.586-1.758 4.242v20c0 1.656 0.674 3.16 1.758 4.242s2.586 1.758 4.242 1.758h22c1.656 0 3.16-0.674 4.242-1.758 0.538-0.538 0.976-1.18 1.28-1.892l11.064 11.064c0.782 0.782 2.048 0.782 2.828 0s0.782-2.048 0-2.828l-44-44c-0.782-0.782-2.048-0.782-2.828 0s-0.782 2.048 0 2.828z"></path>
</svg>
