<!-- Generated by IcoMoon.io -->
<svg version="1.1" xmlns="http://www.w3.org/2000/svg" width="48" height="48" viewBox="0 0 48 48">
<title>video</title>
<path d="M44 17.886v12.228l-8.56-6.114zM6 8c-1.656 0-3.16 0.674-4.242 1.758s-1.758 2.586-1.758 4.242v20c0 1.656 0.674 3.16 1.758 4.242s2.586 1.758 4.242 1.758h22c1.656 0 3.16-0.674 4.242-1.758s1.758-2.586 1.758-4.242v-6.114l10.838 7.742c0.898 0.642 2.148 0.434 2.79-0.464 0.252-0.356 0.374-0.766 0.372-1.164v-20c0-1.104-0.896-2-2-2-0.436 0-0.84 0.14-1.162 0.372l-10.838 7.742v-6.114c0-1.656-0.674-3.16-1.758-4.242s-2.586-1.758-4.242-1.758zM6 12h22c0.552 0 1.050 0.222 1.414 0.586s0.586 0.862 0.586 1.414v20c0 0.552-0.222 1.050-0.586 1.414s-0.862 0.586-1.414 0.586h-22c-0.552 0-1.050-0.222-1.414-0.586s-0.586-0.862-0.586-1.414v-20c0-0.552 0.222-1.050 0.586-1.414s0.862-0.586 1.414-0.586z"></path>
</svg>
