<!-- Generated by IcoMoon.io -->
<svg version="1.1" xmlns="http://www.w3.org/2000/svg" width="48" height="48" viewBox="0 0 48 48">
<title>voicemail</title>
<path d="M18 23c0 1.934-0.782 3.68-2.050 4.95s-3.016 2.050-4.95 2.050-3.68-0.782-4.95-2.050-2.050-3.016-2.050-4.95 0.782-3.68 2.050-4.95 3.016-2.050 4.95-2.050 3.68 0.782 4.95 2.050 2.050 3.016 2.050 4.95zM44 23c0 1.934-0.782 3.68-2.050 4.95s-3.016 2.050-4.95 2.050-3.68-0.782-4.95-2.050-2.050-3.016-2.050-4.95 0.782-3.68 2.050-4.95 3.016-2.050 4.95-2.050 3.68 0.782 4.95 2.050 2.050 3.016 2.050 4.95zM11 34h26c3.038 0 5.79-1.234 7.778-3.222s3.222-4.74 3.222-7.778-1.234-5.79-3.222-7.778-4.74-3.222-7.778-3.222-5.79 1.234-7.778 3.222-3.222 4.74-3.222 7.778c0 2.658 0.946 5.1 2.514 7h-9.028c1.568-1.9 2.514-4.342 2.514-7 0-3.038-1.234-5.79-3.222-7.778s-4.74-3.222-7.778-3.222-5.79 1.234-7.778 3.222-3.222 4.74-3.222 7.778 1.234 5.79 3.222 7.778 4.74 3.222 7.778 3.222z"></path>
</svg>
