<!-- Generated by IcoMoon.io -->
<svg version="1.1" xmlns="http://www.w3.org/2000/svg" width="48" height="48" viewBox="0 0 48 48">
<title>volume-1</title>
<path d="M20 14.162v19.678l-6.75-5.4c-0.34-0.274-0.776-0.44-1.25-0.44h-6v-8h6c0.436 0.002 0.878-0.142 1.25-0.438zM20.75 8.438l-9.452 7.562h-7.298c-1.104 0-2 0.896-2 2v12c0 1.104 0.896 2 2 2h7.298l9.452 7.562c0.862 0.69 2.122 0.55 2.812-0.312 0.296-0.37 0.44-0.814 0.438-1.25v-28c0-1.104-0.896-2-2-2-0.474 0-0.91 0.166-1.25 0.438zM29.666 18.334c1.562 1.562 2.342 3.606 2.342 5.656s-0.78 4.094-2.342 5.656c-0.78 0.782-0.78 2.048 0 2.828s2.048 0.78 2.828 0c2.342-2.342 3.514-5.416 3.514-8.484s-1.172-6.142-3.514-8.484c-0.78-0.782-2.048-0.782-2.828 0s-0.782 2.048 0 2.828z"></path>
</svg>
