<!-- Generated by IcoMoon.io -->
<svg version="1.1" xmlns="http://www.w3.org/2000/svg" width="48" height="48" viewBox="0 0 48 48">
<title>watch</title>
<path d="M22 18v6c0 0.552 0.224 1.052 0.586 1.414l3 3c0.782 0.782 2.048 0.782 2.828 0s0.782-2.048 0-2.828l-2.414-2.414v-5.172c0-1.104-0.896-2-2-2s-2 0.896-2 2zM30.66 38.552l-0.332 3.626c-0.048 0.532-0.294 0.99-0.666 1.316-0.36 0.318-0.83 0.506-1.34 0.506h-8.662c-0.54 0.002-1.018-0.2-1.38-0.538-0.35-0.328-0.582-0.778-0.63-1.286l-0.33-3.634c2.032 0.936 4.296 1.458 6.68 1.458 2.376 0 4.632-0.518 6.66-1.448zM16.374 14.734c2.074-1.71 4.728-2.734 7.626-2.734 3.314 0 6.312 1.34 8.486 3.514s3.514 5.172 3.514 8.486-1.34 6.312-3.514 8.486c-0.208 0.208-0.422 0.408-0.646 0.6-0.070 0.062-0.142 0.122-0.214 0.18-2.074 1.71-4.728 2.734-7.626 2.734-3.314 0-6.312-1.34-8.486-3.514s-3.514-5.172-3.514-8.486 1.34-6.312 3.514-8.486c0.208-0.208 0.422-0.408 0.646-0.6 0.070-0.062 0.142-0.122 0.214-0.18zM34.982 12.364l-0.63-6.91c-0.14-1.512-0.836-2.86-1.876-3.834-1.078-1.010-2.532-1.626-4.116-1.62h-8.708c-1.51 0.006-2.908 0.572-3.97 1.514-1.102 0.976-1.85 2.364-1.994 3.944l-0.628 6.866c-0.126 0.118-0.252 0.24-0.374 0.362-2.892 2.894-4.686 6.896-4.686 11.314s1.794 8.42 4.686 11.314c0.116 0.116 0.234 0.23 0.352 0.342l0.63 6.89c0.14 1.512 0.836 2.86 1.876 3.834 1.078 1.010 2.532 1.626 4.116 1.62h8.658c1.518 0.002 2.926-0.564 3.994-1.508 1.106-0.978 1.858-2.368 2-3.95l0.628-6.866c0.126-0.118 0.252-0.24 0.374-0.362 2.892-2.894 4.686-6.896 4.686-11.314s-1.794-8.42-4.686-11.314c-0.108-0.108-0.22-0.216-0.33-0.322zM17.34 9.448l0.332-3.626c0.048-0.53 0.294-0.988 0.662-1.314 0.358-0.318 0.824-0.506 1.334-0.508h8.692c0.54-0.002 1.018 0.2 1.38 0.538 0.35 0.328 0.582 0.778 0.63 1.286l0.332 3.642c-2.040-0.94-4.31-1.466-6.702-1.466-2.376 0-4.632 0.518-6.66 1.448z"></path>
</svg>
