<!-- Generated by IcoMoon.io -->
<svg version="1.1" xmlns="http://www.w3.org/2000/svg" width="48" height="48" viewBox="0 0 48 48">
<title>wifi</title>
<path d="M11.28 26.636c3.924-3.268 8.722-4.778 13.466-4.61 4.334 0.154 8.62 1.71 12.142 4.616 0.852 0.702 2.112 0.582 2.816-0.27s0.582-2.112-0.27-2.816c-4.214-3.476-9.348-5.342-14.544-5.526-5.692-0.202-11.462 1.612-16.168 5.534-0.848 0.706-0.964 1.968-0.256 2.816s1.968 0.964 2.816 0.256zM4.162 19.5c5.874-5.178 13.2-7.64 20.472-7.474 6.886 0.158 13.718 2.674 19.208 7.478 0.832 0.728 2.094 0.644 2.822-0.188s0.644-2.094-0.188-2.822c-6.216-5.44-13.954-8.29-21.752-8.468-8.238-0.188-16.55 2.606-23.206 8.474-0.83 0.73-0.908 1.994-0.178 2.822s1.994 0.908 2.822 0.178zM18.218 33.85c1.98-1.408 4.292-1.99 6.548-1.812 1.782 0.14 3.53 0.756 5.046 1.818 0.904 0.634 2.152 0.414 2.786-0.49s0.414-2.152-0.49-2.786c-2.106-1.476-4.538-2.334-7.026-2.53-3.16-0.25-6.408 0.57-9.18 2.538-0.9 0.64-1.112 1.888-0.472 2.788s1.888 1.112 2.788 0.472zM24 42c1.104 0 2-0.896 2-2s-0.896-2-2-2-2 0.896-2 2 0.896 2 2 2z"></path>
</svg>
