<!-- Generated by IcoMoon.io -->
<svg version="1.1" xmlns="http://www.w3.org/2000/svg" width="48" height="48" viewBox="0 0 48 48">
<title>wifi-off</title>
<path d="M32.562 23.918c1.578 0.77 2.996 1.714 4.128 2.694 0.836 0.722 2.098 0.632 2.822-0.204s0.632-2.098-0.204-2.822c-1.406-1.218-3.118-2.35-4.992-3.266-0.992-0.484-2.19-0.072-2.674 0.92s-0.072 2.19 0.92 2.674zM21.58 12.094c8.040-0.648 15.592 1.936 21.392 6.674 0.292 0.24 0.58 0.484 0.864 0.734 0.828 0.73 2.092 0.65 2.822-0.178s0.65-2.092-0.178-2.822c-0.32-0.282-0.648-0.56-0.978-0.83-6.568-5.366-15.132-8.298-24.244-7.562-1.1 0.086-1.92 1.050-1.832 2.15s1.054 1.922 2.154 1.832zM18.218 33.85c1.98-1.408 4.292-1.99 6.548-1.812 1.782 0.14 3.53 0.756 5.046 1.818 0.466 0.326 1.024 0.426 1.54 0.324l13.234 13.234c0.782 0.782 2.048 0.782 2.828 0s0.782-2.048 0-2.828l-25.5-25.5c-0.1-0.126-0.212-0.24-0.338-0.338l-18.162-18.162c-0.782-0.782-2.048-0.782-2.828 0s-0.782 2.048 0 2.828l8.176 8.176c-2.514 1.258-4.98 2.906-7.246 4.91-0.828 0.732-0.906 1.996-0.174 2.824s1.996 0.906 2.824 0.174c2.382-2.106 4.998-3.754 7.604-4.902l4.646 4.646c-2.716 0.914-5.342 2.354-7.698 4.322-0.848 0.708-0.96 1.97-0.252 2.818s1.97 0.96 2.818 0.252c2.54-2.124 5.448-3.5 8.376-4.148l5.578 5.578c-0.052-0.004-0.104-0.010-0.156-0.014-3.16-0.25-6.408 0.57-9.18 2.538-0.9 0.64-1.112 1.888-0.472 2.788s1.888 1.112 2.788 0.472zM24 42c1.104 0 2-0.896 2-2s-0.896-2-2-2-2 0.896-2 2 0.896 2 2 2z"></path>
</svg>
