<!-- Generated by IcoMoon.io -->
<svg version="1.1" xmlns="http://www.w3.org/2000/svg" width="48" height="48" viewBox="0 0 48 48">
<title>wind</title>
<path d="M20.598 10.59c0.39-0.392 0.898-0.588 1.412-0.59s1.024 0.192 1.416 0.582 0.588 0.898 0.59 1.412-0.192 1.024-0.582 1.416c-0.384 0.388-0.884 0.584-1.394 0.59h-18.040c-1.104 0-2 0.896-2 2s0.896 2 2 2h18.086c1.516-0.018 3.032-0.608 4.186-1.77 1.168-1.174 1.75-2.716 1.744-4.248s-0.596-3.070-1.77-4.238-2.714-1.748-4.246-1.744-3.070 0.596-4.238 1.77c-0.78 0.784-0.776 2.050 0.008 2.828s2.050 0.774 2.828-0.008zM23.762 40.23c1.168 1.174 2.704 1.766 4.238 1.77s3.074-0.578 4.248-1.744 1.766-2.704 1.77-4.238-0.578-3.074-1.744-4.248c-1.154-1.162-2.67-1.752-4.186-1.77h-24.088c-1.104 0-2 0.896-2 2s0.896 2 2 2h24.040c0.51 0.006 1.010 0.202 1.396 0.59 0.39 0.392 0.584 0.902 0.582 1.416s-0.198 1.022-0.59 1.412-0.902 0.584-1.416 0.582-1.022-0.198-1.412-0.59c-0.778-0.784-2.046-0.788-2.828-0.008s-0.788 2.046-0.008 2.828zM36.872 16.876c0.588-0.586 1.352-0.876 2.122-0.876s1.534 0.294 2.12 0.882 0.876 1.352 0.876 2.122-0.294 1.534-0.882 2.12c-0.584 0.584-1.346 0.874-2.114 0.876h-34.994c-1.104 0-2 0.896-2 2s0.896 2 2 2h35.004c1.782-0.004 3.568-0.684 4.932-2.044 1.368-1.364 2.054-3.158 2.056-4.948s-0.68-3.584-2.044-4.952-3.16-2.054-4.948-2.056-3.584 0.68-4.952 2.044c-0.782 0.78-0.784 2.046-0.004 2.828s2.046 0.784 2.828 0.004z"></path>
</svg>
