<!-- Generated by IcoMoon.io -->
<svg version="1.1" xmlns="http://www.w3.org/2000/svg" width="48" height="48" viewBox="0 0 48 48">
<title>x-octagon</title>
<path d="M15.72 2c-0.512 0-1.024 0.196-1.414 0.586l-11.72 11.72c-0.362 0.362-0.586 0.862-0.586 1.414v16.56c0 0.512 0.196 1.024 0.586 1.414l11.72 11.72c0.362 0.362 0.862 0.586 1.414 0.586h16.56c0.512 0 1.024-0.196 1.414-0.586l11.72-11.72c0.362-0.362 0.586-0.862 0.586-1.414v-16.56c0-0.512-0.196-1.024-0.586-1.414l-11.72-11.72c-0.362-0.362-0.862-0.586-1.414-0.586zM16.548 6h14.904l10.548 10.548v14.904l-10.548 10.548h-14.904l-10.548-10.548v-14.904zM16.586 19.414l4.586 4.586-4.586 4.586c-0.782 0.782-0.782 2.048 0 2.828s2.048 0.782 2.828 0l4.586-4.586 4.586 4.586c0.782 0.782 2.048 0.782 2.828 0s0.782-2.048 0-2.828l-4.586-4.586 4.586-4.586c0.782-0.782 0.782-2.048 0-2.828s-2.048-0.782-2.828 0l-4.586 4.586-4.586-4.586c-0.782-0.782-2.048-0.782-2.828 0s-0.782 2.048 0 2.828z"></path>
</svg>
