<!-- Generated by IcoMoon.io -->
<svg version="1.1" xmlns="http://www.w3.org/2000/svg" width="48" height="48" viewBox="0 0 48 48">
<title>youtube</title>
<path d="M43.126 13.274c0.574 3.058 0.896 6.59 0.874 10.25 0.038 3.056-0.246 6.534-0.874 10.042-0.114 0.416-0.3 0.806-0.544 1.15-0.454 0.642-1.116 1.13-1.898 1.35-1.208 0.322-4.312 0.55-7.754 0.682-4.46 0.172-8.93 0.172-8.93 0.172s-4.47 0-8.93-0.17c-3.442-0.132-6.546-0.358-7.732-0.676-0.41-0.114-0.792-0.298-1.132-0.536-0.622-0.44-1.1-1.072-1.34-1.846-0.57-3.052-0.888-6.572-0.866-10.22-0.042-3.080 0.242-6.584 0.874-10.12 0.114-0.416 0.3-0.806 0.544-1.15 0.454-0.642 1.116-1.13 1.898-1.35 1.208-0.322 4.312-0.55 7.754-0.682 4.46-0.17 8.93-0.17 8.93-0.17s4.47 0 8.932 0.156c3.438 0.12 6.564 0.326 7.712 0.606 0.438 0.126 0.842 0.33 1.196 0.598 0.614 0.464 1.076 1.122 1.286 1.916zM47.020 12.354c-0.434-1.732-1.436-3.18-2.766-4.186-0.746-0.564-1.592-0.988-2.498-1.25-1.796-0.44-5.392-0.646-8.684-0.76-4.534-0.158-9.072-0.158-9.072-0.158s-4.544 0-9.082 0.174c-3.284 0.126-6.9 0.35-8.634 0.814-1.748 0.494-3.162 1.54-4.128 2.9-0.54 0.762-0.938 1.622-1.174 2.536-0.012 0.048-0.022 0.098-0.030 0.142-0.686 3.796-0.998 7.586-0.952 10.962-0.024 3.848 0.322 7.662 0.954 11.004 0.012 0.062 0.026 0.124 0.042 0.176 0.49 1.72 1.54 3.134 2.902 4.096 0.714 0.504 1.514 0.886 2.364 1.122 1.758 0.47 5.372 0.694 8.656 0.82 4.538 0.174 9.082 0.174 9.082 0.174s4.544 0 9.082-0.174c3.284-0.126 6.898-0.35 8.634-0.814 1.746-0.494 3.162-1.54 4.126-2.9 0.54-0.762 0.94-1.622 1.174-2.534 0.012-0.050 0.024-0.1 0.030-0.142 0.68-3.768 0.992-7.53 0.952-10.88 0.024-3.85-0.322-7.666-0.954-11.008-0.008-0.040-0.016-0.080-0.024-0.114zM21.5 26.602v-6.204l5.454 3.102zM20.488 31.778l11.5-6.54c0.96-0.546 1.296-1.768 0.75-2.728-0.186-0.328-0.452-0.584-0.75-0.75l-11.5-6.54c-0.96-0.546-2.182-0.21-2.728 0.75-0.18 0.316-0.264 0.66-0.262 0.988v13.080c0 1.104 0.896 2 2 2 0.364 0 0.704-0.098 0.988-0.262z"></path>
</svg>
