<!-- Generated by IcoMoon.io -->
<svg version="1.1" xmlns="http://www.w3.org/2000/svg" width="48" height="48" viewBox="0 0 48 48">
<title>zap-off</title>
<path d="M26.804 13.746l1.18-9.5c0.136-1.096-0.642-2.096-1.738-2.232-0.698-0.086-1.356 0.198-1.784 0.706l-4.86 5.84c-0.706 0.85-0.59 2.11 0.258 2.818s2.11 0.592 2.816-0.258l0.498-0.598-0.34 2.732c-0.136 1.096 0.642 2.096 1.738 2.232s2.096-0.642 2.232-1.738zM38.676 27.102l4.86-5.82c0.708-0.848 0.594-2.11-0.254-2.818-0.376-0.312-0.832-0.466-1.282-0.464h-10.68c-1.104 0-2 0.896-2 2s0.896 2 2 2h6.404l-2.12 2.538c-0.708 0.848-0.594 2.11 0.254 2.818s2.11 0.594 2.818-0.254zM25.922 28.75l3.372 3.372-4.464 5.356zM16.134 18.962l7.038 7.038h-12.902zM0.586 3.414l12.708 12.708-8.83 10.598c-0.708 0.848-0.592 2.11 0.256 2.816 0.374 0.314 0.83 0.466 1.28 0.464h15.734l-1.718 13.752c-0.138 1.096 0.64 2.096 1.736 2.232 0.698 0.088 1.356-0.196 1.784-0.704l8.598-10.318 12.452 12.452c0.782 0.782 2.048 0.782 2.828 0s0.782-2.048 0-2.828l-44-44c-0.782-0.782-2.048-0.782-2.828 0s-0.782 2.048 0 2.828z"></path>
</svg>
