<!-- Generated by IcoMoon.io -->
<svg version="1.1" xmlns="http://www.w3.org/2000/svg" width="48" height="48" viewBox="0 0 48 48">
<title>zap</title>
<path d="M23.17 10.52l-1.154 9.232c0.066 1.432 0.93 2.248 1.984 2.248h13.73l-12.9 15.48 1.154-9.232c-0.066-1.432-0.93-2.248-1.984-2.248h-13.73zM24.464 2.72l-20 24c-0.708 0.848-0.592 2.11 0.256 2.816 0.374 0.314 0.83 0.466 1.28 0.464h15.734l-1.718 13.752c-0.138 1.096 0.64 2.096 1.736 2.232 0.698 0.088 1.356-0.196 1.784-0.704l20-24c0.708-0.848 0.592-2.11-0.256-2.816-0.374-0.314-0.83-0.466-1.28-0.464h-15.734l1.718-13.752c0.138-1.096-0.64-2.096-1.736-2.232-0.698-0.088-1.356 0.196-1.784 0.704z"></path>
</svg>
