<!-- Generated by IcoMoon.io -->
<svg version="1.1" xmlns="http://www.w3.org/2000/svg" width="48" height="48" viewBox="0 0 48 48">
<title>zoom-in</title>
<path d="M32.082 31.712c-0.068 0.052-0.134 0.11-0.198 0.174s-0.12 0.128-0.174 0.198c-2.516 2.426-5.938 3.916-9.71 3.916-3.866 0-7.364-1.564-9.9-4.1s-4.1-6.034-4.1-9.9 1.564-7.364 4.1-9.9 6.034-4.1 9.9-4.1 7.364 1.564 9.9 4.1 4.1 6.034 4.1 9.9c0 3.772-1.49 7.194-3.918 9.712zM43.414 40.586l-7.35-7.35c2.462-3.080 3.936-6.986 3.936-11.236 0-4.97-2.016-9.472-5.272-12.728s-7.758-5.272-12.728-5.272-9.472 2.016-12.728 5.272-5.272 7.758-5.272 12.728 2.016 9.472 5.272 12.728 7.758 5.272 12.728 5.272c4.25 0 8.156-1.474 11.236-3.936l7.35 7.35c0.782 0.782 2.048 0.782 2.828 0s0.782-2.048 0-2.828zM16 24h4v4c0 1.104 0.896 2 2 2s2-0.896 2-2v-4h4c1.104 0 2-0.896 2-2s-0.896-2-2-2h-4v-4c0-1.104-0.896-2-2-2s-2 0.896-2 2v4h-4c-1.104 0-2 0.896-2 2s0.896 2 2 2z"></path>
</svg>
